<mxfile host="65bd71144e">
    <diagram id="XtzXG9lw2EhPkWoy5lCI" name="페이지-1">
        <mxGraphModel dx="1086" dy="1906" grid="1" gridSize="10" guides="1" tooltips="1" connect="1" arrows="1" fold="1" page="1" pageScale="1" pageWidth="827" pageHeight="1169" math="0" shadow="0">
            <root>
                <mxCell id="0"/>
                <mxCell id="1" parent="0"/>
                <mxCell id="81" value="" style="rounded=0;whiteSpace=wrap;html=1;fontSize=24;fillColor=#647687;fontColor=#ffffff;strokeColor=#314354;" parent="1" vertex="1">
                    <mxGeometry y="12" width="1050" height="623" as="geometry"/>
                </mxCell>
                <mxCell id="71" value="" style="rounded=0;whiteSpace=wrap;html=1;fontSize=24;fillColor=#6d8764;fontColor=#ffffff;strokeColor=#3A5431;" parent="1" vertex="1">
                    <mxGeometry x="10" y="225" width="310" height="360" as="geometry"/>
                </mxCell>
                <mxCell id="33" style="edgeStyle=none;html=1;exitX=1;exitY=0.25;exitDx=0;exitDy=0;entryX=0;entryY=0.5;entryDx=0;entryDy=0;" parent="1" source="6" target="34" edge="1">
                    <mxGeometry relative="1" as="geometry">
                        <mxPoint x="710" y="-142.01" as="targetPoint"/>
                        <mxPoint x="750" y="-7.019999999999989" as="sourcePoint"/>
                    </mxGeometry>
                </mxCell>
                <mxCell id="35" style="edgeStyle=none;html=1;exitX=1;exitY=0.5;exitDx=0;exitDy=0;entryX=0;entryY=0.5;entryDx=0;entryDy=0;" parent="1" source="6" target="36" edge="1">
                    <mxGeometry relative="1" as="geometry">
                        <mxPoint x="840" y="67.99000000000001" as="targetPoint"/>
                        <mxPoint x="750" y="12.980000000000011" as="sourcePoint"/>
                    </mxGeometry>
                </mxCell>
                <mxCell id="38" style="edgeStyle=none;html=1;exitX=1;exitY=0.75;exitDx=0;exitDy=0;entryX=0;entryY=0.5;entryDx=0;entryDy=0;" parent="1" source="6" target="39" edge="1">
                    <mxGeometry relative="1" as="geometry">
                        <mxPoint x="810" y="127.99000000000001" as="targetPoint"/>
                        <mxPoint x="750" y="32.98000000000001" as="sourcePoint"/>
                    </mxGeometry>
                </mxCell>
                <mxCell id="6" value="" style="image;html=1;image=img/lib/clip_art/computers/Server_Rack_Empty_128x128.png" parent="1" vertex="1">
                    <mxGeometry x="660" y="24.990000000000002" width="80" height="80" as="geometry"/>
                </mxCell>
                <mxCell id="7" value="" style="shape=image;verticalLabelPosition=bottom;labelBackgroundColor=default;verticalAlign=top;aspect=fixed;imageAspect=0;image=data:image/png,iVBORw0KGgoAAAANSUhEUgAABLAAAAFhCAYAAABge1PiAAAABGdBTUEAALGPC/xhBQAAACBjSFJNAAB6JgAAgIQAAPoAAACA6AAAdTAAAOpgAAA6mAAAF3CculE8AAAABmJLR0QAAAAAAAD5Q7t/AAAAB3RJTUUH4gsHCh44jIsbFgAAgABJREFUeNrt3XecXFX5x/HPbnpPhiQEGHrn0oZe5YqgyCCiIorlZ0cFu46KBUXFNhYEpNhABURFQfEqiOAASegklAmhBAjZ9MmSnmyy5ffHc9YsIQnZ3Sn33Pt9v177Qimbueeeuefc5zznOSAiIiIiIiIiIiIiIiIiIiIiIiIiIiIiIiIiIiIiIiIiIiIiIiIiIiIiIiIiIiIiIiIiIiIiIiIiIiIiIiIiIiIiIiIiIiIiIiIiIiIiIiIiIiIiIiIiIiIiIiIiIiIiIiIiIiIiIuKdpjh8iPGFaU3AEGAMMB4YDQwFBugWiUgVdABrgOVABVgGrKsUc11qGhERERERkfhrWABrfGHaYGAn4BDgUOAAYEdgHDASC2A16xaJSBV0AmuBlcBLwGzgceBh4BFgTqWYW69mEhERERERiae6BrBcptW2wGuB04GjgO2BwboVItIAbcBcYCrwd+AuYFGlmFPLiIiIiIiIxEhdAljjC9PAsqvOAt4F7I+CViISL23Ao8C1wF8qxdw8NYmIiIiIiEg81DyANb4wbQzwduA8bJug6lqJSJy1A9OAy4CbKsXcCjWJiIiIiIhIY9UsgOWyrg4FvgqcihVpFxHxxRrgZuB7lWLucTWHiIiIiIhI49QkgOUKtL8T+Aawm5pZRDw2E7gAy8ZqV3OIiIiIiIjUX9UDWOML00YCnwc+B4xWE4tIArQC3wN+Xinm1qg5RERERERE6quqASxX7+pC4OOoSLuIJMsa4KfYlsKVag4REREREZH6qVoAy2VefQc4FxikphWRBGoDfgR8p1LMrVVziIiIiIiI1EdzNX6Jq3n1eSzzSsErEUmqIcBngXPHF6bpRFUREREREZE6aa7S73knVvNK2wZFJOmGA+cDp6spRERERERE6qPfWwjHF6YdCvwR2F3NKSIp8jjwjkox96SaQkREREREpLb6lYHlirZ/FQWvRCR9DgC+NL4wbbiaQkREREREpLb6u4XwLOBUNaOIpNSZwGlqBhERERERkdrqcwBrfGHaTtiJg0PUjCKSUiOAT4wvTJuophAREREREamd/mRgvR04UE0oIil3FCroLiIiIiIiUlN9CmCNL0zbDjib6p1iKCLiq0HAu8cXpo1TU4iIiIiIiNRGXwNQr8UKGIuICBwOHKNmEBERERERqY1eB7DGF6YNBt4EDFbziYgAVgvrtPGFacpKFRERERERqYG+vGztBBypphMReZnjge3UDCIiIiIiItU3sA//zSHADmo6EUmATmA9sM79tLufDvfPOnv8e009fga4n4HuZzCwLbAfMFfNKiIiIiIiUl19CWAdhrYPikj8dQBtwHJgMbDE/XUhsAioAEuBFcAqYLX799diQa3uYFYXFsBqZkPwqjtoNQQYBgx1P0+p2UVERERERKqvVwGs8YVpQ4H91WwiEjPtQCswH3gWeBqYBTwPLABewgJZa4DOSjGnFhMREREREfFIbzOwxgA7qtlEpMHWYVlUTwLTgYexoNUcLKOqTUEqERERERGR5OhtAGs8ME7NJiINsBoLUk0F7sECV3OAVQpWiYiIiIiIJFtvA1ijgZFqNhGpkzZgJnAH8G8saFWpFHMdahoREREREZH06G0Aq7tYsYhIrXRhhdb/C9wETAYWVIq5LjWNiIiIiIhIOvU2gDUAO4lLRKTaOrBT/P7qfmZUirk2NYuIiIiIiIgMVBOISIOtx7YGXgv8DZhTKeY61SwiIiIiIiLSTQEsEWmUDmAa8Gvgpkoxt1BNIiIiIiIiIpuiAJaI1FsXdprgr4DrgXk6RVBERERERES2RAEsEamnCnAdcDnwjAqzi4iIiIiIyNZQAEtE6qEduAv4AVCqFHPr1SQiIiIiIiKytRTAEpFaWwhcBlxVKeYWqzlERERERESktxTAEpFa6QLuBS7Asq461CQiIiIiIiLSFwpgiUgtrAV+D1xUKeZmqzlERERERESkPxTAEpFqqwDfB66sFHOr1BwiIiIiIiLSXwpgiUg1PQ98EbhJWwZFRERERESkWhTAEpFqeRz4FFbvSq0hIiIiIiIiVaMAlohUw4PAuZVi7iE1hYiIiIiIiFSbAlgi0l/3Ax+tFHOPqilERERERESkFprVBCLSDw8DH1fwSkRERERERGpJASwR6asytm1wmppCREREREREakkBLBHpixeAT1eKuQfUFCIiIiIiIlJrCmCJSG8tAb4E3KGmEBERERERkXpQAEtEemMt8D3gL5ViTq0hIiIiIiIidaEAlohsrS7gauDKSjHXoeYQERERERGRelEAS0S21n+BiyrF3Co1hYiIiIiIiNSTAlgisjVmA1+rFHNz1RQiIiIiIiJSbwpgicirWQt8H7hXTSEiIiIiIiKNoACWiLyaG4FrVbRdREREREREGkUBLBHZkqeBH1SKuZVqChEREREREWkUBbBEZHPWARdXirkn1BQiIiIiIiLSSApgicjm/Bv4g5pBREREREREGk0BLBHZlArwk0oxt1RNISIiIiIiIo2mAJaIbMqfgMlqBhEREREREYkDBbBEZGMvAFdVirn1agoRERERERGJAwWwRGRj1wOPqxlEREREREQkLhTAEpGeZgG/rxRzXWoKERERERERiQsFsESkpz8BM9UMIiIiIiIiEicKYIlItxeBGyrFnFpCREREREREYmWgmkBEnAiYkdaLz2YKzcBgYBAwzP0MwgL9nUAHsBZYDawD1rW0FjvUbURERERERGpPASwRAVgCXF8p5trTcLHZTKEJGAvsCOwN7AnsAmwPTABGYsGsgUAT0IUFsNZjAazFwJxspvAM8AQW+JvX0lpcp64kIiIiIiJSfQpgiQjAf4GHknyBLsNqW+AI4LXur7tjgazBffy1XVhW1lzgkWymcBvw15bW4lJ1KRERERERkepRAEtE1mC1r9Ym8eKymcJA4ADgTCCPZVwNrdKvb8K2Gu7hfvLA08BkdSsREREREZHqUQBLRB4BSkm7KJdxFQDnAG8FtsMCTrU0wP2IiIiIiIhIFSmAJZJuXcBfKsXckiRdVDZTGAt8EPgEsKtus4iIiIiIiN8UwBJJt9nAP5N0QdlMYW/gIuB07BRBERERERER8ZwCWCLp9m/g2aRcTDZTOAy4DDhSt1ZERERERCQ5FMASSa+VwF8rxVxHEi4mmykcBFwJHKpbKyIiIiIikizNagKR1JoOPJCEC8lmCjsBP0HBKxERERERkURSAEskvW6pFHMv+X4R2UxhOPA14ETdUhERERERkWRSAEskneYDtyXkWs4G3q1bKiIiIiIiklwKYImk01Rgpu8Xkc0U9gE+DwzXLRUREREREUkuBbBE0qcdiCrFXJvPF5HNFAYB5wH76paKiIiIiIgkmwJYIukzG7g7AddxJHCWbqeIiIiIiEjyKYAlkj6TsSCWt7KZwhDgHGCibqeIiIiIiEjyKYAlki7rgdsqxVy759dxBHCqbqeIiIiIiEg6KIAlki7PA/f6fAHZTGEg8C5gG91OERERERGRdFAASyRd7gNaPL+GvYE36laKiIiIiIikhwJYIunRDvwnAdsHTwN20u0UERERERFJDwWwRNKjBcvA8lY2U8gAbwKadDtFRERERETSQwEskfR4GM9PHwQOAw7SrRQREREREUkXBbBE0uOuSjG3ztcPn80UmoBTgJG6lSIiIiIiIumiAJZIOizG89MHgYlAqFspIiIiIiKSPgpgiaTDk8Aznl9DDthLt1JERERERCR9FMASSYf7KsXcMs+v4QRghG6liIiIiIhI+iiAJZJ8bcAUny8gmymMAY7TrRQREREREUknBbBEkm8O8Jjn17AnsI9upYiIiIiISDopgCWSfNOAuZ5fw5HANrqVIiIiIiIi6aQAlkjyTakUc+t9/fDZTGEwcDzQpFspIiIiIiKSTgpgiSRbK3C/59ewHXYCoYiIiIiIiKSUAlgiyfa0+/HZgcCOupUiIiIiIiLppQCWSLI9UCnmWj2/huOAYbqVIiIiIiIi6aUAlkhyrQcm+3wB2UxhDHC0bqWIiIiIiEi6KYAlklxzgemeX8PuwD66lSIiIiIiIummAJZIcj0GzPH8Go4EttGtFBERERERSTcFsESSa0qlmFvr64fPZgqDsPpXek6JiIiIiIiknF4MRZJpGXCf59cwCThUt1JEREREREQUwBJJplnATM+v4UBgJ91KERERERERUQBLJJkeBBZ7fg3HAsN0K0VEREREREQBLJHk6QAmV4q5Ll8vIJspjAaO0a0UERERERERUABLJIkWAI94fg27AfvqVoqIiIiIiAgogCWSRE8AL3h+DUcC43UrRUREREREBBTAEkmiqZVibrWvHz6bKQwEjtPzSURERERERLrpBVEkWVYCUz2/hknAobqVIiIiIiIi0k0BLJFkeR4oe34N+wM761aKiIiIiIhINwWwRJLlYWCh59dwLDBct1JERERERES6DVQTSD90AR3AemA1sApoA9a5v9/p/r1m19cGAYOBocAwYIj7+81Ak5qz3zqByZVirtPXC8hmCqOAY3QrBSAIoyZggHtODMUCm0Pcc2Sw+2fdz4+uHs+dDvcsagPWup//PZfKpXyXWld62Re7x7IB7mdYj3FssBvfBrp/1lO7+1nn+uMaN16ud3+/s1zKq4Elrs/eQcAI9zPU9fXueVu3DteX1/fo56vdc7fd/fMu9fNU9Z+Nn5Ubj93Nmxm7219l7FbjSn/G7oGbGbsHbDR293y/3dTYrf7YYApgydZaBywF5gPPAbPdz1ws42dFjwlL92DT/ZLYHcAa6B4Y3QGs0dhJc9sC27ufrPvJuH8+QE2/1RYDD3l+DbsBgW5l6l6URgBj3PMgC2yH1ULbzj0fMsBINh/Aau4x4ej+WeeeR90Tj2XuO1IJwmiRe5YtcD8VYDmwqlzKd+qupLo/DgJGuf44yY1Lk9zPtsAEYJzrs92T4CE9xrgBbFiQ6TkJXt/jhWyVG08XAguCMJoLzAPmuP641PVFBVqlXsGGMa5/7w7sAuzqnsWT3FysO4A1ZKOXve4+3r5R8GENVpNzCbAImB+E0Xw3Z2xxf28ZsFYvgV73m5Gu70zcxNg90T0rR24UMBjcI6DQhAWuOnuM3Wt79KPVwEtujO4eu+f1GLtb3di9Ws/LVPdFXP8aBYx1/a/n2D3Rjd1jN3qW9Ry7mzcau3suPq11z7RVrs91P9PmumfanB7PtDXqi7WnAJZsznr3gvckti3tUeApN3AsB9oqxVxV/8DxhWkD3QvqGDcQ7u6CGQcCewE7uIeOsrU2bQYWXPTZ4S6IIcmd8I5wk4vdgP2Avd3L0k5YoKo7MFDr73n3RLl7gtwCzA7CaBbwNDDL/b2lwDq9ZCVywjsY2Mb1vT2BfYE93P/f3r24d7941Vqbe+FvBV4Ang3C6HGspuFzbnKsfijV6PvdiwZ7YAemHIHVntzFveDV6vnb6Z65K7Hg7fPAU0EYPermLy8Ay7SIEMs+M8AFB3Zwc/P93Lx8V2DHHoGBIXUYu9tdMGENFtia48buZ93Y/ZwLKiwH2vXMTOTzawgWkNrZ9cN9Xb/c0c0vuxc8B9X443T1eKYtds+wZ4Iwesw9057Hgvjqh1XWq4fM+MK0k4GoDh1CGmOVe/jfC9wNTHMDw5pqB6t60edwD6rt3Ivu0dgWswPdw0t13Db4bqWY+6qvHz6bKQwEfgO81+N7sBY4paW1eJe64/8mGmPdJPcg97J0kAsQTMQC0nHUjgWu5gHPAo9jQfwZ7u+t0GTEy/441I0lAZBzP3thwaoxMRxPutzEeC4WyLrf/TwJVLTKK73s/6OBA4ATgde678H4GPT7Dixw+xzwIDDZ/XVOuZRfrzvXkL7SjAX3dwcOdmP3AS5AMCHG74HrXcBgnnufeQyYji3AL8AytXSD/eqLYMHRLBZoP8T1yT3YEKyKW2JDJxZAneP64H3AA65PLtPY3X9pCGC94AZFn7J29nRf1HpY7SbDdwL/cQ/6SlzrKLmA1kg3qB4PnIKtHo7Hv8yseW5QrdYL90WVYs7bwEk2UxgD/BALVNa6/3VhacX7VrnfpD6AFYTRQPf8OsR9R49wQYKx+J31uxZb7X3GPSenuonJHGwbjCYk8XwJG+de1LsXP/Z3k95hHl5Sl5sUPwtMAe5wL/oL05q14rZ8HoIFIH36Dja5Z8oj5VJ+ZY3bZy83VzoVC9qOjfl8aR2W/ToV+Ce2oDpfmVk1/y4NwbLwDnNj92Furj0afxeLu7BMrYUuePAwtkj/BLbLpE0BrVj2xQHYIucB2MFOR2FZfxOoT0Z0tXVimf4z3fPsTixJpFVzx74PoL0JHvgWwOoAPgFc7cmLUxeWkfA7IF/jdnkBC1jdgkWFK5Vizrsv0fjCtGHu5eQ04HT3vwd78vG/BXyP6tT56gLWel7AvZn6bRHtcIPijW4yX80gR+oCWC5QsCNwHHCyCxTs7NF3sS+6t1mX3YvWPW5SrAlJY/tiE1bL51Dgde5FbC/3EpY0a91L2X+AfwAPl0v55Sm73+PcvPQw91z3RTMWpHlTuZSfUYN2Gemew+9wz+QsfpZfWIct9N3ixusnlJVV1X4yENvOHwInAUdiGalJLjGzFstqfQzL9psMzEzbszOGfXEAtkX1SNcXj8YCqEk8lXylmzvehgXpHyuX8mvUC7Ze0gNYC4A3VIq5x3y5IeML03YHbse23NTiC/MA8Bf3pZldKebak9CRxxemNWEZNScD73ETtxExf3i9uVLM3anHUGNkM4WMe+k7usoTo1QEsFxa9xg32TjdBQt2I9lBq83pwg6y6M5mvRXL0lqu1d269cVxWNDqja4v7pnQie/mLMeysf4C/At4MQ0ZK0EYZYB/u3vvm7nAG8qlfLmK7THGzYPejwVvkxK47cIWDG7BFqUfUSCrz32kCdu1cBzwZuAEbAEqjYcmdWLlAh5z7163A+VyKb9aPaVufXGCm4ef6vriLviZZdXX59oSLKP6RmwxaqEWQV9d0gNYdwJnVIq5Fb7ckPGFaW8Drq/yS2DFTfCuA6ZUirllSe7U4wvTxmDR+w+7h2Ect4o8BpxSKebm6zHUONlM4YdAoYq/MvEBLDfh2MEFCs7CAlij1JteZhm2VeEmF0x4XttfatIXB2LZVXngTVhdjLT3xQ4sK+uvwA3Ak+VSviPBfUABLGuH4Vjg6uPAa/Bzi+zWWgj8CbjS9W+97G1dH2nGMlpOB850z8uhapmXWYxtMfyrCybMU/+qSV8cim3nPx0LXO2X8GfW1liH1Vv9I7YQ9bz63uYl/RTCqT4Fr5zjqF7waj7wd+C3wCOVYq4tDZ3aBej+Mr4w7T/uxeY8rA5PnPr7Q24SJo31X2yb8TA1xatOOJqwzNB3AGdj9cN0ku2mjcEKJZ8AfBr4exBGNwCPlkv5dWqefvfFUdiKbff2qB3QgR7dBrjv5lewAzH+GoTRNdjWqw41T+K+CwOw7ZOfcfOdNARwt3Xj9qnAFUEY/a5cyi9Wb9hiHwmAdwNvc+O4npebNgELqrwRq1d0YxBGNwJP6fnZ734IdjDACcA73V8noJPluw3GFmIOBj4EXB+E0fXALAWyXinJGVirgTMrxdy/fLkZ4wvTqrWlaRG2evAbYHqlmEt1mvX4wrRJwPuAc7HTzxqtA/hwpZi7Ro+gxspmCttj22n3r9KvTFwGlpt07OQmv/+HZbxo8tt7C9iw/eUhbX/pU1/cBngDtk38WJJZ16oW5mCZ3b8BnknSZDjNGVhBGG0LnAN8DKtblEbrgRJwETBZQYaX9Y8m7FCcD2LB/h0VLOi1LmA28GesPvEMZVP3aQ65A5Yl/W73rNai8avrxA4Nuhq4tlzKz1WTbJDk1fPZWCqeT/Zyg01fLXUvSFcCD6Y9cNWtUswtGF+YVsT2tn/ZPUQbmTa9CNteJPEIKkylegGspE08xgFvx4K/B6DAVX9MAj6C1Ry5MQijq7CsGE2GX70fTnDP7Q8Ah5Oe+hjVsiPwReAM4MogjK5TxorX34dmLHvhAqzO1YAUN8cgLAvzAODiIIyuLJfyy9RHou2xhdsPYbUpFbjqmyasJtMXsJIJvw/C6GrgOdW3fNU+2OTGnjOxbOD9UdZ+bzS7mMBFwNuDMLoUuEmHDWxonKR6BP+2aB0BZPrw37VhdVbeBZxTKeamKnj1cpVirrNSzD2C1cX6Enb6T6M8ATyvu9J4La3FTmwbobZ1vXziMTAIo9dhWRuXAgeh4FW1TMQCgn8Dzg/CaDs1yWb74bggjP4PqyV2BbbFXsGrvr+I7Q38EPhjEEZvDMJokJrFu+/EKOBzWE3TkHQHr3qaBHwb21K4R4r7x9AgjM7Eauh8G6t5peBVdZ6fO2Nbs/8GfCwIo7Fqls32w0nAp7AyNj/EtsUpeNU3A7CstSuAq4MwOtotYqRaUhugE7jHpyDO+MK0QW5y3htdWDHw84CzK8XcvyrF3Fp91zevUswtdy/k78KOzm3EVop7K8XcSt2N2HiQxgY04zbx2AH4DlYA+hTSeapgPewCXAj8OQij04MwUjtv6IPDgjA6HStm+gtsu6DapzoGAa/FAiDfD8JoJzWJN9+LXYDLsBV5Bb433bfPBq4NwujYFPaPvV3/uBo4CgU3a/XevD/wM9fPjlcw4WV9cIxbdLoZ+BG2+Kl+WB3DgLdipxV+yZVUSK2kRkOXAA949pl3wCLUW6uCFWe/HHiuUszpq721DVfMdQH3jC9Mew/wLTfhqddK9GrsuFSJjzlYUf3dUj7xaAZeh21LOQZlXNXDACw481tsZe2n5VJ+Tsr7YA4rfP9mVOOqlsZhhb+PCcLoQuB21Q+K9XfjMODH2AmDsmVHAtcEYfR54JakF0B2ix9vAb6GFWtXxlXtDcYOTTgEuMxtXW1N8fNpELad+bPYKfA63bJ2tscWP493Y/cDaSzyntQXlCeBWZ595gPZugLj7cCdWAbRlyvFnIJXfVQp5mZjKa5FLLBUD88DZbV+fLS0Fte571RqT/lw21I+D1yLZYIqeFVfY10w4YYgjE5M44puEEYTsRqFN2H1MhS8qs8c8Cjg99iK7lg1Sey+FwRhdBIW5FbwauvtgS3wvj3Jz1P33LwIy1TdHwWv6m07F0y4JgijnCtYnrZn1K7A94E/Aaeh4FU9DMJOyrwB+HAQRqlr86Q+1O91W8V8ciyvXttjEban/exKMXd7pZhr13e4fyrF3DLXphcA9Sj8+TBWOFziZWpa74vbQnSJ+x5MVFdomCYs8+1a4LwgjIanpP8NDMLoZGy74Lewoq9SX+OBb5Ly+kEx/G7gXgh/AeynFum1HbCtXm93BaWT1j/2x7YLfhYF/BtpIHbIyA3AO9JSW9DVW3sHVm/ts8A26gp1twvwU6wcwKQ0XXgSA1hr8GyL1vjCtDHYKujmdGL1mt4FXFQp5hbpO1s9rm7Yz4CvYic51konMLlSzGmbRvzMAh5N4QvSQcA12GlFKo4dD9sBPwB+6FbXk9z/JmKLB9ejgtSNNgh4J1bX5bg0ZhLEUB74ObCrmqLPJmFbLxNzZJzLyjsRW+w4Vc/N2NgLOwX+Sy6rPclj925Y4ORX2LZ/Zf41zgjgk8CvgjBKzUJHEgNYc7DC5j7ZA9h3M/9spZvAnF0p5u5Q8KM2XDbbVe5lakWN/pjFWMFwiZmW1uJqoJSmaw7C6DXYtpTXavIRO8OAjwO/CMJozwT2vaYgjI52L2BfwTKAJB6OdM+FtwZhpBfjxn1HXostrKnIfv/tAPw4CKOjEtAvmoEzgd9gBbIlXsYCXwd+lMSMGJcxnce2C34UGKlbHgvNWJD+9+5ggVRccNJMA+Z79pkP38wE/gWsRtMXK8WcTkmrMRfEuhLby12L0xxnAM+ppWPrHuCllLwcnYytnGkCHO/x+c3Ab4IwOjhBfW8o8GHgD8DJKHsgjnbDjuz+QBBGOvq8/t+Rg4GLgd3VGlWzF1B09Xp87RcDgHdjJw3urFsaW4PdGPdzd3JoUp5LY7A6ldcAh6KFzzg6BNtWfFoSt01vPEFOki5si9Y6Xz7w+MK0gdjJDU0bXcc9bqC6xm1xkzqoFHPr3cTxKqDa2W4+1mZLkyexIGPSX45e715O99Qt98JxWBArCdkD22LbI3+qF7DYm4gdcPIJd8qZ1Oc7siN2/PyBao2aPEu/EYTRSA/7RTNWRuTHwLa6lV68X78VuCoIo70S8FzaA1vgvwBlTMfd7u5evSPJB1gk7cJagfs9+8yTsP3D3dqxlen/qxRzUyvFXJe+i/VVKeZWY6e63FLFX+tdbba0aWktvgTcnfCXo+Ox1Vut7Pslh20nPNrjvhcAvwY+gdVskPgbixXW/6SCWHX5jozAth+dqNaomXcC7/cpO8FtB3obFlCeoFvolddjh2Ps7ekzqXveeK377gzSLfXCDthCYWKDWEm7qKeAZzz7zAdgpwgArHYd7hOVYu4Fff8ap1LMLQa+RvXqqc0GHlfLxl4JWJXQl6ODsNMGlXnlpwOwuho7eDgBfq2bAOdJ7unHSTUK+AZwrrYT1vR70gR8AHgv2ppTS0OAL2ClO3xxMpaVp8wrP50IfMe3zD+3ZfUdwO+w2ojil0nAT4Azk7idMGkTyfsqxdxSzz7zsVjB3uXYSuc3K8XcS/reNV6lmCtjR4tXo089gn+12dLoMeDZBL4c7YhtPThYt9hbq4B/YZnGvvS7ZuDtWMFh9T1/dQexPpDkLQkNdgQWWBmqpqi5nYEv+nBSnFt4+jEq5u/16wRwK7YTw5exewhwHnaI2C66hd7qPoX11KRdWJImIm3AZJ8+8PjCtFHAMdhJg18FfuK2r0l8/AP4JVaXrK+6a7O1qzljbxEwNUkX5Cbp3wRep9vrrVXAd4FiuZRf40m/GwR8SBPgxBgLfAer6yLV0+UyM76M6sLVUx7blhfnZ+h2WM3AA3S7vJ5TfgG4ulzKe3GKvNvK/GU359hGt9B7WeDiIIyOS9JFJSmA1QJM9+wz74HtUz0fuNIVEJcYcffkUvpXW60CPKDW9OAh0lrsBP4LrEvC9bhsiXOwAyHETyuBbwM/KZfybZ70u8HY6u0PUc2WJJkI/CAIo9eoKaqmCzgTeKOaoq6GYrXdYpnZ5E5r/RJWQ0n81B28+n25lO/0ZOzuzrb9MqpVmSR7AD8JwmjfpFxQkgJY04F5nn3mAcD3gF8oOye+KsXcHKz+wMo+/oqZwCy1pDcewGqWJUEIfB6r+yH+WYltLf9puZT34jRat/Xg01jQbaxuYeLsBhSTcLJWDHRh2Ynn6hndEDngPTH9bG8HPozqoflqoZt7XedR8Go0cCHwGbSVOYkOB74fhNHEJFxMkgJYkyvFXJtnn/lh4LeVYm6dvlex9y/gb338b+/1sDZbmg3HTgP1mtt+cAGwnW6pl1a4yeQl5VJ+nSd9bhDwSdfvRuoWJtYRwEVBGGXUFP2yDbZF7GA1RUM0Ae+LWzDWndh6PsqA8dUC4LPA9Z5lXn0Ty5zWSYPJdRpwvsvw9FpSAlgvAff59qErxVxXpZjr0vfJi3u1GrjcDUy90QZMUQv6IZsp7IVtGfU6zdadHvNx4HjdVS+twNL4L/Fo2+BA4KPA11HwKg3OAD6tkwn7ZRhW30gvjI2zF3B2EEZxeY4OB77o+xwkxRYAnwP+6FHwajjwFSx4NVi3MNGagY8Q38zTXl1IEjwDPK1+KTX2AHBTL/+bF7GT7STmspnC3sAVJKPY+TFukNKJYf5ZjgWvfu5R5lUTVmftW8Bo3cJUGIhl271JTSGeeye2NTYO3kzMi8vLZs0DPgXc4FHwahC2ZfAzKHiVFiOArwZhdJTPF5GUl5v7sCwskZpxdcquwfa2b61pwFy1XrxlM4V9gSuBE32/FpcK/lns+FzxyzIsg+kyX4JXzmlYPcdxuoWpMg64IAijPdUU4rG9scBRo8furAskaOugf+a5edeN5VLei5017pCfD2IF21XzKl12Ab4RhJG3h+wkIYC1Dqt/pa14Ug/TgH9u5b/b5fqmTpeMsWymsB8WvAoTckmnAafoznqnO3h1RbmU9+aZ4VbxfoRqraXVwcCX3TYUER81AW8Pwmh8gz/He4HDdDu804Jlo/7Zl+CVczpWZ3OUbmEqnQyc60qOeCcJAax5LqggUnMuGHUDVqPm1bQC96vV4iubKQRY8CoRx8K7CfjHsNoq4o+lWA2KKz0LXu0GFLE6MpJe7wDeqmYQjx1MA2tGuizG96Nt/75pwU7dvcmn4FUQRocD3we21S1MLa9r5SbhQfmoe4CI1Mt9WD2sV/MUVp9NYiibKewPXEWyCp3ngaN0d72yFAte/cKz4NUY4NvAcbqFqTcCKARhtLuaQjw1DDjD1QSq97MU4F1oIcA3c7DMK9+CVzsCP8S2zkq6bYtlUG/j2wdPQgBrSqWYW6s+KPVSKeaWA3/Htghuyf2VYk612WIomykciAWvjk3KNbmAwntQIU6ftGL1J35VLuXbPeprA9zE/e26heIcCJynUwnFYyfQmGLuu+hZ6p0XgU8AN3sWvBoBfI3klMyQ/jsRD08l9D2AtQy4V31PGuAOtlycfR0wWc0UP9lM4SAseHVMwi7tWJR95ZOewSvf6uSdhhUbHqTbKD28l2RltEq67NigF/s3Avuo+b0xGwte/b1cynvzoV2m3/vdc1qk2yBs8Wk/nz607wGsZ4GZ6nvSoL533xb+eQswXc0UL9lMIYcFrxIV6HFZD28FRuoue2EJ8CXg6nIp3+FZX9sL+AawTUrvXTuwBquDuBQLRFbcX5cBq7AFjDQeLDMe+HQQRqP1FRcPNQMnB2E0pI7P01HAW7B6NBJ/LwDnArf4FLxyjnXzjrTWSG0HVvcYu5e4sfslYLkbu9endOzeE/iYTxnUvqd6P+AmjSJ1VSnm2sYXpt3hggabCgRPZ8sZWlJnPYJXhyfw8nZBKeG+WAIUgN95GLwagWWN5VJyr9YAC4DnsXqGLwDzgcVsCFZ1T3ibgSHYiU4TsFMZd8UyK/YAdkjJi8PrsVp8f9BXXTx0mBtPn6rTn3cQOnnQF89jmVf/9C14FYTRROACLMswDVZih7w9hyUczHZj+WI2BKs6eozdQ4ExbuzeAdtKvA+wuxvL01Ca4x3An4F7fPiwPgew1gOTK8Vcp56p0iD3uofhpk7xmFwp5trURPGQzRQOA65I8ETxWGDnFN3SLqDN/ax3P91j2gD318EuoNAUo8+9GFsB9S545ZwFvDPh/Wop8BhwF5ZlOxNYBKwpl/K9mm8EYdTkJsYTgf2w005PBAKs8HkSDQM+GoTR7eVSvqLRRzyzvZsn1CuAdRIwLkXt2wmsxbJU12NZMd1j98AeY/fgmI3dzwHnlkv523xr8CCMmrGssZMS3q8WA48Ad2MJLs9gGVZre1unzLXZMPc8OABbID4BK3w/JKFtONGN3Q+WS/nY1xb3OYC1AHhYY600eECbySsDWC+x5e2FUkcueHUVcEgSr88V1H4d/mfUvlpgodVNSB4DZmDZMAuxTJjuAFb3pGMMtsVtErCTm3Tsga0+jmnQxHgx8AXgOh+DV0EY7YtljiUxi6gDeBq4xf08Bizv7yq7mzSvwVZ/Zwdh9C9sm91R2GrnKe7/J83RwJuBX2sEEs8MAo4LwugPvQ1Y9+GZOprkZ053BxZmYqfGz8QKoC/CMmG6x8IBwHA3Po93gYOd3di9O5DFgv6NGLtnAef5GLxyXgN8jGQc3LaxdcDjwM3AP4GZ5VJ+dX9/qfvur3JzzmeCMLrZzSdPcGP3a4EkbpXPY3Usb4/7B/X5hecx9xAUaYhKMbdifGHag+6B1tMz7mVIGiybKRyJZV4lecvT9iRzWyRYrYKHgX8BJffdWtabFwuXBTMIGOsmwoe67+zhblJcj9oji9gQvPIuazgIo6HAZ4F9E9a/2t1c4vduAvxiLe+PC4hVgH8EYfRv1wc/ApzhXtySYjDwwSCMbimX8os0EolnDsOyopbU+M/ZE8vMTKJWbJfCP4Ep2ILvyt5kwrixezAW0NoTOAILxhyKLRzXI5j1DJZ59R8fb0IQRttgWd/bJqx/tWGJAte4+eGiWp4G6eYF84A/BGH0NyzI83Fsy3ySFvXGAh8KwmhyuZRfE+cP6nMAa2qlmFuDSGM9jGV/9DyN6/5KMbdETdNYLnh1FVZjIsn2wbKMkjb5/RdwLXBvuZRf1o+JRxe2SrfI/dwbhNEvsfpEJ2J17I6idlu6FgKfA27wMXjlnEKytg52YYsMvwRuAObWu6ZJuZRfB0wJwuhh4K/AF7HMpaSskh+Gna72W41G4pldsRo4tZ7H5UheBuY8bDHgD8C0cim/qp9jdxtWT3YuUArC6DJgL+ANWOA/R+22dHkdvHLejWXoJ0Untk3wCuBv5VK+7u9aLsPrtiCMprr54xeA/RPUxq93c5E74/whfQ1grQCmaoyVGJjhXra7VzfWA5PVLI2VzRSOcQPcgSm43EOx1PskaAf+DfwImOJe8msxAWnDtjLMDMLoWmw17QNu4B5VxT/K++BVEEbbYtlXoxLSx5YC1wGXAk81uhivqzXx9yCMHnIT4Q8npK0HA+8Nwujm/gSgRRpgHFb35sEaPlebsIyipoS02RrgL8DFwKPlUr69hsGD6UEYTce2KJ8EfAg4Dqs3WC1PYcGrO329IW7b/7m8fIHdZ/OxRadflEv5hh+SVS7lVwC/DcLoPuBrWI3QJBR7Hwe8Jwije8ql/Pq4fkhfA1jPAU9qjJUYmAu0sCGA1UJz0yNqlsbJZgrHAleSrBWRzU1QBpGcIN0a4OfA9+u5qlYu5ZcDURBG/8VWKj+NbVPo76RvPhb4+bPHmVcA78IOCUiC6cC3gKhWwdF+9MN5QRidD5SBC7GTkHx3FLZd9+8amcQjzcDBNf4zxpCcLdkvARcBV/Yn46qXz0uw7dg3BGF0K/Am4FNYRlZ/ywLMBD5eLuVLHs8NBwIfxWqI+a4TO1TlQmBy3GqIlkv5p4IwOs/FJQrYNjzfneLeLWJba9zXANYD7sElvXvRHY7t1R3S42cQtgLUhWUPdZ/stRZYDaz29LSselmOpRkfShPQ0Tl/8G13T8yO/fwYmvu9E2Q98HRLa3Gtr42TzRRGYLUL6lFnqAvbSvdtUhC8ckZj6fS+6wAuA75ZjQKcfZyErAZuCcJoCvA+LJDV15Md5wOfwYJXXb7elCCM9sRqNA3wvH+tx7IDLiiX8s/E9UOWS/m2IIx+4/rPTxPw3R4BnB2E0W0u61EaYx12rPwaN79bh2W7dvLyE1uHASOpbiaLr/YNwmiUy7KohYnYVkXfrQa+CVxeq6yrrXhuLgV+7xahPg6cQ9+3Zj6JBa/u8vy+HEUytv2vBn6FLWzOj/HYvTwIox9iW2i/j/81x7YDzkQBrKpqByZXijkFVTb9wjHATUCywC4ueLAbtpo7HksNHOUmKgN5efpyl2vfNdjJXq3AoiCMXsDSaZ/Gst8qcU4rrKdKMbd+fGHaLJqaoG1d+8DHZuzTPH/BzTQ3D3Tt2VcDsJM1zsSCib46HrjaTY7r8SI/hOQeT7+5SfD2CbiO/wA/bFTwaqOJSGsQRhdj29QvxLYo9CaAMxfLvLrR8+BVE/B+/M8SWAVc4vrX0rh/WNdn/hmE0Wosk9T3FfQTse1YD2nGULc5csXN2Z7Eyhx0n/q2FCvB0ebG4y4s26h73jjWvXjtDARY/ch93LyxOWXtuBuQce1VCzuRjEyN64FfNip4tdGzsyUIo28A92CZtr093GYG8LFyKX+P5++BQ7FTB30PolSwBelfxr2guOt/7UEY/c69s/0ECwL57PQgjC4vl/Jz4vjhfAxgLdRE6BUPq+HY6VqHAUe6ScdOWMCqWvtxu7BsoxZgWhBGd2G1nmalPpjV1DSraenyNYMemt7Z/MKcMVQvW+E5/M80fA129KzUxo74Xy9nOfCzcikfm77uggj3B2H0PuB8LAtpa+qMzcW2Mdzkc/DK2R84OwF961vAZb5lAJVL+VIQRp8EfoEtRvlqIvBmzdtqqgtY4OZkt2K7FGbTy1PfNppXNrEhw/ckrGD2wSSjxsvWyLh59Owa/f5d8f/0sjnu2Rqb4IILpN0ahNEzLvhxJltXDuAJrObVPQnou68B8p5fw3ysJuQffdoFVC7lO4Mw+qPrcxe754ivup/9V8fxw/kYwCrXcEDxhouw7+0610luYjG+hve0CduzPwZbmXune8CUgjD6M3CXqyWTOgMfenTWgNlz1jS1Ls3QVLV6nJ3APS2tRW8zDbOZwmgsjVlqZzv8zzi7n5gefFAu5Re6ukSzsSKdW5qMtGDbDr0PXrmX1/fi9xaXFcAF2NYWLxdZyqX87UEYfRmrDbeNx/ciH4TRz8ul/AI9squqC3geO0nzz8CT1QrUumfYMuBBd8DAr7E6Q+e6+WbSM7JGYYHjWgU0sglow3+7d7I4PjtnBWF0rhuXP8GWg4WPY5lX3h8OFoTRMOwgkLEeX8YCPC7BUC7lu4Iwuh6YAHwHfwPVA4G3BGH0xzjsjtiYjw/PKZVibhUpFYTR+CCMzgJ+j620FbFia5Oob0ByIJb98V7suNw/BmH0ZvfwTJWBjzxWaWpduraKwSuAxfi/Yr0bsJ/eMWpqO/w/xahUwzoj1ZiMrMFOrCu47+WmvOgmyUnIvMJ9b8/y+POvBX4IXJGADOEbgR9jdbx8tS9wjB7XVbUcO5HrdOBr5VJ+eq2yDMulfFe5lF9ULuV/jR0bfzlWmybJBlCjzMcgjJrxf+t/O3BHHLYObqHfLgW+gRWY39x742MkJHjlHIedpuyrpVjWu9f1Q13W2JXANdSnfEqtHEVMawr7FsBaidUlSZUgjAjCaHu3mnAL8FssLXZSTF5eR2BBtGuBK4Mw2j8Io/TcoObmJTQ1VXv70wxsC6HPDsNWIKR2fK9xsA541IPJSLubiHyeV27rfRHbNvj3JASvXPbVO+l7AftG63L36uK4nTTYj4nw5cDNHl/GUOA0V6NT+u9x4EPAp8qlfLmez51yKT8b+CLwZTYf0E+K3V2wqdoGJWButNTNU+P+/FwD/IhNB7GmA+ckJXgVhNEQLKlgjMfzwSJwbRLmUi5r6Xuexy0mAG+I5au3Zw35AjFNV63hA2kb7CjUvwM/w6KhcT0hZiTwf9iK8dnu5MM0WEb1a1Xd39Ja9HZLZjZTGICtBKWt8Gs9nw3N+L2tCCyLYKEnk5FOrGDt19zn7h6TzgP+lpDMK7Btg2/z+POXgO+US/mVSfmul0v5ZcB3gVkeX8Zr8DcoGhed2CLmO8ul/I2NquvmggI/xw6rWJjg9t65RvPtgQkYu5cAL3ny/GzDTnX9CRYkAQtefaxcyt+foP6ai2uwYSv9Gaup1p6UG+IKoH/HfV989fogjMbF7UP59nL5IMlf8el+OR0ShNFp7gt9KXAo/tQs2xtbMf6CKzCfdO1VfjitJaY1gXphWywDS2r7/B7r+TWsxaOtKC4b5jfYlq6ngE8C/yiX8knqV6fh78l384ELy6X83KR92cul/HQ3rvpaF3FntI2wv/OMXwMfKZfyM2LQHzux8hFfxE6sTqIJNRpjB2ELvj5bjZ1Y7svzcy2W3fM7rDzHOUkKXrnM6bOwQzN89AS28JTEWsp3ANd5/PkPIIbbCH0KYHUAkyvFXDsJF4TR7thKwbXAa9m6EzTiZixWQPcrKQhidWJZWNXyonuY+2w//D45ywfN+H+KkXf1u1xNpYuxWjD/TFLwKgijDLY93cfMyU7gKmpXdDkOrsNOmPPRQOCkIIwGIn3p21cDXyqX8rHJeHJBrOuAH7AhsyVJMkAtMg+GkIzTHL0av12tza8CZ5dL+QcT1ld3ww5Z8NFa4MflUn5mEh/ebs54Ff5mUI9xsYjYvQD5YjGWgZVYQRgNCsLorcBfgI/j7z7mbkOxmjGfTviktROrz1Yt04B5nrfJsfh/Op4PL4S+b9Md4eNzrlzKLy+X8jPcC1ySHINl+/roYeBXCbwnPfvdQiwD0NeC7kdiB09I79wEfLVcyr8Uwz7ZAVyBnYSYNGOw072rbTB+ngK/cdt4l0XmDiN4NoF99Q1YEMtHt7n33iR7EstY9dUJQRiNitMH8imANQM7LjiR3Mr3BcCvgIPw/2SxbkOxFPMzk3rvWlqLUL1U6i5gcktr0dsTp7KZwgjgaL1z1NwA9+Oz0fi7XS1pY9BA4AzAx4zZ9cAvkrh1cBMirIi3j3bG6rTI1nsEC17FtnyGy2z5Ph4U9e6lwdTmtMAB+F8fdCKqaReXsXuUG7t97FNLgcvjfBJ1lZ6RXcCfgDmeXsL+wJ5x+kA+dfaplWJuZRI7dhBGe2LphV+mNunKjTYW+EYQRvuTXNVKn2/F3y0i3XYhpseuJkxTAibBzViByMG6nQ23KzFME99KD2MHnSReuZSfD/zN048/DMvOla3zEvCtcin/lAf98kmsXmuSthIOxE77llcaCZycqhPH4+tg/K05+x+Sve2/pyexelg+mgAcHreXBx+sAqYksTcHYXQkVlTwTPxPKd6SfYDPBWE0NKHXV63abE8Bz3jeFodgRdyltjrxt6BzTyfppTYWTsDPFfVO4E/lUn5Riu7VbVT/5Nt6OTJuWxFi7Drgnx593huBexN2D2oxl0nKibVvw+qdSmO9AT+TH1YD17lTTRPPna74D6zml2+agGODMIrNrg9fAlhJKGr9MkEYEYTRG4DfAkel5CH7NuDkhF5btbZ83t/SWnzJ10bIZgpNwHEkOxgbFx0kI4A1AfhqEEZZ3dKGjUeDgdfj55bU2Z695FfDDI/nRHuhrUdb41ngClcA2JcXtApWbH59gu7DxCCMqv2u1J6QsXsv4MtBGI3R17VhY3cGeJ2nH/9R/D9xvbcedHMWHx3k5uux4EsA62FgYVJ6rzvu9C3YtsE01X8ZDXw0oauv1QjYrEvAwzx2aaYJ1k5ytmucCPw4CKOddFsbYlfgCE8/+134e7pPXwMFK/A302UCcKC+cq/qemzLiW9uw98abZuyDXZqYDWtIzlBvncC3wrCaBt9ZRviQPzNgrvVBb3TZD52UJePdgZ2j8uH8SGA1QlMrhRziXjYu+DVW4HLSOcq5AlYhk7SVKOGz1zgMc/bYZ84PeASrtqnXzZSE/B24PdBGL0uCKNBur11dSSwg4efux243aXmp80jQJuHn3sgts1cNu8F4AZX+Ncr5VJ+AXbQQFKMq9L8rqc2T7+7mzIIOA/4VRBGh9UgW01e/Z1qtIefeylwZ9pulsuofdjTjz8aq7cWCz48aCr4X9S6pzxwMbU52cQHI4G3uxOvEiGbKYCdtthfj+LvCRXdjvZ0MPVRF7AsQdfTBLwGO479siCMjg3CaJhuc225mgYhfm77nQs8lNJb95TH3/8DgzAaqW/fZv3D3V9f/Qs7kCYJahHAageWJ6i/DsBOwfsr8N0gjA7WIlRdxu5R+JsQ8DR+ZphWQxk/A9hNwMFxCVL7EMCaSUK2BwRhdAIWvEp7rZcTsC0rSdGMBeb6a0pLa9HbVblspjAUOEbTijqNgKV8J/4Wct6S8cA52ElrvwvC6B1BGG3nslel+ibg7wlGM/E/6N9XFWCBp599D/c9l1daDtzknu8+v6A9lpD7MRI7PbOa2klOgK+nHYEvYhl4VwVhlA/CKKOxu2Z2AQJPP/t0YElK71sLloHmowCIRRkgH1Zc760Uc96vVARhdCAWvNL2KhvkjsT/0/a6NQP9LWK5FLgvAff1IHXvulqY4GvbBjud9U1YoOL2IIxuxTIVl/i4vSam9nETYR89mpYTjDZhOeDryYvj3VzoBX39XmEatj3UW+VSfnkQRndjmZ2+G1KDF7b1CR67m7AdJh8AzsLqof0rCKPbscMnlpVLeX3LqyMHTPT0sz+S4n7QigXvfDytfUf3/W549nfcM7DWAFN876lBGG0P/JAY7R1tsEHYcZxJ2Ss/ABjbz9/xLH5vGcD17+3VvetqPsk4zejVXiAOAr4A3ISt7v4gCKNTgzDKJmk7coMcQkxW1HqpCwtsptUawNcTa0cBe+qrt0l3lkv5pQm4jntdH/XdYKqTYf8/bvFlXgr68gjslPVvYttibwa+GYTRa4Mw2tZtX5e+vVeCHbziYxuucu88abUCf7cQjycmC55xn/jPwVbbfX7IDAe+ih1RLhsc5CaxSajhM5T+Z2A9iP/bwY7DgpNSP3OxQu5pOcZ6lJu0HQF8AjuO+JEgjKZihTGfw7KzOtQ1tmp8Goi/2wdXkt7tg5RL+c4gjHzOTt9H38BNvtjcnZBrmenGpz08v47BWCCmFu837fhZe7C3moAMlpEXumf3LODBIIzuwzIOZwNLPd86W09j8DcpYinpCOBuThuw2uP33T2xOocNFfcH5yP4W+Oh2/9hqbTaA/5yWWA7khHAGk3/Cpe3A5NbWovebonKZgoZbFuo1FeL+w6NSeG1D3MvwftgR3kvw7YkPRGE0cPY4scsbJtVm7YtbFLG40DC6gTMD/prrceffc8gjAaXS/l1+hr+zwskJ6twAVYmwvcA1iBqE8B6HstQG5XCfj4SW8Q+CHg/lkk6C3jcjd2PY4tRrcA6jd2btAP+1hJeTnrrX4GdIO7zKaR7x+FDxDmA1QVMrhRz3k5ugjA6Cvgy1S8AmQTjsQBWEiZrY/oZQFiA1b3w2V7uR+prCfAisFPK26EZOy1qHFYX4r3YKu8894yZHoTRdOzUm3nACtXQAmwhwde+0wGMDsJoJ/w4kKYWcySfX363d9/Xhfoa/s8TwOIkXEi5lF8bhFEZeKPnlzKoRnP4Oe5ej0p5nx+IHSQyAdtu+GEswNGC1cya5sbup7GSCasV0AIsC8bXgzDWARPdKdNNKe3zQzz+/LsEYTS0XMqvbXQjxvnF7AFf724QRtsAXwN21nN2kwZjAawkyNC/ANbjWPq0z46k/3XApPeWYwGa49QUrzCSDYHV07EVrwpWe6F7pXcGthK+tFzKr09hG+1N/7JHG2kCcD2WwZrWDGefT/LbFjuoQQGsDR5N2Pbnp7FAq8/fzwHYtplqW4xlHe2mbv8yTWxYFA6wg1zWuufEM8CjQRg9gi1GzQaWp7RkQODeo3ydd/zdPRvSapLHn30H9/1UAGsLA5+Xp9S5I2M/CLxBY9EWJwUTE3ItO9C/aPrUltair/uhyWYKg4Fj0TbZunN1cKYl4CWhHoa47+oOwAlYGvdL2Er4E26VdzoW4FoIrE3BSu9e+Fu3bhBaIPLZGDcHmKGmACzA/lTCrmk2ttV3hOfXMbwGY/eqIIweBU5W19+iJiwDbhf3czKWfVtx/evxHmP388CipC9GueL3Pu94GIq/2x/Fxu0xNHjxKc4BrHsrxdxST29uDjiPdBRn7I/RCbmOXen7SSArsdN6fLa96/PSGA9jgZiMmqJXmrEMkG2wYqjvdi9b87EFlGk9th22YNsOE1Ng1hVw17ZfaZTB2BZWMcvxPxN7Y/NIRgBraI1+7/3AenT4TW8NwDI4t8UOdOnETrabAzzlMrQexbLT5wOrElYyYASwu7qBNLD/TXLz5IaJa4BlLTDF05eCYcBn0Mrw1vC+Nlg2U2iifysJzwFlz5vhQGBHdeeGecYNJEepKfqlyQ3Me7ifU93LRfdWj0eCMHoQq1f3Av7X4hiGVkGlsfPPHdQM/7MUO3AiSZa565rg+XXUql7NdGxxRM/h/mnGaont537e4t4jF7m50SNBGD2ABbXmlEv5Ns+vdxy2cCzSCEOJQQmguAaw5roHu49OBs5Q/97qF0bfjcTSmvvq4QRMWo/F74KEXiuX8q1BGN2FAli1MMhNFLcHjsfqLS3Eii3f7dq9DCzzcIV3mwS8WIrfJqkJ/mcRlkWSJGuwAJbvalVr6EXgQRTAqtVL9k7u5ySscPg87ECXu4C7gafLpfxKD69tO1RzVhr7PGz42B3Xk3umY0EsrwRhNAb4ODpVZGu1J+AaxtD3bLtOYHJLa9HbbUnZTGEMCpzEwb+xLShSW91ZI28AvgPcghUj/WoQRocHYTTco2sZj63kijTKBLeVVSwwviZh19QGrEjIC1vVlUv5dcC/EjIX9uEe7oIlGPzYtfuNQRh9Jgij/YMw8qkg+iS9Z0qjx+44TMbjaHKlmFvn4Q09FQjVr7daElYbd6bvJ0EtAh7y/Pp3B/ZVV264h93Pa9UUddOEBYCOx06B/DRwXxBGfwH+A8yNeVbWBE2CpcHGY9m7eoG34tNtCbumNqzOp+9qudj/X+zgkH30Fajr/ZyILUSdjNXJuicIoxuxzKzFMS8PsD2qmyYNnj8GYdTcyLqwcczAagXu8+1OBmE0DvgQtSv2mDRdWH0E3+2BZWH1RRmrgeWzw7GtSNJA5VJ+GXAjdjqP1F+Texk/DbgKW929MAijA2KcYTIJHTQijTVOL2L/sziB17QeK+Luu1o+J2cD/1D3b5hmLKv6ncDv3b34fBBGuwdhFNddStvptkmDbdPo+WMcv5zdBYl9cyJwtPr0VusgGQVLD+jH9+jeltait6uT2UxhIJZ50qzuHAu34P+BAEkwGNgf+BrwT+BnQRgdGYRR3F7UJ+m7Kw02BtVP7LYkaRfkMlCTkIHVVMM2ArgBq88kjTUMO9Xwh9gi1HeCMAqCMBoQlw8YhFH32C3SSBnsNNCGiePk9X7sSHhvuLon7waGq09vtXV4HsDKZgrDsABWX6wBpnp+DycBh6orx+ZlYQ62gtip1ojNS08WOBf4G3BpEEaHxWgyPF63SBpsqOZNgC3otSb02rSF8NVNB/6qr0Gs7veewJexjKyLgjDaJwijOBw8NQDtepDGG0WDs6fjFsBah9W/8u00p0OBE9Sfe6UV/1Pmt8O2EPbFC9hJZj4L6HsBe6mNP2CnGkm8bAt8FAtk/SAIo71jMBlWAXdptMHACDUDnSQ3gKUthK+iXMp3AL8EntdXIVaasMLvX8Qy3L8ShNGODf5MQ+h72RKRahlKg0smxS2ANQ+Y5tUbvL2EvBVLp5Ottxj/txDuRd/3ok/DCkf67Bi0eh4r5VJ+LvBTkncce1JsD3wOO7nwk0EYNWTccNsZVcBdGm0Qtm0n7ToS/Mxerdu7VR4DrkAHGsRRE7ZYfSFwUxBG7wnCqFGB96Eo6C+NN5gGb/+PWwDrUWCOZzdxR+wkC+md54Dlnl/DoX2cfHcBk1tai95OVLKZwkgsgCXx83fgejVDrCfDewE/Aq4NwujYBhSLHaRJsMTAQHTwDdjug7UJvbY1ur2vztXCuhq4Xa0RWwPcvP8q4EpXH6ven2EICvpL4w3CglgNE7cA1pRKMefbMcInYHulpXdmlEv59b5++GymMBQ7ga8vKvi/zWsXbAuhxG8ivAb4AfCQWiP2E4A3An8EPhWE0ag6/9nKnpRGG4iKuIMFsNYl9NradHu3euyuYFk+L6g1Ym048B7s5Od3B2FUz2fYIBT0l3iM3aqB5SwF7vXp7gVhNNi9gOgo8t5PaB7z/Bq2o+8F3J8CnvX8+g8DJqorx3YiPAu4AFio1oi9HYDvA5cEYVSvmnIDaPDqmYjrh4PUDIkOYK3T7e3V2H0/cBHJKH6fdPtg2z6/FYRRvQqrD9TYLTGgDKweZgEzPbuBuwBHqx/32hKg7Pk1HORePPvivpbW4lJfLzybKTQDx9LgI1TlVd0GfBfVIPHBEOB9wO+CMDqsTmO/JsHSaM0aRwAr4t6R0Gtbh5VNkK33eyww0qGmiL1RwOeBq4Iw2qMOf17DM19EXD9saPJOnAJY9+PfKSxHYsekS+/MBFo8v4Zj6NvWhzZgiufXPoG+b5+UOimX8p3YyUaaCPuhCXgNcE0QRifVuLZGM/ErISDp7PPqhxbA6kzotakoee/H7jasDMCf1RpeGAC8DfhNEEYH1+G9Xc9Micv43TBx+RKsByZXijlvBnBXdDdE2wf74v5yKb/C1w+fzRTG0vfMuxbssAKf7Qvspm7sxUR4DbYd4XcJfkFKmgALPJ7uTrmt1cRDmS/SaMrAMknOwNLiSd/G7iXAl4Bb1RreOB4LYh1Z46CBnpmiyUNMPsd84BHP2m5blIXSF2uAyZ5fw55YEKcvHgXmen79x2Bp0+LHRPgl4HysWLiCWH7YBbgMyDfglCMRqa8OPZtlE2P3i8CngDvVGt7IYdsJj6jhn6EtuZJ6cQlgPQ686Fnb7Q3sqi7Ua8/hfwbSsUCmj//t5JbWordFTbOZwnAsgCV+TYQXAp8FrkUr4r7YEbgEeF0Nfnen+oGI1EG7Xrj7NXY/A3wc+LdawxsHAT8PwuiAGvzuLhTsFolNAGtKpZhb41nbHQaMVBfq/b3GMu68lM0UhmJbR/uyteclrNab7y/VB6gbezkRXgh8DrgcWKsW8cKuwMVBGB2iSbCIeEjPmf6P3U8D52A1sbTw4M874sU1OFlYi08ixCOAtRy416dGC8JoEHCIuk+vtQG3ueLSvtrdDUx98QzwlOf3MAdsp67s7UR4Cbad8Jv4d2hGWu0PFIMw2rGKv7PDPY9FRCT+Y/ds4FzgUnSysC9OBC4KwmhMFX9nO1Y3WiTV4hDAeg6Y4Vm7jQX2U/fptaeA+zy/huPoewDnAWCJrxeezRS6r19H+Po9EV4F/Bj4CPCEWsSbifAFQRiNqNLv68COtxcRET/G7grwFSyT+kW1iBfOAj4dhFG1Dvxq19gtEo8A1oNAxbN22wFlofTFbeVSfp6vH95tH3xDH7837Vj9K5/v3zbAEerGiZgIt5dL+b8C7wCuR1sKffAe4ANVOpmwHa3ii4j4NnavAX4BnA3c5p7lEl+DsEL8+Sr9vnWar4k0PoDVDkyuFHO+bSnbFcvCkq3XCvzd82vYC+jr8bhzgWmeX//e2AmMkpzJ8Azgo8B5WDaWiu3G11Dgi8DRVZoEr1KTioh4N253lUv5qcC7sYysF9QqsbYN8I0gjHavwu9qw05zF0m1RgewFgIPedhuOwOD1X165R7gEc+v4XX0PfPuCfxP+T4KBW6TOBleCfwGOAMoYsFWiacdgfODMBrbz3vejtWfFBERP8fuJVg5gLcAv0J1LeMsB3w2CKP+vjuuBVaqOSXtGh3AKuPnysEu6jq90gbcUC7lvd2yks0URmMpwH3dvjOlpbW41uPrHwIcq66c2Ikw5VJ+Fraaezp2UuF8tUwsvR54ZxV+z0tqShERr8fuznIpPx3Lon4rcK2e7bH1LuCkKrxPLVNTSto1OoA1pVLMeRXUCMKoGdheXadXHgRu9/wacsChffxvl+N/8fodgIPVlRM/Ge4ol/KPAJ/BAlmXYJmD2loYH4OBjwZhtFM/f89iNaWISCLG7nXlUv4u7HCWM4HfAovUMrEyDvhEP08l7MS/utEiVdfIANYKYKqHbTYE288sW2c98DuX6uylbKbQ5F7mx/bxV/h40ubGDsKCWJKOyfD6cin/EHba0anAt4DH0PHNcXEgdrpRfyxwk2EREUnG2L22XMrfCZwDvAn4KfAsdvKsNN4JwMn9uL/dY7dIqjUygPUCtoXQN0OA4eo6W+1B/C/evjPwxn789w/hf7bDsa7vS7omwx3lUr4MXIgFss4BbsFWAJWV1dix++wgjPpzGu4CFJAUEUni2L2uXMo/ABSAU4DPAv9FtQ8bbTjw3iCMRvTjd8xTM0raDWzgn/0Qfqa3DsFOg5JX1wb8slzKL/T8Ok6m76fvdQKTW1qL3mY6ZDOFsVgBd0nvZLgLK+5+TRBGfwIOwAJarwf2B0aqleruAOxgiWv7+N9X3MvMBDWliEgix+4OYBZwaRBGvwUOw+q5vg47WVrvM/V3vLsPd/Xxv5/v3q+0qCyp1agMrE5gcqWY8zGltYnG1w7zxZ3ATT5fgCve/nb6HuxdADzs+X3cw010RCiX8qvLpfz9wDfdRPgM4HvAFKx4rLal1ccg4C1BGPX1BWQxKvYrIpKWsXu5217YnZV1FvAzN0ddjrKq62Uctr2zrxZgZXhEUqtRGVgLsa1lklytwCXlUt730zKOoX/ZR2Xgec/b4Aggoy4tG02Gu9z3/I4gjO5wk7K93fflWCxDKAuMUGvVzFFYdujjfXxGLwT28vTau1BdF581Ae16aRap+9jdiQVBbgnC6B/AeCAAjnZz3v2ww6qUnVU7JwVhNKlcyvelntV8YKm7bxq7pd6a3f1r6NjdqADWkx6/1LejuiFb43rgDp8vIJspDAbOBkb149dMbWktrvK4DQYBx6GsQ9nyhBgsm+e+IIzuAy4HJmIBrUPcz77ATsBoYIBarSq2w4KFfQlgrcUOmDje02t/CfgyMFvPJ291AdPVDCING7u7sGzcUhBGJSxotT2wD3by9sFu7N4BKxWgZ2117Ona9tY+/LfLgBZsd4SPXgDOx4JwTeoK3mkC1mGHQzRMowJYUyvF3EpPb1wbsFr9d4sew7KvfA/0HYTV+OmrVcC9nrfBJBd8ENnaCTFucGtxP3cEYTQQO711FywzK+e+X7tiNZgGqeX6PJE4PgijX5VL+fZe3qeOIIye9vjahwIt5VL+3+oGIiJVGbu7FzaeA/4ZhNFgN0bv7sbuQ9xfd3Zjuhaj+mY4tjjclwDWKqyuWejptQ8DZpZL+UfVDaSvGhHAWoXVSvHVGixqLJu2AvheuZR/xueLyGYKzcC7sABOX70APOH5/TwAy5oR6c/EuB3brrYQuD8Io2ZsNTeLrfQeggW09nHfuRFoZW5rHYxlu/XlZKKn8bcY7HCsEO6/1AVERGoydq/DDnCZC9wdhNEALIt6Z2yr4SHAgdhW9IkuOCFb54ggjEaUS/lVvbwnnUEYzfT4uie4PqMAlvRZIwJYsz1/qW93D3J5pS7gajwv3O7sB7yln7/jEazOgM+O0YREajAp7sSKxs4AZgRh9FfXzya4ifAB2PaF/dxEeQxa6d2cLLaVoK8BrGXuxcNHRwdhNKxcyq9RNxARqfnY3YFt334JmB6E0R+wBadtsQWoA7Gg1j7Y4qe2HW7eXlgZgL5sxSpj2XI+1ikbABwThNG1bgurSK81IoDl9Ut9uZQnCKNn1XU26W6gWC7l27x+G8wUmrDsq5378Wu6gMktrcUOj9thFFbUU6Tmz1Usu/VF9/Mft9Kbcd/D7m2HB2LBmgnAYLUcYDX69nPP396ahy0q+RrAOgDbhjpD3UBEpO5jdxew0v3MCsIowkoCjHfP5oOwLOED3f/fhsaVr4mbCW4+05d3ylnAIvzdIXGku/5F6gbSF/V+iHQBkyvFXLvn7faUe9lSZsoGzwFfKZfyLQm4ln2w44X7YzHwkOftsKt7MRZpxMS4w32PFgMPBWF0DRas2R47MelQ7ITMfbEATFonxU3APkEYdQcCe6MVC/4c7um1b49liSqAJSLS+HEb7KCr+e5nao9thzsC+7tx+zAsA2kb0puhNdy1QV/qYM1z712+BrC6i9irhqX0Sb0n/IuBBxLQbjOxqPHO6kL/ewn6WrmUn+r7hbjsq/diBSv720d8z9Q7HFshEYnDxLgL23a4HJgZhNFfsK0Lu7jJ8AlYxuCu+FnTqb+TwSFYPavetGlnEEYPAe/z9LqbgTe6rQhr9S0REYnd2N1z2+FjbtvhaGA34Cg3dh+BBbjSthC1Zx/bdGUQRo/gbyH3kcApQRjdrm2E0hf1flDMxNIefTcXO2lPASzLRPse8OeEXE8AnF2F33NvS2txua+NkM0UBgDHorpDEt9JMdihIGWgHITRdVg9iSOAN7qJ3c4pmRBv7yaEfdm+/Yh7sRjn6bUfg2XhTdO3QkQk9mN3F1Z7cRowLQijX2OZREcDp2Kn821POjKzdg7CaFAfT21/AMt28/UU55OBHbDTqkV6pd4T+6mVYm65741WLuXXBGF0J3Aa6T4paz3wM+DnvT3CPY5c0OaDWEZHf6wFfM9Gm4i/24oknZPidmAOMCcIo5vd9/gk4ExslXdkgi9/LFYvbEkf/tunsa0Ih3p67ZOAN6EAloiIj2P3OmzHwrNBGP0Ry0o6FTtIKYefhcq31gSsNEJrH/7bR7Ga0jt6eu17AycCv9O3QHqrntHtNcCUBLXdHfTt1KekWA9cCXw3QSdAHQa8owq/Zw7+Hw+7H/0P5Ik0akLcUS7lZ5VL+auAt2E17W7AMo2SaDR2UmNftOL/1v63BmG0g3q+iIjXY/e6cilfBorA6dj29n9i2dZJNI6+L669CDzu8bUPAt4ZhNEo9XzprXoGsF7Ett0lxUzgPyntN93Bq6+XS/kVSbigbKYwBPg4lrbcX9PxP7h5NMnOWJH0TIiXl0v5fwEfwLKx/kbfttrF2QgsiNWX9ukESsA6j69/f+DN6u0iIokYtymX8pVyKf8n4J3A/wF3AR0Ju9QxWDH3vrTRavp2+nCcHIfVQBPplXoGsKZhJ1Ik5eG6HrgWWJqyPtMGXIoFr5Yl6LpeV8UXoMktrcX1vjZENlMYgdW/EknShHhtuZS/002EzydZxzcPoO8ZWGAnpr7o+fW/Lwij7dXTIQij5iCMDgjCaJxaQ0Q8H7tXlEv5v2I7JIrAigRd3jD6GMBy7sbvzPJRwIeCMNKCuY3dg4MwOigIo+FqjS2rZwBrcqWYW5+w9psM/CNF/WUlVrD9giQFr7KZQgb4NFZHpr+SsB1nJyyjQSSJk+HlWO2+T5KcRZVmNxHsqxeBez1vg0OpzhbwJDgS+CNwRRBG+6g5RCQBY/dC4JvA10lOEGsAlkHdVzPwf3fTycAb1MMBq639N+D7WpB79UlvPVSA+xP4MF2LZSOl4QSFBcDnge+VS/mk7UU/i+odRfu0+/HZIcC2ejwKQBBGewRhtF3Cnt2d2MmpFwKrE3BJTdhKbl/box24Ddse7vOLwMeCMNov5d/XHYGLsJMZ3wH8MQijM4IwGoSIpOU50BSEUZC0LMxyKd8GXOHevZKwnbC5n2P3MuB2z9tgBPCpIIwmpfw7exDwbez07POA64MwOj4Io2Zkk1+cengKO2EiiR4ELgfaE9xPHsVO5/uVOy0kMbKZwl7AJ4DBVfqV99O300Ti0h7N2J50vewILnvjt8B3gzAak6Rrc0d5Xwv8PSGX1N/v7GRgludtsJebCA9N6fd1DBaUDXv87QOBXwNfC8JoGz3VRFLhWCwL8/NBGA1O0oW595BL8T9ruPs9vL/353ZgcQL66weDMGpK6di9A/AD7ACt7n5xAnA9tjA3AnnFF6ce7qsUc0uT2IDuJehK4KYEXt46LEvhXeVS/l8uayExspnCICzKHVSxvaa0tBZ9bpZtgCP0aJQgjHYCLgaOAd4DfDFpgQGXTfobYLnnl9IEDOzn75iD/yu5AO/Gjl9P2/d1MJYl/R7XH3rKAF8Brg7C6OAgjPSAE0nus+Ag4BI3t/00VmMoUVkc5VJ+Aba4lpQsrP54Av+DeQPc+9jxKfy+jsEyr16/qVdV4MfAJUEY7aqnW/W+NFujDZiS5EYsl/IvAV9N2HW2uGv6SLmUn5HQW3cS8N4q/r552GEFPtsb2F2PxtRPgCcAP2RDXYKBbiJ8XgK3Ij0MPJmA6+jq5zjWidVe8L2+4Ugs2+iAFH1fBwIfBT7L5jPxBgJvwrIy3h2E0RA96UQS9yzYHavxmOvxPLwQeEcCs1vuwhZeUs2dRngT/u8E2h74pstGSsv3dTh2qNCmFp66DcVO0f5jEEZvCMJogJ509QlgzQGmp+AB8gy2Fc33At5t2Jaas4CfJOykwf/JZgqTgC8C1awP8FgCBtOj6d9pZuL/gDoaWw16+0b/aARWPPXDCRtAlwKPe34NXVRnJfpBklGvcj/goiCMJqbg+9qMnaz5Tfey+mr2wmrIfDdpte1EUj52bw/8BNt61NME7PS+MxKWfTkP/8vTdFGdwNMdwMwE3NMQ+GoaTuFzi0ifAz7Fq5eAaAIOB34HFJJW0qMv6hHAehSYm4bGLJfy04EPuwdJl2cfvwMLNJ4H/F+5lL83aVsGu7k6T+cAr6nyr57S0lps87hdhmL70CW9E+BhwJexmnebGh/GYAWiP+KyPpLw3O7E/8BzF7C2Cm2xHPgTfhdz75YHvp7k47ldIPm9wPexbYJbaxTwGeDaIIyOSWvdEZEEPQsy2Cnhb9rMv7IDlpl1RoK+720JeL/sctfR37F7DnBzAu5pE5Zt9IkkHzziynF8zs23e1PEfyKWUfmLtB9YU48A1uRKMbcuLQ1aLuUfB94P/ALw4bS+Tixq/3XgzcCvk5p11cPxwMer3P+XAfd53i5ZrOCvpHMCPBDLIv00W14NGucmyuclaBvSmgRMgqt1muKtWE2NJMxvPowVMR6S0O/rB4AfYRkWfWmfE4E/AOekYcVbJKFj9wjgAuBdbH4bEsCOWPHzsxJSE6sjAWN3ZxXH7r9g5V98NxTbVve+JJ7A58baAlampy/F2Qdju6T+GITRW9N6wnCtO0ZrAl7qe61cyrdgtSjOAR4hnkUG29xnOx9bqf5+uZR/sVzKJ/reZDOFbd1Do9rHtc7C/zo6B2N70CV9E+Bm4H3uu7E1L7Jjge8AXwnCaFQCmsD3l/dOqlS7qlzKz8XqJHUl4L4OxbaKfy5JBxC4a/k0ti1ofD9/3U7YtqOLgzDaRU9DEa+eBUOALwAfY+sO8shiQaxzEhDYH9DHAECcrKN6yQ5PAP9ISNceC3wXeE+SSlYEYTQWy6D6ShX67v7Ar7C6YeNJmVoHsJ4Bnk7joFIu5deUS/nrsdOQLsCCG40OZHUBC7Fifx/GAlfFcin/nDtNMdGymcIA4Fxs1bnaHgSWeNw2YNsHVdg3nd6CbQ3szb76kVj68499LrrpJke+n+6ynuqepHhjgsbu4Vhg9ktJOIrabRX6lvsZW8U2+jDwhyCMTkriqrdI0rix6xwsgNWbuVv3IS1fcy/UvhqKZZX5bBVVyiIrl/LtwLXA4oR08QnYCXwfTEKWURBGWWwb72dc362GccCXgGuCMDo0TScM13qSch/wUpoHmHIp/yK23eZUrFDbf7BAR70CRuuxPeKRG+ROAd5VLuWvLZfyC9IQuOrh9VgAq9rR/HZgcktr0eeaYeOAozQlTOUk+CRsG9K2ffjPB7sX398GYXS4p4PneOAgz2/jCqp4emC5lJ8FXE8ysrDAVjrPB77vc2H3IIy6C7B/lupnDTa5MeD3WMbaaD0dRWL7LGjCtgx+k607vGFjo9yL75XuueKjXbBDKXy2FFhZxd/3IHBLgrr6eCzTuOBrPcsgjJqCMDoc+C1Ws7La9WMHYAkpN2DbLoeSArUMYK0DplSKuTQFSDb3MtBVLuVfKJfylwNvBU5zA8fNwFPu5aMa2VkdWDT/eeC/wMVYPa6TgbPKpfxPyqX89HIpvzZt9yCbKewKfIP+b7fYlAXAw5430Z4JmAhI7wfWw91zYpd+vvi+zg2eH/Kwls4JwD6e38plbiJcTX9w41NSDMEWMH4ZhNH+nn1PBwRh9EZ3T86qwQS4p0nY9uArgzDaW09JkVjKY4vjmX78jkHAO7BaOm/2MMvlVMD3k1Rb3Ttgtd431wG/ARYlqK+PwXYy/TQIo508G7uHAO9xY/eJbLlGXX/tAVwG/MDnXRFbq5aToLnANI0xr3i4rADuC8LoPix7YVtgZxdA2A3bnz7BDUojsVXWAViwsQurdbIeC1StcA+/imvv2VgtprlYUGV1yjKsNimbKQzHVt+PrNVtdW3vsyOxLCxJiSCM9sVqYQRV+pW7AZcArwnCqAiU4/78cceOn0f10rkbZQlVznYul/LPBGF0DVaHIilbypqB04E9gzD6NnBT3Bd0gjCagB068gn6Vqy9L4YAZwNBEEbfAP7htqeISOOfCa8BfoqdLFgNBwNXA1cHYXRJuZSf7UEb7I+dluz7iYrzqV4R924PAH/F6qIlxRDgQ8B+QRhdCNwZ9zHJ1ZT8PFZftl61Yke6ucJBQRh9HZic1DhALQNYj+H/0eQ144qlr3NtNAeY7Dr8APdFHezuzyD31wFYAKu9x8969zvWuaPgZSOuttP7sAh4rUxtaS2u9riNBmP1r3SUenomwDtjmVfVDuoOB/4POBq4PAij68ul/KKYtsFYLCvzuATc0tnU5jSm64C3A4cm7CuwL3AV8NogjC4GnozbJM+dMngctvhyYo3na5tzIPBr4NIgjC4tl/JLEJFGPhcOxuro7FHlXz0Oq80TBmH0M+Dmcim/PKZtkMWyz5KQITqr2u9v5VJ+fRBGv8Ay1HZKUPdvAo7B6nz9OgijK1yZnrj1z6Gu7b8MHNaAd6tmbGfB9VjZhGvKpfwqEqaWE6LJlWKuTcNNrx88HVg0frVaoypC7LSHYTX6/SuBez1vo+2AQ9RVUjMBnogVcH19Df+YPbG6BW9zE6moXMq3xqgNdsOCV2eTjOyip2qxGlku5VuCMLoSS0tP2gEPo4CPAK91k+HrgTmNDmS5Aur7YrXl3k39sq42J4MVwT8kCKMLgOlJP61YJKZj9x5YlvPBNXzxPQQL7r/DPfv/Wy7lV8bk+pvctV+E1fP1XRe1OyxlOvA74GsJ/CpMwE4XPiUIoyuwTOrFMeifg9z351zsYKRGn9CdxerbHhKE0UXlUv65JHWCWgWwlmIF3EUa983NFHbDtr9ka/jHPI8dXeuzA2vcRhKfCfBo4NvAmXUaX47DVqAecAGCW4EWF6hvxOR3W2wL2cexwu1JyDpch51yWys3AmdgNVeSaA+s5tPZ2Cl8N2Gr4u117p9DsO2878DqXO0co/45EHgTlvHwrSCMbiyX8lqgFKnf82EHbNvg8XX447ozSI4H7g7C6Dqsru7CRgT4XVB/Z/dc/Aiwe0Ju61Lg2Vr84nIp3xWE0a/cuJ1L4FeiGQtmXgq8Pwij32OHlbXUe0eSq/t6KLbg9GasjmRcDAU+ABzgthT+pxHz71pNSmrhWWCmhhxplGymMAY7ZvzoGv9RD+N/scRjqF2GmsRnAjwM2470AeqbdTQUeI3rZ88CtwdhdCtWI3FhLScbLmg1HtgfO8ziFPe/ByXo1i6lhgGscim/1G2zO5LaHIIRBwOwQP7+wEddH70FeKiWfdRtE8y6cep0LGN4UozbqfsUxEOCMPpRuZSfryerSM3H7m2A71P/RYRR7s88CZgB3BqE0b+xRdsltQxmuXIq22LBl9cDb8AWGwYk6NbOA2qWFVMu5WcHYXSJe2Yn9WS6wW78PBz4JPCvIIz+CTxayz7qFpx2cXPb07EyLHGtI9zk2ud3WCH8K8ql/DLfb3ytAlgPYEVlReoumykMwvbyn1XjP6oTmNLSWuzwuK1GU/sgnzR+AjzIDe6fonHBm4HYaX/7YMU4ZwEPuQMtylg24zJgTV8CBm6Vdhh2Ys1OwH7AEVgG2J5uMp7EOm/PUPt6kyXgGuALCf+qNLtJ6UewuonPYtmDU91L2wvAcqCttxPjHv1zHHbgwYFYUPcwLLtgsCdtNMqNrwe7Fd17dViMSM3G7pFs2O7eqPFrCBZIymEFop9yz8X7scWTF91zcW1fngUuWNX9bNwVW0g4EtuOtRtWWzOJHscO4qqlvwBvrMP7UBziGfu6n4+4PnpfEEb3YsHXOVjJl7beboF3/XM4sA0WRM25sfsQYHsaU5+yLyZiiR25IIwuLJfyM3y/4dXWjtW/0oRG6s4VbX8X8Nk6vKgvAh70vMl2cw98Se4EuBl4P1YLLi4TweHAAe7nfW7yuxArRj47CKO57vv1kvtZi22Va2fD4RYj3Mv0Nm5g3gELXO2C1UgYS3JOz9uSh8ql/Eu1/APKpXx7EEY/xzKEDkvJV2dYjz76AdcP52Mr5i/06KPdx6Cvdf2zCQtGDQNGu/45yfXPXdzPtu6f+RpQbcYKy+8BfDcIo9+XS3nV7RSp7tg9BFs0+CjxyTwa5caAw9znesmN3c8DLwZhNA9Y7P7+sh5jd6e7hsHYSWmjsYzeiVgW6k5YIH+858/GrdWFBf/X1XjsXuFOhT7CjT1p0LOPfgxLqOnOduueX3b30ZVAmxu7m13/HI4thI53Y3cWC6zu5PrrSI/bZhAWzNzPnTB8S7mUX+/jhdQigDUPeERDjzTIyViNnzF1+LNmUsP03zo5nORuC9IEOIwA3obV+BkT04/ZjAWbxvLyU4U6gQ7309XjBze5bXYT4gGkI1C1KW3AXfX4g8ql/AtBGH0P+E2M+1It++g27mf/Hn+/w018OzfTP5vdPCup/XMnrC7PoUEYfbdcyr+gp65IVcbuge7l+/PENztzgJs/jsfq921q7O7c6Lm48bMxradfL6FOB0CVS/mH3MmSP8CfTN9qxjm2ZcN2VFx/7Nk/e2b8p2VuuT92wvDlQRj9tFzKV3yclFXb49gqukhdZTOFHHbiwo51+iOntrQWV3jcXt1FtpvVexLrZOw0wImeBg0GYbUbhmGrYiPcz3D39welvP8+j9Xhq5d/AFfra/WyF7ghW+ifg1PQP4dhJyb+IQijk1zGp4j0kavd+C7gAvzM9ug5dm/8XBzmnpmDSG/wCuAx6lsr+hrg7/p2get3A3uM3SNSOrcci53m+NsgjA51C95ePWSqbUqlmFur74fUkztx8KdYXZF6WA1M9bzZJpKe7UBpnAQfCVyMpeVLMv0XaKnXH+a2O/wYuEdNLxu9EBwFXAt8zp12KiJ98yasaHtGTZFYt5ZL+botgJdL+aVYJv5TanrpYSB24ugNwPuCMPKm2H+1A1jLqVNKpEi3bKYwCcu8OqGOf+wcLNvQZ/uj4EYiBWG0H3AJVshckmkl8Pd6HxldLuVbsMyAuboFspFt3UvSlUEY7a3mEOn12H0C8BNgO7VGYs0Fbqv3H1ou5R/Fingv1y2QjewBXAb8IAijHXz4wNUOYM3Cqv2L1EU2U8gA3wPOqPMfPQ0r6OuzY7CUWUnWBHgXLPPqCLVGoj1A4xaM7gK+C6zRbZCNDMFOTPtTEEZnuFo+IvLqY/chwM+A3dUaiXY7dnpjI9wIXI7VfxLpaSR2yuh1QRgd77Yyx1a1A1gPAhX1AamHbKYwCrgQO+683l+0yS2txfUet90I4Gj1osRNgCcCP8RqX0lyrQeuK5fyyxrxh7uj0q/GioB26nbIJhyIFfz/kG+1NUQaMHbviQWvDlJrJNoy4PpGnfzWowzALboVsgnN2G6m64HT4v5Bq6UDmFwp5jSZlZpzAZgLsGN8673CW8GyH3y2My8/TUv8nwCPAS7CTh2UZHsIaGhUoFzKr8G2i/1Lt0M2ow14sVzKqyVENj92Z7EarsepNRLvdmBKg8fuCnC+m0eIbMoKYl4mopoBrAXU9zQkSalspjAc+CrwSeykiHp7GnjG82Y8DD9PppNNT4CHA18B3odOlUxDUOAX5VJ+YaM/iPsMX9REWDZhJZYhfauaQmSzY/c2WMH2U9UaibcEuKpcyq+Owdg9E/gCdpKxSE8LgS+VS/lH4vwhq/mi8wTwgu671JLLvPoq8Dms1kYj3Acs9bgNm7GVPtUmScYEeBDwKRoX0JX6+g9wU1w+TLmUn+Gex8/q1oizHqvDd7Xbbioirxy7R2JB3ndS/zIYUn9/Bu6O0dh9F/AlYLFujTgrgG/S4Az/rVHNANaUSjG3WvdeaiWbKYwEvkZjg1dtwJSW1qLPTTkeOFw9KhET4GbgA1g6+DC1SOItAH7cqNpXW5gI3+OeyzqZUDqBa4BiuZRvU3OIbHLsHoJlr34EGKAWSbwngUtcDao4+Qvwdaw2l6RbG1Yf7Tf1Pt26L6oVwFpJ405DkhTIZgpjsONfPwcMbeBHmQtM97w59wV2U6/yfgIMcCZWh2i0WiTxOoArsRMA4+gfQAFYpFuVajcCXyuX8jqqXWTTY/dA4Fw3nx2sFkm81cCPyqX8k3H7YC5Q8Rvg28Aq3arUageucP10nQ8fuFoBrOeAsu6/1EI2U5gA/AA73rPRg/2j+J9lcDQKeCTB64EiMEFNkQr/Bi6P68qY2yr2R2xLgk4jTqdbgC+US3kFMUU2wR1N/x4s62WEWiQVrgP+ENcP505EvBT4LgpipVEHFsS8sFzKe3P/qxXAehitukoNZDOFHbGjhT9MPOr7TGlpLbZ53J7DgGPUs7yfBB+J1ZjZSa2RCs8C3yiX8rGuVeGCa7/HisOqrka6/Av4dLmUn6OmENmsN7tAwTg1RSrcC3zPndob57F7HfAT4HsoiJUmHcDvgK+US/mlPn3wagSwOoHJlWKuQ/1AqimbKewL/BIrcBmHGgFLsQLuXjcrcKB6l7+CMAqw1bJ91RqpsBS4oFzKP+jDhy2X8h1YEOuzwHzdvlSIgHPLpbxOtBLZ/NgdYjVmtlNrpMKLwPm+PBfLpfxa4EfYwQLaAp58HcDVwBfLpfwS3z58NQJYC4EH1Q+kWrKZAtlM4Tjgt8AbiM/pLM8CT3nevIdo8uT1BHg3LCNRRfjToc1NKP/s04d2mVh/AM5DpxMnWSdWBPjccimv+yyy+bH7cDd2q/5oOiwDLiC+NSs3N3a3uX56PrBEtzGx1mE1Vb9ULuW9LPlQjQDWDMDrVbdspjAsmymokGI87sVA4CwseBW3l/QHfH6gZzOFJuBYVDTUZ28FQjVDKnQAvwJ+Vi7l23378C6IdRPwIeAx3c7EaXfj9CfKpfyLag6RTQvCaADwfyj7PS3WAt8Hri+X8t59eLed8Cqs7rCe7cmzGssEPb9cyrf6ehHVCGBNrRRzKz1+qQdbJX6v+nTD78Uo4PPYSQhxW6Vaj9W/6vK4iccBR6qnee0P2ClfnWqKROsCbgC+WS7lvR1fy6U85VL+TuB9wJ3uuiQZE+CfAp8rl/IL1BwiW3wOdrh5bUmtkXjrgUuAS1xxdJ/77B+BD2KHV0kytAJfA75dLuVX+Hwh/Q1grQamen4zxwBvAT6azRQmqm83RjZT2BlLW70QyMTwIy7ADivw2V7AnuptXk+E5wKfxmoMqe5gMnVh27IKvqZ2b6LfTgc+gGXsrNct9tpi4CvYoQJL1RwiW/UMnAF8FLhNrZFY64HLgYvKpfzqBPTZrnIpfwd2auY/0cKp757HEnYuifuhAlujvwGsF4DHPW+DPdyL/SHY9hypo2ym0JzNFE7Ajpl9PzAkph/1cfxPpT0KnXyThInwQixT8XKsRpIkRyfwJ+Az5VJ+fsL67YtY8PWbQEW32ktPAh8BLk3CBFikzs/Ap7Eg1p8VDEicNuDnWGB/ecL67RNYKYDL0AmFPurCko3eA9zgsuu8198A1iNYZorPjgTGY6fcneMygaQOspnCSOBcLHh1LPEp1r4pU1tai2s8buvBro0lGROKJViRze9gxULFf+3ANcCnXaZdEvvtcuCHwIfxf/ErTTqwkwbPLpfyf3P1zUSk98/A2VgWxBVYrSTx32rssJULyqX8soT22wXAl7DThWfrlnujzc0r31Mu5af6WJNtc/oTwOoC7qkUc95G8lzB8ON6/K2DgY9lM4UB6vM1bXeymcI+bgAvAjvE/COvAO71vNm3d/1bkjOhWAX8APikJhTeW4UV1fy8y7BLcr9tL5fyf8MO67heL3Gx95J7znygXMqrFopI/5+Bi10w4OvopDffVYCvAt/xvabQVvTbtdjBMu8A/o0tukl8zXXPmU+VS/nnk3Zx/QlgLQYeTMBL/SE9/n8Tlib5evX72shmCkOBs7EU6vcAQz342M9jp2367CAgqx6YuAnFeuBa9126BxXJ9tF84ItYwfalKeq7M4GPAV/A85OME6oLmIYV8f2me+kWkeo8/1YBF2PZqE+oRbz0jBvDLnXBnTT0265yKX+/m3N+B1ikbhA7HdihOWe7vrkyiRfZnwDWk8Asz6//QGCnjf7eBODCbKawu74D1eOyrvbGTuf4BbC/Rx//QSxg67Pj8CNYKH2bUEwG3o1lNa5Uq3gTIHgQO6HvyrRMgDfquyuwWm5nYrW/lI0VD8vds+TMcil/s8+naYnE+PnXXi7lbwbeiS3qrlOreBMguM0FCP6SlJpCvey7i7EA1tnAf1A2VlwsdPflXeVS/p4kb/fvTwDr3kox53uhumOBYZv4+4cD38lmChl9F/ovmymMwjLb/oqtNo30bKCa0tJa9Hmr7BisgLske0IxB8tmORf/MwaTbhXwa+Cd5VL+9jTXFHIB2Efc2HAuVhtLmYSNG+/uww5U+Xy5lH9OTSJS82dgGTsc4Xxgjlok1lqxOo7vK5fyDyepplAf+m1HuZTvzvQ5H2VSN9I64F9YMPw7SS9FAX0LYDUBa4ApPl94NlMYDRyzhX/l7cAFrtC49K2NB2YzhWOxAnKXAfsR70Ltm7IIeMjzW7E7sLd6ZComFGuA32Mnqv4Ky6SQ+OjCtouci9UlUIBgQ99dAVwNnIHVRlygVqmrOcC3gLeVS/mb0pgRKNLA598ybEvhmcBNKBs1bjrce+97sZMGF6pJ/td3K1gNzzPcvHOpWqWuc8ongc8B7y6X8qVyKV/3bLggjAjCqNn91OXPHNiH/6YZeBF4LAEv9fts4Z8PwPY2r81mCt9paS1qW85WymYKTa59z3EP+0keX84M/F9VOAI7aVPSMZkAeCoIo09iJ4d9DsvAG6TWaaglWNHyS4Fn0rxy+yp997kgjL7qXuLOA94EjFHr1MxLwM3YItOjadwOIxKT518n8EAQRu/HAlmfAg6g/yfGS/+0YIGZX5ZL+Xlqjk323S7gMTfvvBH4BHAiMFytUzPz3ZzyKuBZdw/qIgijAVgd8QPcz67AWCxJZWUQRnOAMhYreqFcyrdV+zP0JYDVhBX29P1LfARW72pLhmBHho7IZgoXtrQWK/q+bFk2U5iEpTCegwUImzy/pKk+By+zmcIgrP5Vk3pn6iYUa4GbgzCagqV4nwPsq8lw3a0Gbsfq/92jekJb1XfbgfuCMJoOnAB8FDgJGKXWqZqVWO2Sy4G7azHBFJE+Pf+WA78JwugO4ANYncRd1DJ1t5QNwf1pad7q38t5521BGE0F3ujmnceiGrzVtAT4O3Al8HA9F52CMBoCHImdRHkiFrgaspl/vR2LFU0NwujPwB0u07Qq+hLAagcmV4o5bwu2ZTOFgcDxW/lSPxj4OLB9NlP4aktrcaa+O5ts0/HA6e5hdQjJyPZYBUz1/Bq25eUnbUr6JhSLgzC6FLgFeBd2esyeWJap1E73VvtfALcm/YjtGk+GJ2OBrA8Cr8NW+qRvVgAl4JfAf5N6QpFIAp5/s4Mw+jaW0fJ+rLTJjmhBstaWY4tOV6Hgfl/77grgT0EY3Q6cggVijwFGqHX6bAnwT6x+6n317JdBGDVhB999CngzsI37Rx1YXbiFWMC3C6tzvS0wDjsobycXH7g7CKOfAKVqLOT2NoDVBFSABzzvBJN6+VI/AKsps3s2U7gQiFpaizothP8FrvLuxeIoLOCXFC/i//HG+/PKkzYlfZOJLuD5IIy+C/wB257wTtc/tLWwulYCk7Haf7eVS/mlapJ+999VwD+DMCq5ceY9blI8SS9zvZr83gH81r2UKXAlEv9nXwfwRBBGX3JjytnA24A90CJUtbViWanXAHeVS/nVapJ+99+XgD8EYfRP4LVu7H4toEPStt484B9YfdsH6x1QDcJoEJZx9Q333AErPXA3cCt2mvYCbNG2C8vIGo8FvE52Pzu4OdvhwM+CMPqZyzTts94GsJqBp4BnPO8MBwI79+G/OwgrMvu7bKZwGfBMS2sxdacluRpX2wOnYTWuDmPzKYQ+ewT/Cwkfi1Y8ZMNkogurMVR0g+HrsVXdozWh6JcubAXqDqwmweT+Ds6yyf67GrjTZWTthy0svRnbrj5YLfQKHdhCTATcgG03UHFoEf+efd2BrK9j9ZhOwwJZh6Ct1f19Rs7BTnC7wQUI1qhZqt5/l2ElLW4DDsUWUU/FtqANVAu9wnrgaWwL641AuRHlJ4IwGozVM7sAq0W6BgumXYFlgW3uu7LAPa/+7OZqHwTejWVufR3YPgijr5ZL+da+fra+dJr7KsXcUs87xjH0vbDcGHczTwZ+lc0U/gi0tLQWE/9tclsv9wLe4h4+AcnN3ugCJre0Fn3eKjvSBSZENp5MdGEFIH8bhNGNwMFYJuXrsTpZKry5ddYAj7sB/R/ADG03qEv/XQdMD8LoUawOxGuxE5CORVlZYFmAj2CF8P8JzFJxdpFEPPs6sYOFLg3C6PdYPd/TsK3Vu5PMxeRaWA48jNUSuhUrgt2uZql5/10DTA7C6F6sLujrsUWoI9AiKlgW4P3AX4B/Ay31LM7ek9s2+AEs82q0e2f4DvC7rc3gdkG3R4Mw+oK7nu9iSUQfAdYGYfSVvgaMexvAWo1tjfBWNlMYhQWw+qMJW/H9PpaB9IdspnAzMMvngMdm2qvJPVSOxFZ7TgayKXhBSMJW2V2xyLfIlgaYVcAUV3TzYmxF9ySs+P/eWNBe27Q2WAM8C9wF3AbcByxp1CQj5X23C0uvv84FYvdxffcNQM6NXWk5tKDN9cs7sXp3DwJLddqlSGKff0uBfwdh9B9sV8QRbo5+NLAbysza2ArgSeC/bux+BFimZ2RD+m4H8BxwpQvEHuDG7ZOx5Ig0zTtXuX75byxb+lE3L2+047FsqdHYSZyfBP7Wl7muC2RFQRjNxWrLHYHVzH4SqxPba70NYM3B0tp8tlsVX+oHYtsKD8BOSbo9myn83QU+Kr5uL8xmCriBb3/3MDkFi5imaSvai8DqbKawnacP0Q4gBCZqqJReBAMWAbe6NO+MCwgc4SbEB2D11IaRroBWJ1acciZ2qMPd2MrtAp1KFKv+2wY8iq32/cL13ddg2VkHY0VFk7ZVYa17CZjiJr/3AfNTlm3Via1aL3Hjnm+aPf7sW6PNjSu+BpIHuMBHnJ99ne4FsyUIo79h9Wf2xxaej3IBgR1IX3ZWB7YYXcaSL+4BpqMFp7j131XYqcP3Y1lZB7j3lxNcPx5P8haiVmJbBO/GDgx4EKjEpV8GYTQO+LJ7biwHvgLcXC7lCcLotdgCd8/5bxO2c6kNq481233vFvS8pnIpPz0Io88A17p4zOeCMLqnXMo/2dvP2KuXkPGFaQMAKsWctwNtNlP4CLbloFZfhtXuRedO9/MosCjumVnZTKHZPST2w6KuJ2JBq7SmdC53EwJfdQETUACrES+Up7S0Fu9K0kW5Io6TXFDgMBcQ2M8NbmMSNrlY5wbgF93z+0FgGlb7cZkmvl71W7Dju3fF6m4c6/66G3ZCjm/9tsMFO54C7nUvZNPcJLEjpfd4gLufw9245+sz5zm3NTZp92cMfas5GyeVcik/z9Pn3xA3Tgdu7D7IjePbYQvVSVqMWosFs593z8UHsYDVc8BKZVp513dHYkXDj8B2TuWwRVQfs7PWY4H8GdhC6D3AY8QoaLVR+78Py4waDFwKfKF7fHKHQZ3/Ku+fa7Hsqh8Bf9p4fhKE0TlYsHKI+3e+1NsF4VRtC3E1nH4N/F+d/sjV7kH6sOuw3Q/SpcD6RtXNchlWA91DYFcs2n20m9jvkcBBTaSeE6jEBbA2MbgNxoLbu2E1swL3152xrQzDiX99vA5stagVmIutGM3AVo2exgLYy1Q7KHHBjrGu3x7gJsT7A7tgwf6hxCeo1eUCG0vcvOEx4CH3YvY8sFzBVBHpZVBgKLZYvQe2CBVgpQJ2xrJUhxH/TNV2N9equLH7eTduz8AWmuYBK5Qhnai+OxArAL6nG7sPcf13Z/f3h8TovbU7gLMImOXe/R/CFkRfJObBVLfocCNWjuEZ4PRyKT+zxz/vDmCtd9e1rEfbD8UC5ru458hi4IPlUv4fG/0ZY7FDE97g5jenlkv5p3rzOdMWwNoB2/ccNKhDL3WddybwhHtJmuU6+TJgVUtrsaPK19zkXibHYBk5u7nBKnBf/p1IV50QkVpKRQBrMxPjIe4Zs70bvHbHAuTdQa2x2IrayDpOkNdh9QVWuWfsfDe5ne0mvS+4/78Iy7rs0CptqvptE7Y1flvXT/d2E+Rde0yMR9ehz65z/W+p64/PuvnBDPe/56GAlYjU5hk4DAvgb+/eEXbr8Qyc5N4fRrpn5YA6vS+1YUkAK3s8F+duNHbPdy/IKxWsSmW/HY1lEu7SY+zepcd77ag69Nm1bux+CSuz1D12l10/nQes8mleGYRRiJ1+OAar9f2VnnOPHgGsJdhJkg/2aOPBbj51HvApbCE7As5yp0j3/HPeDfzG/TufLJfyP+/N50zb0ZXdK62N0IRtWRiHpfC+o8fL1WL3IF6YzRTm93got7qH92r3MF+HrTx0YHtPB2CBp8HuZ7j7so51L5LbYZHQSW5gmui+0INRhpWIVIkbnNtwdThwByAEYdTsJsfD3bNvons2TcBWgbt/xrpn1zAsEDbYDWrdz7hm99zrcn9td8/DdW4CsZoNQaol7mcxtkLb2uPvrXH/frsCVeImZSvdzyzgTjcxHuL6bMaNnxPcpGxb97+7A1vDXZ8d6vrroB79lR5j9Tr3/Vjj+uly1z8XuQnuAvcz3/Xh1cr8E5E6PQNXu4DQC9huke5s1WFuXN6mx7i98dg9psdzsOfY3ezG76aNxu71PcbuNe5npQsAtG5i7K64f7YGaNNzUXr022XuZyZWu7XJjcUjXN/cdhNjd6bH2D20x9g9sEef7e6rHT3G7p5zzMXAwo3G7gVuXF+TgGDqCe57/RLwj1dZOOtw/7y7TFI78HwQRj/GTkY9GNuyvC0W0OvpLizgtx/w2iCMftmbbfRpC2AdS7wKkXcHnsYBe22qY/T48qzn5cGrLvdla3L3cZD7XUPc/1aASkQaPcnoZEMG1GJsZepl3KRjwEaT34G8PHjV1OO51z1Ydv+sd8/IdqBTgSmpwsR4LRvqqTy7UX+lx7i7pT7b3Vc7e/TT7oDrevVVEYnxc7CDDcH9hZsYt7fmOdi00djdyYYFqPYe7zftQJeeh1KFsbs7KFrBAlub6rODNtNnmzYauzs2M3Yntq8GYTQUCzqBbR98so+/apV7dmzJAix7az/3MwHLstwqqQlgZTOFkVgROJ90r4AM06NJRBI86eie0K5Si0jM+ytucrse/09lFhHRc1DS1Ge7MwDllUZi24fBFpyXvcq//4rsLJe9eRIbyjXNwIJVG9+P9iCMZrj/OwHLdlcAaxN2xSJ8IiIiIiIiIiKyoWY2wLxX2bI7BHhLEEYHsyHjcjQWuDoF2122CLiiXMqv2czvmI8tXo9y/+1WS1MA63BsD6aIiIiIiIiIiGyoPQu2ZXJLRgJf6/H/O9mwbbgdy7z6DvDvLfyOtWyo6d2rmFQqAljZTGEAcDw6aU9EREREREREpNs6rPYXWDbWlnQAz2E1x0Zih8YNwYrb/wz4EzD7VYrAD8eCV73eipyWgM5E4DD1SxERERERERGR/1mNHV4DkHX1rDZnOXAucCJW8+o84EVst9vx8L8at1uyPRbAWsGr19t6mbQEsPYHdlG/FBERERERERH5n5VYVhXA3kBmC/9uJ9BaLuWXlEv558ul/K+B87HDmE4Dvh+E0djN/cdBGA0CDnD/dyFWD2urpSWAdQyW3iYiIiIiIiIiIkC5lG8DHnb/dw82BJg2p2mj/38j8Bv3v98GnBOEUdNm/tssG3bHPQ5UevNZEx/AymYKI4Bj1S1FRERERERERF7hLmwb4SjgjFfZRvgy5VJ+HXAZFpAaCHwSOHIz//rrgN2wWlp3lEv59t58yDRkYO2CHekoIiIiIiIiIiKAECMkAAAGtklEQVQv9xgwxf3vM4CDevMfl0v5WVgQax2WZVUIwmh0z38nCKOJwPuw+ldPA3f09kOmIYB1OFZQTEREREREREREeiiX8quA32K1rHYEPhOE0Yge/0rTVvyavwB3u/+dB87u/gduS+H7gaPc37oBeKG3nzPRAaxspjAAOA6L8ImIiIiIiIiIyCvdCvzD/e8zgY/02Er4AnAf8ABW9P0VyqX8EuDH2HbEacBhQRh1F4Q/BfgMtsVwGvDbcinf6w84MOE3YAKWgSUiIiIiIiIiIptQLuVXBWH0AyAH7AV8DVgVhNE1WJH264AuYM0Wfs2/gXuwjK0uYE0QRicCPwW2A5YC3yuX8rP78hmTHsAKgF3VFUVERERERERENq9cyk8LwugrwOXARKAI7ARcWi7lF23Ff9+JbUMkCKPh2LbBC4CdgbXAj4Cb+/r5kh7AOgaroi8iIiIiIiIiIlt2EzAM+AGwPfBl4DVBGF0B3A4s2dL2P1c760jgo8BpwHAsqPVj4KflUn59Xz9YU1JbPJspDMeKiJ2i/icidbIWOKWltXiXmkJERERERHwUhFEzcBLwbawsUxO2dXAa8B+sHtYcYAW2VXA4MAnbfngScDQwzv26F4DvAr8rl/Jt/flcSc7A2gU4QF1PRERERERERGTruK2A/w7CaCZwDvAebCvhMe6nDWjFCrp3YgGsjPtrd6LUEuAW4BJgermU7+rv50pyAOtQYFt1PRERERERERGR3imX8i8GYfQN4AbgLdgOt32B0VhR9p666189B/wX2xH3YLmUX1utz5PIAFY2U2gGjif5Nb5ERERERERERGqiXMp3AE8EYfQEcBmwBxbE2hkYAzRjmVhzgZnAU8Ail8VVVUkN8EwAjlBXExERERERERHpH1e4/SXgQfdTd80Jbdt9gd3UxURERERERERE/JfUANYxwCjdXhERERERERER/yUugJXNFIYDx+rWioiIiIiIiIgkQxIzsHYCDtStFRERERERERFJhiQGsA4FttWtFRERERERERFJhkQFsLKZQjNwPDBIt1ZEREREREREJBmSloG1DXCEbquINEgX0KlmEBERERERqa6kBbD2BXbXbRWRBukE1qsZREREREREqitpAayjgdG6rSLSIGvdj4iIiIiIiFRRYgJY2UxhGHCcbqmINNByYIWaQUREREREpLqSlIG1I3CgbqmINNAS4CU1g4iIiIiISHUlKYB1KLCdbqmINNCLWBaWiIiIiIiIVFEiAljZTKEJ2z44SLdURBrosZbWYruaQUREREREpLqSkoG1DXCkbqeINNAa4GE1g4iIiIiISPUlJYC1D7CHbqeINNCLwGNqBhERERERkepLSgDraGCMbqeINNBkYK6aQUREREREpPq8D2BlM4VhWP0rEZFGWQP8o6W12KGmEBERERERqb4kZGBlgQN1K0WkgR7BMrBERERERESkBpIQwMoB2+tWikiDtAPXtbQWK2oKERERERGR2vA6gJXNFMC2Dw7WrRSRBnkIuFnNICIiIiIiUju+Z2BtAxyl2ygiDbIGuKyltThfTSEiIiIiIlI7vgew9gb21G0UkQa5CfibmkFERERERKS2fA9gHQWM1W0UkQZ4EvheS2txpZpCRERERESktrwNYGUzhaFY/SsRkXprBb7R0lp8Qk0hIiIiIiJSez5nYO0AHKxbKCJ1tgb4AbZ9UEREREREROrA5wDWwVgQS0SkXtYBPwMubWkttqs5RERERERE6mOgx5/9OGCwbqGI1MlaLHj13ZbW4ho1h4iIiIiISP14GcDKZgoZrIC7iEg9vIRtG7y0pbW4Ws0hIiIiIiJSX75mYO0F7K3bJyJ18BTwDeCvLa3F9WoOERERERGR+vM1gHUUME63T0RqaC3wN+C7wGMtrUW1iIiIiIiISIN4F8DKZgpDsPpXIiK10A5MBy7Dsq5WqElEREREREQay8cMrB2AnG6diFRZG/AocB1wY0trcZ6aREREREREJB58DGAdBGR160SkCtqAucBU4O/AXcAibRcUERERERGJFx8DWEe7z61iyiKytTqwYNUK7ETBF4HHgYeBR4A5KtAuIiIiIiISX00+fdhsptAEHAhsC3Tq9onIVuoA1gDLgQqwDFjX0lrsUtOIiIiIiIiIiIiIiIiIiIiIiIiIiIiIiIiIiIiIiIiIiIiIiIiIiIiIiIiIiIiIiIiIiIiIiIiIiIiIiIiIiIiIiIiIiIiIiIiIiIiIiIiIiIiIiIiIiIiIiIiIiIiIiIiIiIiIiIiIiIiIiIhIDfw/LfQt9OpPp38AAAAldEVYdGRhdGU6Y3JlYXRlADIwMTgtMTEtMDdUMTA6MzA6NTYrMDA6MDCjm4aNAAAAJXRFWHRkYXRlOm1vZGlmeQAyMDE4LTExLTA3VDEwOjMwOjU2KzAwOjAw0sY+MQAAABl0RVh0U29mdHdhcmUAQWRvYmUgSW1hZ2VSZWFkeXHJZTwAAAAASUVORK5CYII=;" parent="1" vertex="1">
                    <mxGeometry x="200" y="32.489999999999995" width="119" height="35.01" as="geometry"/>
                </mxCell>
                <mxCell id="16" style="edgeStyle=none;html=1;exitX=0.5;exitY=1;exitDx=0;exitDy=0;entryX=0.5;entryY=0;entryDx=0;entryDy=0;" parent="1" source="8" target="15" edge="1">
                    <mxGeometry relative="1" as="geometry"/>
                </mxCell>
                <mxCell id="29" style="edgeStyle=none;html=1;exitX=1;exitY=0.5;exitDx=0;exitDy=0;fillColor=#e51400;strokeColor=#B20000;strokeWidth=5;" parent="1" source="8" target="6" edge="1">
                    <mxGeometry relative="1" as="geometry"/>
                </mxCell>
                <mxCell id="8" value="" style="image;html=1;image=img/lib/clip_art/networking/Router_Icon_128x128.png" parent="1" vertex="1">
                    <mxGeometry x="344" y="24.990000000000002" width="80" height="80" as="geometry"/>
                </mxCell>
                <mxCell id="40" style="edgeStyle=none;html=1;exitX=1;exitY=0.5;exitDx=0;exitDy=0;entryX=0.5;entryY=1;entryDx=0;entryDy=0;" parent="1" source="69" target="6" edge="1">
                    <mxGeometry relative="1" as="geometry">
                        <mxPoint x="690" y="140" as="targetPoint"/>
                        <Array as="points">
                            <mxPoint x="700" y="170"/>
                        </Array>
                    </mxGeometry>
                </mxCell>
                <mxCell id="43" style="edgeStyle=none;html=1;exitX=0.25;exitY=1;exitDx=0;exitDy=0;entryX=0.5;entryY=0;entryDx=0;entryDy=0;" parent="1" source="15" target="47" edge="1">
                    <mxGeometry relative="1" as="geometry">
                        <mxPoint x="100" y="320" as="targetPoint"/>
                    </mxGeometry>
                </mxCell>
                <mxCell id="44" style="edgeStyle=none;html=1;exitX=0.5;exitY=1;exitDx=0;exitDy=0;entryX=0.5;entryY=0;entryDx=0;entryDy=0;" parent="1" source="15" target="48" edge="1">
                    <mxGeometry relative="1" as="geometry">
                        <mxPoint x="320" y="330" as="targetPoint"/>
                    </mxGeometry>
                </mxCell>
                <mxCell id="45" style="edgeStyle=none;html=1;exitX=0.75;exitY=1;exitDx=0;exitDy=0;entryX=0.5;entryY=0;entryDx=0;entryDy=0;" parent="1" source="15" target="49" edge="1">
                    <mxGeometry relative="1" as="geometry">
                        <mxPoint x="540" y="320" as="targetPoint"/>
                    </mxGeometry>
                </mxCell>
                <mxCell id="46" style="edgeStyle=none;html=1;exitX=1;exitY=1;exitDx=0;exitDy=0;entryX=0.375;entryY=0;entryDx=0;entryDy=0;entryPerimeter=0;" parent="1" source="15" target="50" edge="1">
                    <mxGeometry relative="1" as="geometry">
                        <mxPoint x="770" y="320" as="targetPoint"/>
                    </mxGeometry>
                </mxCell>
                <mxCell id="70" style="edgeStyle=none;html=1;exitX=1;exitY=0.5;exitDx=0;exitDy=0;entryX=0;entryY=0.5;entryDx=0;entryDy=0;strokeWidth=1;fontSize=24;" parent="1" source="15" target="69" edge="1">
                    <mxGeometry relative="1" as="geometry"/>
                </mxCell>
                <mxCell id="15" value="" style="image;html=1;image=img/lib/clip_art/networking/Switch_128x128.png" parent="1" vertex="1">
                    <mxGeometry x="344" y="140" width="80" height="80" as="geometry"/>
                </mxCell>
                <mxCell id="34" value="" style="shape=image;verticalLabelPosition=bottom;labelBackgroundColor=default;verticalAlign=top;aspect=fixed;imageAspect=0;image=data:image/jpeg,/9j/4AAQSkZJRgABAQAAAQABAAD/2wCEAAkGBxIQEBAQEBIQFRUVExAQFRYXFRgVGBMQGBYXFhYWFxgYHiggGBolGxUVITUiJSkrLjAuGB8zODMsNygtLisBCgoKDg0OGxAQGi8hHyYtMzIrKzQtMC01Li8tNy81Ny8rMC0tLS0tLS02Ly01LS0tLS0tLS8tLSstLTUtLSstK//AABEIAOEA4QMBIgACEQEDEQH/xAAcAAEAAgMBAQEAAAAAAAAAAAAABgcEBQgDAgH/xABIEAACAQMCAwQFBwYLCQAAAAAAAQIDBBEFEgYhMQcTQVEiYXGBkRQyUnKhscEII0JigtEVM0NUc5KTorLC8BYkNDVTdYSz4f/EABoBAQACAwEAAAAAAAAAAAAAAAAEBQECAwb/xAApEQEAAgIBAwMDBQEBAAAAAAAAAQIDEQQFEkEhMVETI4EyQmFx0cEi/9oADAMBAAIRAxEAPwC8QAAAAAAAAAAAAAAAAAAAAAAAAAAAAAAAAAAAAAAAAAAAAAAAAAAAAAAAAAAAAAAAAAAAAAAAAAAAAAAAAAAAAAAAAAAAAAAAAAAAAAAAAAAAAAAAAAAAAAAAAAAAAAAAAAAAMLUdRhQjmb5vpFdWa3vWkbtOoZrWbTqGY2a271ulTys7n5R5/b0IxqGs1KzeXtj9Ffj5mBvKXkdWn2xR+Vni6f5vP4SKtxJN/MjFe3mYs9crP9PHsS/FGn3jeVl+ZyLe95TK8TFH7W3Wt1/+p/dj+496XEVVfOUJfYaHeN5ivLz19ryTxcU/thL7XiGnLCmnD19V8UbelVjJZi015rmVzvPe1vp0nmEmvV4P2osMHVrx6ZI3Hyi5enxPrSVhA0+ka5GtiMsRn5eEvZ+43BeYstMte6s7hWXpak6tAADo0AAAAAAAAAAAAAAAAAAAAPK5rxpwlOTwopyfsRiZ16ye7D1nU428Nz5yeVGPm/3EEuruVWTnN5b/ANYXkj41TUZV6sqkvZFfRj4Ixd55vm8mc1tR+mHoOJxIxV3PvLI3jeY28byD2pmmTvP2LbeEm35LmYu8n3CNvGNtGaSzPLb8XzaSJPF4v179u9I3Jz/Qr3a2hcm08NNPyfI/N5L+INZt4ZpyhGrNcsNJqL9bfT3EIcxyePXFbti2zj5bZa9010yN43mNvG8j9qTpkqp4ol/Dmud7ilUfppei/pr95B959QquLTTw08p+T8CRxs9sF9x7eUfkcaMtdT7+FsIGr0DU1cUlL9JejNfrefsZtD09LxesWh529Zraaz4AAbtQAAAAAAAAAAAAAAABkQ471HbGFCL+d6c/qp+ivj9xLmVPxHe97dVpZ5bnBeyPo/g/iQufk7cWo8p/T8Xfl3Pj1b2nwjUdJTdSCk0pbWnhLrzl/wDCOVPRk45Tw2srmnjxT8UTrWLed1YU3SbzshUxnG9becf9eRXO8rOXhpTUVjx7rPhZL5YtNp8+3wyd43mzp8MXUqaqKC5pNR3JSw+jw+X2mmqpxk4yWGm015NdURrYbV/VGkumSl9xWdvbeWBwRX3Wu3xhOUfj6S+8rfeTTs5q5+UR/opf4l+CJfAntzf2idSpvBv4ePGGkSpzlcR5wm8y/Vm/wZGd5Z3E7Ss7jPTY/j4fbgqneOdhimTceWOnZbZMWp8ejI3jeY+8byF2rDTI3jeY+8bx2saSLhPUu6uIpv0amKb9r+a/jy95Y6KWVTHNdeq9pb+k3XfUKVT6UIt+3HP7S46bkntmk+FJ1TD22i8eWWACzVQAAAAAAAAAAAAAAADyuqm2E5eUZP4LJScquct+PMubVv8Ah6/9FU/wso9TKzqEbmsLzo8el5/pcHCUs2NB/qtf3mkVVV3RlJSTUk2mvJ+KLX0GzcbGjSkufdc15OSz+JVGqXne16tVct83Ixy6/bodO9cuTXssniStWlYQqWzazGnOe353dOOXj4r3Faby1uFp7tPoN8/zWPallfciopT5vw5vl5GnMrvtt8w6dM9JvTXtL33k17M+c7l/q0fvmQLcWL2Y2rVKtVfSc4xXsgnl/GWPcc+HT7sO/UpivHn8JLrFCNam6E8pVU4JrwkvSX3N+4qCtFwlKD6xlKL9qeH9xb2v1+6oSqv+TlTqP6sZxcse7JTVzX3znP6Upy+Lb/Ekc+ImY+UTpEW1b4/69Nw3GPuG4ru1daZG4bjH3DcO00yNxZ/AVbdZQX0Z1I/bu/zFUbyzuzV/7nP+mn/hgTODGsn4VnVa/Z3/AClgALh5wAAAAAAAAAAAAAAAB53FPdCUfpRcfisFTWnC9ajcR+U02qUN1Wc08wlCmtzWfDOMc8dS3WfLjlNM5ZMMZNTPhJ4/KvhiYr5RXQeLO+tLm5qxjDuXLkn1jtTiufjzwVS6meb69WW/r3ClO4oSo0X3OZ97iKxGVTGPSiuq6FZ2ug1I3qtbhbVHNSo+q7mK3OSfimlj3kTkUvPbErfp2XBXvtHp51/ELR4doyjp1CPNS7lS9abW5fgVNrFzGdxWnDG2VScljphvJamjcT0bm1rXEYuEKW+LTx82McxfLzTXIpiVXLb83kcnXbWIOl47fVyWtGp/1mWtKVWcKcFmU5KEV628IuLSLy2t3S0+NSPeRh83zfV5fTc8t4K77PKUVWrXdT5ltSlNv9Zp49+FI13DlSpX1GhJfPlX718/DLlP7MmuD7cROvWXTm4/r2tWZ1FI3+VscYV1CxuXLxpuK+tL0V9rRSu8mvabxDGo42lKWVCW6q103rkoe7m368EC3mOVbuvqPDfpWC1MPdPlkbxvMfeN5F7VppkbxvMfeN47TTI3lt9m9PFhB/SnUl9u3/KU5vL64esu4taFJ9Y04p/WxmX2tkzh0/8AUyp+s21jrX5lsQAWLzgAAAAAAAAAAAAAAAAAABqdc0aNzTqJPZUlSnRVRLLjCTTkseT2o2wMTG2a2ms7hVt7wvfULGdrSgp7rjfN02s1aWzlndhrEorl7PWamx4AvqqTcIU/NTk016+SefiXQDjPHrKxp1TNSJ1rc+u9IE+Bq0bRWlKtCKnLva83Ft1J8tsIrliCwvHmzGsezqtb1qVencwcqc4zw6bSeHzWVJ4ysrp4ljA2+jT4cY52eImN+/v6R67Utx5w9Wtq9WvtzRq1JzUo5ahl5xPl6PNvBFd50hVpqScZJNPk0+aa9ZWnGXZ586vYrzlKj5+bp+X1fh5HDLx/NVrwOqV1GPL6fE/6rreN5jybTaeU02mnyaa5NNeDPmVVLq0iL2r7TK3jeeUYyayoya80m18T9s6Uq1SFKkt05yUIxXVy/Az2MTNYje0q7PtHd1eQk1+botVZvwck/Qj72s+xMuxGk4S0GNjbRpLDm/TqS+lUfX3Lkl6kbxFhhx9ldPHc/k/XyzMe0ekAAOqEAAAAAAAAAAAAAPxvHU8oXVOTxGcG/JSTf2HMfEnEN5r2p/JIVu7pTqypUacpuFKMVnEp46yaWeaby8I3Vx2EX8Ep0bm1nJc8ZqQef1ZbX+AHQ+Rk574gt9QtuHK1LUJV1VhqNOMHOo5vue6TWyeXmOXLo/MmH5OlSUtNuXKTb+WTWW2/5Gj5gWo2NxXHb9UcdIzFtP5RQ5p4fSfkVhpVxP8A2Vv5b57lf0UnueUsUujA6WyMnKnBfBOoatSqVbWvTjGnNU5d5VqRe5rdy2xfLmevEvDmraC6NedxKKnJqNSjWm1vXPbJNLqs8mmnhgdTZCZzf2j8U1b/AEnR7qTcarneUqu17VKcO7WeXmsPHrJLp/HL0rhqxnD0riu7iFLc84xUk5VJZ6qOY8vOSAumrVjFZlKKXm2l95+U60ZLMZRkvNNP7jl/QODtV4gcrmdVyhua764qS2uXWUaaSbwvUlFdPA2N72Za1pObm0qb9vpN21Sanhc+dNpOa9S3degF8ajwtZXE3UrW9KU31ljDftx195kWOh2tD+Jt6EPWoRz8eppuNOIHZaRWum/zncRjB4/l6kVGLx6pSz7mczWmmXlWzuL6Eqjo0J06dSW+Wd0+mF449HP1kY1DpOW8xrunX9uwzxdrT3qpshvWUpbVuSfXn1Ke7P7ytq3Dt3p9Ka+U0sUYucmvzUpqcJNpNrkpx/ZIRxJ2bapp9rVu69ak6dPZu2VpuXpSjBYTivGSMue5dPpjJyfwZwhf6tGtK1qxSpOKl3lWcecstYwnnoy2OE9NuuHdL1OvfTpSkkqlLbUc06m1whFuSWMzcUBbGQmceafp17dULy7pzqShbKE6zc5Z/OSayvN8m36i7fyfOIXXsq1pUk3O3nujltt0amWub8pKXxQFrgAAAAAAAAAAAAKT4w7GFd1al3plxSUaspVHTm8w3N5bp1I55N55NcvMiWoaFxFo8JV+8uVSprMp06/e00s4zKm2+XrccGdd8E8Q6bWqTsnVcJTnP/d6uYtN5Wacsc+fkzGvY8UahTla1qd9KnLClGVKFGMlnpKW2OV6sgfmucdVtV0OvSuknWt7i1k6kUo95TlvjlxXJSTXgkua5E7/ACb5r+DrqOVlXcm14pOlSw/sfwPnhHsh7vTLy2vJrv7pQy4ekqHdvdSw/wBJ7ub8PD1lfPgzXtIrTlaQuOfo95bfnFUj4Zgsv4x5AWh+UJUS0hJtJu5opLzwpt49xWWlRf8Asnf/APcKX3Uj4qcJ8QaxUh8qp3LxlKVz+ahTT6tRaT/qxbLK4m4BqUOHf4Msoyr1e8pVJNYi6lTepTlzeEuWEs9EuoFT8A9pFbR6VWlSoUqiqTVRubkmmoqOFj2HrxXxte8QTtrRUaa9PNOlTzmdVprLlJ+Cz5dWWz2H8NXNjbXVO9oOlKVaM4qTjLMdiWfRb8URjtQ7MLn5bG+0mnKXeT72cIOMHRuI4feQy1yk1n1Sz4NYDQ9p/DktN0nRrWo06ineVKjXNd5Pu5NJ+KXJZ9RouLoS/gnQZfo93fRX1lXy/scSfdoWjatq1jp2+xqK5oyuI1lup4lmNPbUj6WMSw+Xg0/DDcg0zs9d3w/bafeRdGvTdScJcpOlV3zazh4cWnzWej80BvuyC6pVNGsu5cfQg6c0v0aqk96a823n3p+JMKtSMIuUnGMUm228JJdW2+iOaKfCHEGkVJO1hcYfJyt5d7Cfk3Dr8YmU+GuJNW207p3MabfPv5KlBet01hy/qsDcflFcQqcrSwpyzFR+V1MdG5ZjT5+ze/2kabhnj/T7XR56ZVtrmTrRrd9OPd4lUnyUlmWfRShj6pky7PtSv9YhWu7WcLeVanvk5Qa+TUkoqOFLPOEEvay41wBpX8wtP7NAUN2G698k1WFKTxC5i7d+XefOpv25W39suXtr/wCRX3/j/wDvpFb9onZld09RVfSLV901SqxVNwiqVaL5pKTWOcVL3llcf2V1f6FVpQoS+U1adq3RzHMaiqU5VI5bxyxLx8AIX+TT/Fah9eh90z6/KN1/bTttPg+c38pqr9SOY00/U5bn+wbXsK4Zu9PhexvKEqTnKi4ZcXuSUs/Nb80RLizgjU9V1qVarbVIW061OkpucPQtINR3Jbm+aUpYx1kBruA+P9PsNNq2Ne2uKjrur38o7NslNbElmXRRS9+TTdj+u/ItXoNvFOtm1m3y9GbWx+r01D7ToVdn+lfzC0/s0VT2o9l1f5ZTq6Ta/m5U4uUabhBU60XjKTa6ra+XimBfiBreHa9adpbyuoOnWdOHexeHiqliXRtYbTfsZsgAAAAAAAAAAAAAAAAAAAAAAAAAAAAAAAAAAAAAAAAAAAAAAAAAAAAAAAAAAAAAAAAAAAAAAAAAAAAAAAAAAAAAAAAAAAAAAAAAAAAAAAAAAAAAAAAAAAAAAAAAAAAAAAAAAAAAAAAAAAAAAAAAAAAAAAAAAAAAAAAAAAAAD//Z;" parent="1" vertex="1">
                    <mxGeometry x="880" y="12" width="85" height="85" as="geometry"/>
                </mxCell>
                <mxCell id="36" value="" style="shape=image;verticalLabelPosition=bottom;labelBackgroundColor=default;verticalAlign=top;aspect=fixed;imageAspect=0;image=data:image/png,iVBORw0KGgoAAAANSUhEUgAAA3wAAAKCCAMAAAC9JSvNAAADAFBMVEVHcEwAAAEMCwwNDAwMDA0ODQ0ODA1MXEwQDAYtKBkREBAODA0MCwz///8hHR8ODA4hHh8iHiATEBEhHR7///8hHR4iHh8hHR7yvRkdHyPzvBkiHh8hHR9dW10iHh/xvRsZHCAhHR5hwrbrZ5siHh8iHh9Kuq4+vbBHva0MfrY9uKhUtOQMfLTv5ck+vbA9vrDtuRo9vrAIU3gMe7PyvRrq7ez19vbzvRgFP1sMea/n5+QMcJ/39fE2pZQMeq7t9PELdqwLfLQKa50MfrcJZZEMfbT6+vgLd60JXYeHysryvhwKb6D6g7W04uGo3Nz79/Pyvhqw3toNdKY2pZYKa5jtvUTzvRiSlJbyvRyC0Mfyvh6Y18/6o8nV7Oj016X6+vnX7ez207K6xMfy0317zMPwuZ/45bR/0/b8+Pi75eD779NFX27pwV7u3uOV1NfZ7/BPvLBbwbZrxrvzpsPtzIL01Xn13Jl6y8703aHsaZ79wt25vb3wjLP3wdZqwukcquDfm3EkpJf67MiZeh3ktz/uzHDmToxUX2LXh1ncrSdmwOC2ysxbcXZsw+rnvE95d1BRVFc/RzqwXn4ersUquqs+rqAbV2x7Zzk1bmfAlho+vrAjHyDzvRnpR4vwvxo3pZU1NTUHpd4Bm48NgLnXoikkICE+wLL2vxk3qJk9va/qQYk6r6A2pJQdFRT8xRsZGBxCyrvvugLh+/lAvrFVU1T0ZZ7frRzwTZFIxbcCo97yvxAye3ErTEdfy78Qq+UiHBwVnpE3ODgvJyAAkoXnMX8pKSrc3NyefRxLu+02v7A1LS/UmgopuanYoyzYoxI8t6n/+t0yu63/4fMxWFQlNDMiLiv//98MBwc4n5L0R5A3in8uNTSR5NteTB4FntgGp+Iht6gyaWVAQUKu7upx2c44lopU0MP+5oP90TlXtqgkuaodr6H82V3Wnx7E9vhgQE0Sdpw1w7R/RV3/+K6kSG4rvK0os+nBSHrhSIj2VZnUSYMbSFoLksNGxPb856ohva6F4MU+AAAAmnRSTlMASUI6Cg8WAQIFHTIsh8AioPwnsJ5u88/dX4Lcj2r4JlJ+a2vl7AyxGvRpauMQk+X98IeLWyk8tnHSHSpT6kBpWXMXt6ehu8eZPz/A/LpueOtT5pK0/pv+c/PN3PuWUNu4cpzwvz+5/oPhrz7uo6vp1fngv2jLpZvhzP78l9rY14b+7+qYqvn+vN6uvfuAzbC42m5YourNguXmSR1EEgAAWuhJREFUeNrs3bFq40gYwPEh2UR2cnhzF5LIIpzsYkuDCoHewZUqIfRqGbYzXzfXpUh5EO4p8i4nO7eMmwtZr5kZ/P1/u4bFbNL9+cYzkmwAAAB2ssl0Nf3s38lomhkAvy5blfWnrcsdA+AIyrprPqsrimJ87TrchriaGgCHKovcOfkUK+Jky9k8H0vs63KSTSYT1qHAYfG1u/g+eomTHff+xzkR27Z5PgxjgvWadShwgGw7+awV+7+vH/8Qu0dE3I7djsDtGvSLAfBTdvEdSETsqLJ515crA+DnJ9/hdiOwaoem62vWn0CYybcf4Kht+nW5YvkJhJh8nojYtsqbYm0AhJp8++vPoSvqkrMHINDk88S5dijKktN3IMzk80ReqjbvWHwCAePzw8/lTc/ROxAsPk9EqqZeTSYGQKj4fH15U3PuDoSKzxPnXpqCtScQLj5PpBpqtj2B8PFZJ9t9z4kxnPsBYeOz4lzVrUv2XYBg8XkiecEHPyBGfK4aOHIHAsbniWubNYcOQIT4rK3ynvqAYPF54tzQc601EDA+T/KCTU8gSny2ZdsFiBKfuLxbs/IEgsXniWt5xAQQJT6RltkHBIzP2608ucwTCB+fFVex8gRixGfFsfIEgsbnuZbLrIEo8Ylt+xWn7UD4+Ky8DAXXeQIR4rPi8jWzD4gQn5V2qA2ACPG9VN2a0QeEj8+K48kSgI8vKMlrvsYPiBCfONvxsQ+IMvlEuhVXukA7H19IfOwDIsUnduASa2gXJz7rLKMP2kWKT2xeGEA1H19gruFpgtAtXnx5x8ITqkWLT2zOYR9UixafdVKUPNIFisWLT+zQc4E1FIsZn2341AfFfHzhuaHmrnboFTW+tuE6F+gVMz6pWjY8odcH8bHhCZxsfOKamstcoFXc+GzLZS5QK2p8VlzOd6dAq7jxWdfWjD4o9WF8nDYAJxuf2LY3gEqR47MiBfud0Cl6fI7nV0Op+PENPRd4QqXY8VnhjnYoFT8+GYgPKkWPz7p2PeWgHQrFn3yu6hl90CiFycd+J1SKH5/YoWbZCYVSiK/l4dXQKH58VlxnAH2SiK/h2/qgUBrx8RQzKOTji8cNHDZAoSTi43tqoVEK8UnblJz0QZ0E4hOpuJ0dCiUx+SQnPuiTRHyuIj7o4+OLyNn6iwGUSSS+nsfGQ5004uOuIiiURnyWgz7ok0Z8Fbf0QZ8k4hPbcUsf1EkiPmcbJh/USSI+Jh80SiS+hu+HhjqJxDf0LDuhTSLx5TzGBeokEx+TD9qkEd93Jh/0SSM+Jh8USiY+AyiTRnzfmXzQJ434mHxQKJn4mHzQJo342O2EQmnEx+SDQmnEx+SDQmnEx+SDQsnEZwBl0oiPcz4olEZ8TD4oFDW+6p9Rlcxnvov5cnnG03sxUhDf219Pb8/J7HZ+nW1eby55ngWMOf34nt+e/n57TmXyZVezzebm0gDm9OMbJ9/myJPven43P3R4XT2M8V1kjD4oiO/5bXPkyTdd3m/uzw+efE8sO7GlIL73ySe7+DJzFMs/X79dHzi8rmZMPrw7/fjeJ98Rz/myyTj5vp0flk82brj8zuTD1unHtz/5zFFkY3y/NPkeL5l8MOb04zv+Z75x8r0ePPk4asB/FMT3Y/L53c5sMp1mZt/H749vTz4x+bKp/39e5n9676ghe/+1XO6Gk45vf/JlJrs4u7uZPcxuH+d/TI03vr/cvn/zOD87WywW8/nXXRnZb3ePtw+z8f27+dn2J7Lz+eL2fvO6XMy3rqcmyy6uF3fLm9vZv+ydTavc1hnHZb09kuaiK+mgkWWJqQTSTVyycMnGocQ4cUMC3WbVr9CP4W6ySktbSjzBWZiTODi0gUIoScAwMHTXLrrpJst21+/Qc45m5sjzcvOCx7rR/H9jGx3NkWbjH38952VG3LY2HUNjW92HRXWaW4G/Sj5euv4kL5nsXjkGAGOVr5985OUh5zzmkrZMtHtVyLfIbXE+iRquKSzf8BiXzPmCS0qHjCqbxgLeEU42UpvCUk12Tquaj9X6jVDcE4BxytdPPrue8h7ZxOjw0pYL4tmsJ59vkJXxPtPKM3ym3JtzxaJ05MVLrllu7po2vMeyEK4TSfnifv9iYgAwTvn6yScdi7Myr6qUSd1YQIbkWiHMYtUkSapSdgmjiJm+EGU55w2r07wuIxYWmUlEdRgWsbhLqMgdoioMWVTWeZrnUSO0LN0u9wqpViTOq6ubMCFZ8ymf24yV4q5hK8MTi83ASOXbJN+t678JhWO1SwpLNJapbcg4ijifpTaRT0RVw2P5MElEaaueIj2irixMHJIYasDFkMi3yLY9qZX6K40rEnXTcsZ5FBB5qkVuYtMq+ZrasuXFHuWN6g7AKOXrzfP9tn3KS0dqQtR5ws4NwVkmRyCVYmRIaYqJaoij1pS9DQWtehi9SXb9bweVLZ9WsqMT8mWYyCN9sR7t3HSfie4+Zh7AKOXbJN+Xv/rm6UJXWGREwi1LHlWNysAOShu+qKQONouXLDA20Mo0kvN8+ys1da9F6osDVxltbOEL+Rbl+jSpj66xvQ+MU74u+b4UyfdeMXvKznXK5E03pkniYJ5v4qcqOFctm824LNS2IZ18u5jqpuJNJZ9De3c16OSbiGbpIPnAKOXTyfdBO1/0/qOr587SEWmkLPRXZ+Vp1SIqp/Jo39rOxaHk8+XVKvmckPPCpK1rV7sa1k1s7wNjlk/XfPfbhfBC65BkS166pJKPr5NPtpZdi1IhXxtVrv+dko982w2StOXdh1A0E/aVlvPM1fTsrgZyRZNhqScYp3yb5Pvk/kI4RtqDpKvKZNapCTsFSbXiitYd+GLWhmVqBt6zazsnZGjIrdIyCoumnXI5huqvHl8FccPq3HJIR11/VwM5jC9ZAPfAKOXrJd90wXOP+iG0iAIiFT/F2qZENs6UfIYZ8hWzguXuoeQ7L4sZVyy5JPU3NWXHNItMZ/Wh2TO7Gnw24ywwABijfHqe7/6mhNP1lkwdorrlPKtccehL3xbCjlWXnLV8TWb6q5qvP9q5Xgcza5uMRXXU8ljJR0RJHU75Gna2/tD+rgaf8SXkAyOVr5d8MyGfp6UJMuFB0GWgCrcszDKRjrywNrMKZJ/LFdcy2dT5TfL9euOPw5ZzHqZn54Fje54arrHXVztJVbOwiTlXnpOe5+snH3YYgXHKdyD5dM0nSYQDvYQj2nRSh35glg3ny9rZjHZamx55o8TqWI926svJsJMqann32XSuRzvVvVDzgfHKtzXaaWv5JkU32imR4yDtdDprsih3O+M0ekFMQLTZz2esUItU5CXqZTZLIR9tXe6nrSz19GingZoPGKOXb5N8f/6gXS8u0RN6tbOZXwjNZDJJXJ/I2IXoIoqXRUJd8vGpRWt9Vuf1FH2c+jvuBpkMvN3RTo/FqPnAWOXrre1sFjzUK1wobRdx3nliM85Th3ySGPspY95M1sk31Y+mjPMi0Xv4igXP7Z3kdLvBnT2jnTFqPjBW+Xr7+X4X89Y0NjAubNIhWKknx4N4Ubzokk9Yq1Z/dlAkpdxa4XLgi6r3jXbGqPnAWOXTazuvv98shAH9NZxRoFpUiXfSC+MyrExlV9db5mRvY0Ks18eIuy7TdUuTN2oNJ60sRM0HDGP88um1nddvhE85jyaelMTJCy6l0QOfTZmmeZXnleXQ6mxeTVybVPcq4/NlbdOq9zKzSH0HEkmvFlmXoI6VZrFUWjYmuZm4vqcm91LRZ1qR4Dzki95iTh81HxivfP3v7ZT5w5uQRYwJSXQEEZUtFyy4IG4LZvrUbS5qiyxkjHUTfdkZKflsxue8kaez2iU37Has1xHLllwRylwsp7wpQnV1M+NdyurRTtR8YPzyrZPvQ5F8ntCpR6/YqlveR01JqNqOazKz92zZIVOLzEIe8Y5CadpYhtwu2IclhiRBzQc6TkC+W98sFt/cWn914CQqYq5oRTwR9X76JIwYC1mYKXtak4gqVrQx75hlZUDr/pRn2l8ik83WC0DTIKgLNSxqpGEx5XzzYW53ccCaadlLvrKZ4jt0wUjle/jF//4h3FPyeUR+YOapILdsIuptZEht6YLvXwRmOOPL0pFNZyJ6S3LTIYEevazSukzzKvFFw3esrk/gyy7ivdyRpwNrdXVlac+DJHE9PQchm/jyQDBO+YR+Dz9cyUdqtYl4kTrSc3NLXnfJROSR2l7OzmW76+hTx/bMeffG6tjrdSFSNaNBm06kLzN6TdUJu/nAaOVbIZOvE2XjnS74GkuLQw6bL8OEVKvzQ6m0BdFGHNruou8Fu8AhTke+Lvn2Uk6XWUI9qyLOs3MYA0bA1ZePZ4luyuRbhOcGAD9+roZ8Dw/KV7dqBnzTnhScY/wfjIKrId+h3+cjypv+dnJy5QxdegH5wAi4MvJt+6R31c55llpJECSJVct1KlkC98AYuBryHX7spLTlguW0bZupWqtSmHAPjIKrIZ9Ovh0oL+Le149Nowl+PgGMg6suHxEFVRlmTdE0RcZSqAdGw9WQ7+ElySfxbFfiE/mYFQdjQcr3yfBcv2FcAnUY8gX3wFhQ8n04GPqx0wDgtPB+cuO9W18Mz3s3Xn7z5ZfF390/x+bCAGAQkj/d//sV4P77Px2K3xsADAEldba4Avzrq9df/8+B17//+LMj8rc/oIoEw5DUzfwvw/P1V0+ePD7Ak39+/Pnx+O9L2C8LBoGSuuCD85R//dVnjz86xJMHDx58+tdPH2xez5GPP38JyQeGQck3H5jL5Xv85NMHx+PzlzBzCIaAVPLNB2c4+UTyeQYAA0A/guT76KjJh8dOMBCUlN+SfCN/7ETygcEI0uyqJ99jJB8YI3RhhqeefJAPDAI5VricXwZqPgCOgndhZhjtBGAIHDNczC9j5I+dSD4wFETJla/5PkLNB0YJ2eyq13xIPjBOyGeo+QAYBIquyjzfZ0g+cFKQX06Hl29+ac2H5APjxKubK5J8qPnAieGnWfwt9qHmA+AYUMUuK/qQfAAcC79i8QnLh+QDw0FWNDth+ZB8YDCIgnSGmg+AASAnP+XHTiQfGA6ianrC8iH5wJBY7QnLh+QDA0KTLJ5fAmo+AI5FEl0SfUg+AI76cw2nKx+SDwyJk4f8kH2jlw/JBwaE7IRd5h5qPgCOBfnRYn4IJB8Ax6ScH2L08iH5wLCkzWy+n9HLh+QDg0IVu2SRC2o+AI7HpGwPyYfkA+CIkJufrHxIPjAoRFbD99s3evmQfGBQiIIwnh8CNR8Ax4PcskDyAfDiIXLy8ETlQ/KBYSH/LNpf9I1ePiQfGBYiqg+6h5oPgCNClBez+T6QfAAcFzL376gdvXxIPjA4Sdruq/pGLx+SDwwNHf5tdtR8ABwXh8VIPgAGgOw6m+8yevmQfGBwyDf3TfWNXj4kHxgc8i7q/fKh5gPgeUArLjxjh2rfVB+SD4DnIp7nXdy5++q91x694RFtv30WNTvRN3r5kHzgRYjn33nj3iuPOt7yPTK2cKqMb9s3evmQfOBFiHfzkeZte8c+ooDtcw81HwA/2Lw31+Jpbtob+zRUN/NtkHwA/EDzjDfv3nu0h0TL159tmG9l3+jlQ/KBY6CeNt9SmbfLHXdP8rnp9NTkQ/KBozxu/vzVfebdfO2X79y+mzj2rnxkZfF8G9R8AHy/0PPu3Nv1TmiXX7t2zZycnTu2T8Y2wc6vhSH5APh+6l3cfW1bvLffuX2tw7QmZ4FOvh4XE3Zi8iH5wHNEDW9uPW++8guReArTtCxLBJ/r+L6xh/LZqm/08iH5wHNVb6vUe+Xd233xJmdn58I9PdrZh8ydnUWo+QD4burZz6bezXdvVyvxJso7iSvcsw3P2IX+z975/LSRZHG83b+quttLg73gsbBQswpoLTm7WTuj2IJlIMBghcOMZtnLHGa1l2iVuU5G84fsSqthlTm0erInpFzzV0RaKf8CPnDLPdp+VdXtNgFDAm2qut/HEEMOXNCX73vf96rabk7umKHzTUDQJpFLZwvbnTDDoBsEXHlCeHaMZcbQmAt/RK2+djym8OL7GOcjhDzu9VB/yIdAwjkRsxz2heelwrMskwHKo9pFkMkntBdefNd3Pja7ibdiKUX1IZMQ4mzsTtSbLGIxhPKywtM0kN7FEMdtTc76sOcT9ebWPl9Jd1B9yPmKcycrvWGQVJs+i1csLjsAlDf1Cs+5TOKJzndubLpvoviQLIQ6GwcfSo8HmzbzO5OpDvR3BcRt3iuP+MD5rtNKp/V8z0L1IZfb3lEg6k3fF8WmBqKDz+tA/Ll03FB48YHzXR0gZ1Ksnms5FEMX5ELbO2yekx6lGryuj7WYzVxK3fPBslBvIkA+6G1vPaYE5YfETNreoA8Fpyekx5VHtY+DuK2lY0G5nW+8sTDJ7s5jDfVXemCjZRxytrus16tWk04P+IQDEXqSuRRefNOcL3a9/fAS2rH+sPosN4TSjc64JGoGFV0UnKbJI5ZPErTdXOaFZ+HFN835CHUg47xcf9vrqL/yAjlcO2N7WelBvfnJdurOp3supe35CHVM04ac81I6Oyi/skKo2cvYHuQsUHFayST900nvry6x84H4LNf3up3wcto9rD7LCCHaxu6k7QnpmTTmhvdXN5dh0aXw4pvqfLHxuVXP0IftTKL1Tfuc/PY3UH5lY6Ld63Db831IONkWyw0htRaM2gsvviucz3b9WHyVYC9VXL9Z6e+d88J9dL9yAWlAO53tBantUfOGrjc+3sDFV+qez7L92PoqlaB5FHK6FaA/nNBfewcH7yViImrZ47bnMtu7JYjTrEdRVGLng7oT1BfLT4/1tnjIna8iADmO6Wzh0llZyGqv3echp23dIOK8+Fzt8XHRxTfF+WBQA21fbH5MfkF/AOKD6wB0nckPitGUXWz9ykF2q6XTZCWnDdqbkJ46bZ+kzqdREJ8wPwP01v8mDKqAJ/Q3UX32sPYsAYTS3rjd03UjsT2N3upz2r35lePj0vZ8IreC2tNK5Gd0DR9I9RdkBxEHaH6Fh1CnlznBACXnbdseQDQaxGtmJXa+GDrhfoZRrbm2ZcG3ifyamUFEexs7v2IDZ1yyUYvn+zbfaNFuGWLpywUXX+J8090vkV+Vac+MEfrj8jvCqUNJyPZ7Q2j3fB9sLxeItdqICi0+7nzToVRL3M91bXYyGUjtL+4FDzKxJ17yUliyOWe3krZ7lGo5QBx7danEPd+E+8VYYms2hgnQthP367bHC2dYehYUmK1nRgxJu6fRvFbYaqtrUcmdbxx8ApR9M3ZDkB8kL4dYehYcQs10ryWjPZrjnWjV+Th0iYoqPuZ814XSzAJR/MYEmSah4+DlANVXQODGiHHNCdqzLFPLFcIOOJTe+YTa2PtFSahhxJ3fYNz4aVh6FgxCnceDJGvhIwbe7uUIIes6874y93zZ6vPCJJSbX3CEM4eiQojj7KYzBvacr9y1B5hGfS1C55uShFpcfpncpb2D6isUmQHfUUUf+17+mjfiyrOY4mPOdyNo/DKtxPz6nVCAoWeRyASdh6A92+ZbLflDnGBuJa48Cyi+GzrfOAm1LN75NQep+kxUX1GAsKUj+vlgVr43vlFpbgl7vuljQFF6BofofUUDjnYeiH6iCbN1PmKYEcQM5iN0vunmlzR+e+h9BSNzWVJXN2boewAhxNLn49QlKpr4hPPdhvmB/PjJ2y56X6HINHx7qfa0GQLzvgV0vssRM78qNH7dNnpfcSDUsUQnP4BzDLY5c/Fp63prJcKebxqgPvS+okGcpOhsQ9gCFyVpM8c05u9F6HzXaPx0faw+6qD6lCazVtaPtefyonPWEMdrrUXFEt+tOh9gWhbELmPvw10XtckknYdJ0HkXEKe2uBwVSnzC+W7V/Gzf9/S072vjvWZq4zg7SdGZhi13AdHs1cYK9nxX5C7M+9LKs7OB6lMXQh2/nUwZPJ81fFS7K/TGUoTOd0Xjx7wvVZ+F6lMVQtO05YCdIroz4wOIBbFLVBTx3bLzAVRLvC+Ztu/iY9xVZZy2tJui4btLCDFajZWiiI87Xx7eBxOHo5Czjzd6qgkY337IGIqik2p3CSFucw57viu8z7ZBfYOQgweM1IRQU3R8Hd2o+RZsdN41dtC6F6+aReh8V2SeQUcEZRu46qIgGePrpknnHUNg4tdYKkLZmThfPn2foTdFUjbA0EVBCDU3UuODolOTAeJYQX0FnW+690Hf1xfq2zcdbPsUA5Y6e6nxiaRTAuCYQ6uxEEXY812MUJ+hD3HTRVUIdezE+GCfWg7jY+oj9mJjbQGd73Lvs2zfMyqHou3DWbtiQMe3kzE+SXxPqM/yVueiSGnxCefLq+2zq56RhC4H2PapBVSdB6nxwYhPGvFpJMZt1pdXokhd8SXOl1vo4ht6H48XKQl1zO9Dxp5Rk8r4AEJg1bqxhD3fxYD6sm0fFp4qkYlbAs+3pTK+RH22DrVnhM43JXQZiMIT18wUglDT5h3DwKi6shlfor/aYr2xFEVKii9P5xOrLplZ+zaO2pUB4pZtEbfIaHwMwnLP+pKa4mPOl6v1QeiSHC9qP0b1qQKhprUbMnRJjQ8A9RnN+UYURdjznYfytu9AjNqx8FQF4pji2qRDr+bKaXyJ/LR47LC8dhyh853THm/7kjWzLbQ+JSAQt7ghow9bnY6s2uPrnqYbxMVnpJb48nU+QLR9Q9zxVAeytbXx2LS2RNYJVafE2uPYxmJrLtZfpI74cnU+gFIx7ROZy47Uf0ORGEK0HTZaT2Iyw5a25UshIvlcW1rAni8DLzz7SeaC1ic58BjMdjhBZ9CTtufjwNa+Y1rGYn05dj90voz3wZrZUcjoYeEpNzBjgFN8k2xQ2b2Pj91dfXG+3liJYqQX3yycj/LEsyLuAnFRfFID4rO3w0l6puNI7n0AAax47eXe0tJCJLv4cne+8aKLPkTrUwEY8NluZ7LsdC1FhkSEELpu12L/4/ZX9p4vho/a23ilhAIw8dW6YZbtmm058tedHALY+mJrfq5xbyECyut86Y7nECftCkAdx3JrepjhkO2XqfPQDcKxPPC/hZhISvHNyPnEsK+D1ic/MF63a95hmNIOPF8h5xvrz7Rrht5cnW/cizhyiS9/5wOoyFy6wvqw65MYSh2oU/phyhBuLlOwXCEMsxo0W/W5ucby8trKQpSS6fl+mSK+n3/NjRk5H0XrUwf4S+lWjXYoGFS8qq3AjsuHEIFDNcsIFlfrjeWV6LzzMfH995cLXtz5fv05J0B8M5FBYn0YeCoArzuHoaDPjE+tqjMLIfC5brs1Tw+C5upqa75er8dhDGf5f//+8+X864858qd/Ug2YifVVxbHato3WJzFQd7peEHKOdK9mS3FX9Y1N0CEa0SwQYbO5uNoSrP5lGn/Ik99pwIyszxPWt6NgB1EeKIW80zgIgXYFbi5T2Pgy8mNvlDjOumk6ppVirq+vOxe+cuX36+ta7oyvU0pmfQMLrU9eeOQi/lB2DWnPsd/AA7kW4UO7GpLLa5aIrm8vZGzh4QaZGUcuA92rKnCoAblO4BmIaQNan8RQ6sBK0h5/Kp9kV3Yin55gi+FtzVFnYaJ88FFfEIZ7UjyVD7m59bH74/s4bZAfWAh0a8ago3tVOZ7Kh9xK19cJgQ7WnRJDNbC+WrfvSfJUPuTm1pcZ3m7htEFiqGNarl+tVmV6OBFy4+GtLupOtD6JYfGY6/u+Lc1T+ZAbW186vO1YCp1RKR+UHam1bTS+gkApFcNb4HuLovVJC2XXzlnoe4WBTxsqWHcqAKUmQDHpLAgswfa9QQgMcLtaZih8mFSBS8uQ68HqzupQ1J2Yd8oM0x1Krzhg3akUWHMWCZZg15K6E/NOBJkZYtQ3FNfnYt2JILODwqivKZZcsO5EkJlB+f0gounDdfkZQ7SEzS+BZ4ynwLOn8OVv4X83NQG2fMUC6s5k2HAk9zMXi8j9zc3vYp48+fEd8P50gneMtz8+efJdzObmfQ0pEjzv3ONNn4qXQaoJYVC6+eZNLLiz0cvXr18/ePXqVfz2KmH81X9GZ6en79+82SQM/BUVBVZ39kOGh03frCrNr758+vT5o0efjUYnf3354uTk9av0xd8ewD+gxvjz5MXLF6OXo9Fnjx49f/r0b19pDPxNqQ5r+nw9ZOyg+PLX3edf/P27hw+fvzs9OxudCI97EfPgBecBfJwHdAgqHJ2dnb57/vDhD5tffI4KVB6+5NJhZec+Tvry5f66o/3m7fvTUSwmbmkfRVKUvh6dvn/7D8e5j02g2vCm7zCM6fQwccnX9Z799Pzbr0cnUGYCL4CP19/rlycvT0Zff/v8p2cE3U9p4EZWvzvY68IjAPAml3yAavOHh/9n79xC28jOAHzYLIzUraFL9eAGih9cTKAI8lBNQRWIvhgSJpH7oM0StPaqwpcmNn3wpbZrJ2DiLBs26UIfvR7WRMJwQDKz7Fh4CDIpkxAqJhiRWoiCRdMHqSDXoSpJvFmbzpGSrePcnPVoNPPP/9nOs6Pjb/7LOeefo7FSOaVIknhojtdy0FLs6C+iQR9BbMrTl+AceeedI+/Z8t03NsDr9ZJolSWbrL4zCqWegFajbi/mnzaFFX0/+OF7R468Z88XT1kbjuh4ZkZbu8qLi4qOaBwKI5XqOhub8WD6aUuevqdWBydCNqLOC0Q/jJUqtRbLomg0LPylynr++WE0gN1PG+JyswGeOJzHeDi/39vWV+9tKmLDYPlnuTrq9fr9uAFvM1yu2htimHrv4m1NI8Oer2cm1lpvbYoNRRFTitgam+nxYfCzGWw4Tx0cUmCced6B0GypwrqbohnUduBLY6EBL/pnJ1wMPejhsXnj8Pm716oV1tw0DUVh2edat9+H7tkJl/6Fs3kMgyP+nplBhRV6imgiyheKpAzO9Hgx9CGOhNN/+LFKrb8pmo0iSSz55DH1RByJ39c2W1LMzDj3tz5Ls229uO2OOAwWboLVLmaeqe7tP/3ZtRvE4Ic4iFrCee7Sp+HUoiI2E0kpl8/OenjUD3EMft43uxvOZpePi01GkVKV6pifIIhDCKyPa9nNuBbXlsWmo0iVPiz8DAfEFAGb//ov+9+ExmPh+GZNPgvYp0hl8Zd9IWiftDXgOD7YbltgPZM5QvjAyfFKNht/itb81FOUpFQp1o0nXhoB58nJj2VbIgg+aBv6neuDm9m49p18mtZ8+1jpV+omeNq6AXTm0jRtQwqFid53Yf1B+DpjYU3bjO9l2Qr2Kamzo5141914PLl5ldqOebUgtEPKhDjC+cd2w7Viby+WiH2ilKrsjvkgfd7WwJOj6rxxPJ43BzWdG4CVdLrGYqza248lmp6s9CuNwSqx34Ad5TMHqgqRoB/Mc5gjxO2f1Zb1uPcClmh61lLP8Kgf2y4oH6WFyJALzN8BR9zBkUth7S5LOa0b+1Llo9EgB+ZTtwKeXMF28qnbkSiBBL9W2lft7av7rFD4KVK5tMYTxMmRj1JZjvrBJEAcIcGZ//c4LRz7RDFVngmC+eBfD8r3KvmmCBiYe6OVva0Wy9Z97LB1ZRztc7J86cvtBBK94+HspqbFbRH7pMpuL0GcKp8qTPJgyn6OkGhsmXVa3oBmhaNm9cIvFsXY50z5KJ0XegIECBwhI9f0nfU3usdCnzVin27f6AiYh9/rwW7n86h0spOHs7vu7h0MZ+MHQbNK3Scq5Vgvuue8yEdpWpgOQMl6WNxjB6lfjQVPmukoqcoIlDV4JSjfS062TPNQlp0j7lrOGT8wFrFPkcqDaJ/T5FMLwjCgXd5nOacd7QufxJOejpKPpreHA3BOlek5J9tbt6d9YmWEIM5puFAqw7k+W+9zxlmf862wStNFSV2LYs/TQZEvPdUL5j0QXMdLc067bPfp9pUHuzsI4gz56LbQ7gIjH+mOaa8Ie7Y4aCaKbLgERj5nyEdVOddCYMARV3RwOf4c9ttwUFJ41sUZ8rFNhhYwY0S83XrO+RaBz3JjXZ6dNAu4CQJdPkrTk54OMI/Z7hktq9Xcs3PiKUrlXTAn/V4CdjvrqPJkFMjGEscG4y6/Pum0xw0H1nUZD2HPE3bko3RbGAAzPMsbHK/syzntudtXmyY/HgTyUNwPyldHpZEpKOqxlzHU9xgg2CdK5XXMPCHLp8pCO5x35bja2MGW74eV5sjXUcoVvFwLWb705SkoI1s4QnovPVMPQtknLoqX0D6wDRc6D2lkC/HOPn+Rwea7faIilcYIAjTyqYXcEJC4Rzji7wuzXosBWMQ+Sap2EgSkfFTdFjpDBAp83+DyAbot9tlrl1Klc9hxAStfpAfQFb6h6oE2GexT9imVHh+MrGQ/KJ9aiAyDOcLEEXKJFXzGoGlis2EFX58fzFn3F3B2w4VSeToA5QgFGxvxKRsKfxBscbdPSpX6wEzUeQGHRz72MiKfG8zaciOD4YPFPbt0PMs9PLoHUz5a2B7uhrK47EjnbvbAzRYbbLUrUrUTztmH/ThevrTQC2dki39g/GDjcRnWv98gpSrVPox7UOWjhQkwI1t0/GuxzbjBaGKTUJTF1tEennDoHkj5KI0MExeYxXUdG6+fpwaReEpKaYTgdQao3U52fbYTyiaDTqDvbTNOy15vUCSpUhrBd0TDjXyqnAtBKucHqneze/Wz7067IqbKsRY0D6x8lMoRD5jrs4yjGlMPgn2SWFoPcYCq8ZfjXPlUOjlEwMARMnQtu6kBkE9KlUtjfMCPrRaw8qmyAOYKH8MfjNW6LTav+qQvUuXW2XMBN5RDR6/HmQ0XWhCGvJCeraH17wo+Ozc8JTFcbXFzXjgL8zqcGfl09yBdn+UIie5qd+NxO4c+RZKUcnX0JI/nqEHLR+cvt/sgJTZefizMxrbYNfTp4i2mypXBD/oCBNDO6xtwpHyUChNeUEvs7Sll41rctqFPkZTjXbE1D0HAy6dO5iBt8HGEjFd0+RrHcsOk01H0mFetRtt6eUiLYhGs1nBRC5FpWHNYfdFr8WwjubssGQ1zjlGpnD36wdgYnLdkWAurRT5VzgGbCRJaD2fvNpRlxXDErtbwYGx8Zi3AEYIHyRwhn6pGpgGNbKkR+mp9rcGsG85QW1ubv83n84FKQqyGpeSjBXk4BO0xy7fYDw/Poh2gnVZrYin5VDnSTYDB2fNhwmGu6Sj52CYDj+/5RhyDhbqddH6i3YWpDuIYrBP56Lbci2UG4iAsIx9VhUke1UMchFXkY9dnO3EvF3ESVpFPpTkP7ikhjsIaDReqypEhUGMjEMQmkY9SodOL6iHOwhLyqenIFOaciNOwgnx0Wx7GnBNxHBaQj1J5mBAcT4A4jeY3XGg63Y45J+JAmh/52GnqDhzCijiPpstHqZALEgRxHs2Wj12fDWDWiTiRJstHC/I0vnQDcSbNlY+q8iSwkS069p16Ystf2r40tdupUmE40AFyzTlCzv/UVH5+KE6fPh0M4nTAPUCPfDQtRAG9AHMvHOf9/GsT2frsX3cOQ39//7+/Ok2OebH+rgFdPkploZdAhf/dVj5hHsl71zcyh+Ah4+LFC78fwOyzBnj5JtrBrrSbv30zv7S6lFwyhWT+b082MisLK/Xvt/1h/25srBQf7vRf+PVVHuyqWIymycdyznbAi3zizF/zq4k5xmrDfxJzqwldvuLKwvdlhVEs6j+Z/ivHjmHySQjkhosq51rgjmxxn//kVnLORJJL32YWDkWxLmAms3CxP4jBD3DkY9dnPQG468sdWZpbmjOPRDL5oFhcOKx+xVr0y+xcvPoRj/rBlW+yE3Jn2/uTfDIxZxqJVV2+jeLCYWHVH/Mvk/nnR5h6ApVP3Z6cAj0uyXMmn0+YaV8y+Y9vMzX7jDCwWCzunMLZAhDlo7Qgn4Od1nx8xuzIt/qEyWcMTL6Hd66cAL1EbwJow4WqkWGgm+vP+K3ZkW919cl1VvQZwwqr/nb+4MWbXtAiH92Wp3ywh1Nzf/okuWque6v3HtQjn3HRb+dCB4Y+WPJRennYxwFf1c/vLy3V5TPPPtbuNJKNzMMr4BfqVcCUj85vTwBfUI6QH91aWp0zkYRe9T0xWL7ixsOdK36s+wDJp9LJIfgL+uP8+3OmwuQzMu2sV34b/afwpW1w5KPz8mQLAY7v45/l5xJzJpJIJJNPNhaMhfVd7pyC9p5u62B2t5OqQg7o9dk98Le/zptZ8tUj343rCwaHPnbapf830LOUpsHkK7xAI6/PTge94LPOE3+8n0+YHPlW8zceGCwfa3lmin8mSKPke6xHvsfzj/Xv2tdTaKOuMkRCDuifnThzswmR796DlYzx9q3cuQr+YdkkPLe3/rLF+E+N/zIePXr0zTeX08aHQaoKAu+AI4Pcr858mU80Q76i8VXfys4FnC/RKPkSyVu37t28+fcbN+/f37pf83DrmYjMQj0m1jw0ZFTZRNTthKfo+c++TL7/P/bOLqaNK4vjVwlk7Hw4NmCiCMqGNE1Ro3TVB3hI0aJ9iYSUEEX7EEWUDVtlxaIopGEfULdtIl5aqUq1fdi+eB7spLJlr22BcFfFAgwmSxWPkBAFhIORDWODBJVoiQpJm0bZe8ZssMNHGNszzNy5v9C0cWpBcvnP/9xzzzmXlRVBfNGYBOqLrnaRv0uXH0F8Qx2RiC2SZDwyPjE+Pj6Bwf+K8FiFWIG/PslZ+6xGBsNf+ybiZWUGP0RxP+3dnOP3rzbRIk/JxGez2SLwASJcY3wcPmy2IA9gMwQNZuWAoL1P/0x+rkXgIF/WwcpNspldAvXFAm30tnypxBe0bUoQS5EbGhJskF8zQcEFsQAfZjQX/u/akB5i9pSZ7KysQH2ZF8a4SKC9qH/pLKLIKj6BIPym4IkT4xNBHlvg4ydYfQ8z0N6//3FWG0EnOvTR5KT86mO9Q9BUJEXg2XQeUWQUXzpCJDoRgZwMJEYfP34CIajI9tnrVYT3Ea3/peJ+IlZu7F5WCueDMpdnn2skZllHQeITwP8fNw5BKBgg1h9EoDv2vW/PnSW7fTaFIux8Q6zMQDO7JM4Ho11uayRmkRcQH6hqp4AHws/j4zwW4Kdgfzu9jEg76wfik9/5+rH4YpKEnTH/6g1a4SmV84kFTiSCEIH+/POvIMCHr4w5z13XjO+tiU929dlBfHelwB99sETFJ4n4vEFbJkQicBgI8nvy5NWD4T/5nXa0p2vA4tuNbKf3a4nE53+Aj/ooynC+JBGBIMSfOP2yXWXLuY+1E3MixLwP05NkVx+M7rwLSHPOrpVHZxLFi88WXAtAf/z/CcRWYyM+fh0RPbJlg/h2x/kGf4pKZH2B1T8giqLEJxCxQUFa8BEOP7cwvv98qLHCXNKcDyZKnNJS7LKG4rKdm9ofxmbjsf4g/Nw4J/D7Sk2NoNtN57srDf7AUhGiKM75ANAfhJ+PoAI0XX//fXjuk0NadD42BdU7H60wU1a2cxOwAH/E0ee36acM31/QlO8Ruefz+6nzKdf5ADh6t/EQfT58uN4++54GxkZs4nysvID6JHQ+f3SpSGOPULWJTzC/CR7O/qDyDBKdv7x3QWvSQzri9nyC82lsFVUoPlsETh/4R4+fPBRizvde12lv0UB8g2wa6t/zFWmkKn4dFWQ7N40+IfeCUy+/fPgXzcWca4fsJO35/NT51OF8L2o/wf1w+6wWAecjK9vpj1LnU3i2M4VIJBjhH33XiDR4uTdxez7B+c5qbRnV6nxAxN7bc7P1eEON9tS3cc+n8mwnPWpQmfhstlnnQPvC0o1KrWlPR9qe724s5qflZSoSH8fNzjk9Hrdzof6i1kJP4vZ8uLD6XQ1mrdWY7QQ429ic2+m0egba+958q6ZKS3u/Xatw6ZfqnI+2FKnI+YLc4NiU1WnFeMIDcwtLDTpGQ2HLrnSy2wdxM21AomM+Kj71ZDs5ju/Btifg8bQ7R7662vw37Vjf9d3qZP8tINUYiS46Nlctzoe1F3ZbARCfNTzguRlvvnhaK6Hn7kwvA/FJted7QAcoqUV8XHAWtLcO6G+h+aJWjml3ZXpZ/6BkzheL3dZYUxhSrfiw9uasL+GZcy580KKR0Z3C0Fz51ecdlGpiNR2aq5ZsJxccm3JvEJ+1fcB6uauhEmmAQ/I7n3DIPhEN3KXj4tVD7p0vyPFz1o14PB780/QNTcQv10ymXRia2z8elcT5otE4bWNXRbaT48Yg0bkpnvBCa0stQ37e5cC4vZ+VF3u/cEWYX5IT9haablGF83G2HieIb3PzG/BcbqmoJN79rvFDHazc4MsxY4GYJCfs2tiqp6FG8Q3yaYnOjfJr97TeOMQQvpbX7gS9rNwId7L7pTjko9dCq0B8Qc4WHAuD722JZyC8MF1fc4bsR+m7l7hJ1s7Ki1R3sj+7VaOh6qQ0VJXt5Gw40em0boMHb/zu34zXIaL56yWb3OKz94PzBSS4oujWF2Q/KbdCZc4naM+6PRB6Ot2t7xNdaV37ET/Zvwvii+Xe+WKxU4iigmwnx/dYXy0+OPK72fpWdTWxOz+m6sY38jvf5NPf/LHcX5ESv4goKnA+vsdt3QlhK3Q6XCH3wL3yOj/ZYWJlBJyvN+rP/THDg0Z6zKAC8XHBnjnrDsGdDguXzxLrfTpUKLPzQSvt05xLD2pbtFKQm47KxMfxuH3WulOg0nqpkdA+FQYho6mDlRNwvqe5PuWLxp61VRK8Nd8eFWU7uUHhkEEEztD0FWLnu3zJd8iZcYECl/6fArEc7/dWP6faU4HzrR0yiMA9EppPNFYTurj/vNMh6wwlqOwE8eW2i+8Wo6M3NCg/28nxU2ERQafH6nY5HMOh+PlKIvcUuvfvyDrADIzv6dc5FV801tRGD9eV73xBDg4ZxPiex+lyWCyW0HKimchkGtN4yTspa9jp9YL4/LkrKlt90FKp09Bl3umoR3ycDSc6RWz4PB7niAOLz2cZ7kycv0hi5Fkk7+hOEN9sLovLYv6mxtMMjTlVID5xiU6P1TlicVgAx+jKdD2JTQ4nX5O1mR3El8OJudHAs6UGEpdFWeQk28mNifE9K/Y9l2UNV2i5r55E79trYmVEmBUfy1GSMxZ4duuLQ7SNSBXOB+2zYmJOIdliAdYiz6sEqu/aZ0NeVj7s3v6cDHDx340ForebanR0u4eQCrKdHA/zccUkOkcclnV8o4uJ+grSVlpfe4mTL+6EZGdvNJCLPEss0NRy8sxp4h6GSiR75xvke8IiD/gsqUDk2U1e5HnxO9tkh7dDFrwdXm//U38s5s+CaDQaW33WdOuPX1QxpC2GQslWfBwXnHWK1Z7DkoZvZTlxtRYRha6qkZ+0ywVUVf8UC2TJ6u3bt24cQogGnAipRHw9c+IqW+CQ4SV8oeeJesJ6HHRnvvxGRn6843uQDU1N8aWuOlRx+iSiJFF8tpMLjs2JOly3QqLzZXyu0eV5siJPBuVde01WTmVD3am6uho6LSIF5TsfVHRaxVaVWTbg8vmGlxMtRF2EwzB6PYPkQpeD5xZDaoOXYskq28nZ+ClRvudxu4QN32bmt5KoJ6zSjH4rUyRzPqjonBPneyOWLRnunK8ntceBQsm1+OAyIpHV1A7LVviGcaUZsf19FEouxccNzoatorSHg87twJVmzbSoiaIZMs92QrJFXOf6yPba87mgx6GGqo+iETJ3Po4PO0X6nsOyPb7R5/Fmws77KJRcZzs5rndKZPus5ZX4XLi79ko1dT6KJsjU+Tio6HSKauFzWF6Nb6YzXkfPmyiaIEPxcbzYROeIw2fZAb7u5eNETnWhUHIiPo6ziU10QkXnTnA5HO+06an1UTRAMtsp7ZxATzLZsjNcrvnu44TfIEahZOx8YqvKhE6GneIYdkwTfoMYhZJpthMnOsOiW9d3TijUebnhNM26UEgnA+eD9llRGz6hfXbn+FzPE9M1dHYWhXTEi4+zwWVEoipbLCJxrTiWihCFQjYixRfkuMhnMCdQVPuswyKS0dB0C825UAhHbLaT48bmRFW2CO2z4ll+k5CBZir9U6j0y1YXIp2PC/JT4nwPOhnEAkNdHPW1ZHwLVB1SIdVUhwgpLdsJiU7RYyMyYbRzvoWM1toLXSqkoaLi3YraisrKSpr4UojzcRw/63R6xM8JFI9v+Hn8PBELf6Fr5P7APYl/DKws5w7HcqfrnXdutrZebm7uOou2Jj9/Xx4Bj8d08vLz83UIKVB8s1ZRg+HdIk7XN21wQOqnsuargfsSc++HxdHhHDIT6uycBxLTfW+/3dZQVIM2QW84csKch3KAfn9BwT5lXImkLz9SYjzMIKWJD+YEukVXdGbMzPwSAYEng/T13ffvSUu7w5dboMzP4ggtzszMLM9Px5eaK2rPbPSIEtZemhPx7TeWlJTmK2Kp84xl9iMHGYRRVLZzcCxsFd0+mzmu7r7jyngaZoXu5JVpicXX7l6/dybrf3wpK2BxhUIhV2hl1HEz3vBy9oXJK7GXZSg+nV6vT1nbAkNZmWEfUgJ6EF+B0pyP4/DYCJGHDJasCC23Nqjf+tDJqjb3gKTy+2HUZ5EK7IKu4eFQX+L3/2o7X3Q6VX95J+z2Uj3KhGOFhamx3WGD3V6Yj5RAnrH4hfgUk+1M3vzsFFnRmTHhqZ4p92JiunrrpMveo0ePKWPBXoG+Li6x+EIWCXFhAfpCi8+XE/H4xdoqJgfOpzMX299Yj+2Y/QYTqxDxKdD5gqA90e2zWSz4mN0+EXYsdnddSB+qvKe83Lwv+Z/4b6m4QA2+yFzoapdUfGB8kuNwhEaH++JXKlGq85VnJhlzmf3EgfW1yyvYu7dAr4i1TDqfDilIfJwtOBsWfftsFgjic412T9fp0/YZhWV2U3LVGKNdJeJDZ2ouO+5LaHwjPossjI529/VdbSxCiMku4aLHznciJavBYBRyN5ICnY8Lzs65RY9sydb5cMKts60SpWI02cuS4tMbTSoRH4NQwwf3JGNgOWSRCZ9lZQUHn3XJrR8OO0F8WTsfoBTtpTmfMrKdwoUogKhq6iydbyjswluNRPNpXar47IL4AMH5lLJmr+JPbumMD+dEZMPlCg2PxOuwWCDszHzPB86nyKVTnPNBotMq6tZ1J2gve+dz4cAz0ViN1ik9UXKkIMX51HIW0RC/d18i41t0yaS7EbewlRgNdX5w9UqVEHamZzuZvM1rXvS4aCQvbaVAfNt+h8Nb9C+bUupr6a9v8kkZ/Xa1KnDSkfq5dBudT3hZAdnOYI+o/Z7HKVSVZb3ng1OnxVBX0csLoELnq250D9yThJmQLMKbmx3r7e0dw8N7fK7FzsTS+arUbKd+/95j5UZjYaHBUGg0pz0S9x8tLTTAy8Zy857DOryEx8zmwjK2uNQssAfrKR+/dEyf9pZCAz6NKDXvyV+T0gGzsdAgvFZ+dO96NQxzEF6HT3pw/bV9B4+ZS4UvxmAs3bvuzfBZ4Fe6AnOhOW/9/cLnKj96IC/pfCb8eC+ALyH59t11vsFgj9ixEVkvdjLshOds93QbQul7c6SuPZ9ARb1bGusbliPqnOud6O9nWfwx0TuFVzc0M914Ju/EC+c7ZjjxhsnE2lnWZGdNJWaQjECe+Ugxa8Lg32KL3zDkMyjfYCo24V+VFeMfZawRv3TYUGYqzE99C4DfV1byP/auILSNLE2rpap6VZK2VKVqqRBVFKUgpZuBZNlDckj3bHZ7lgYfOk2YUwhhmiGHDgu9HV/67FPDMoedw7KL3yGwyzMu1EOHaA4BO8TdQQMOBhNsg3FyiDp2oGNoyCGnOWT+/72Sq2xJdldHJWWMv7bS0qt6VUJVX33//7//f09c4ZLheJRiL+zXcOUeTV0b201odVwFdhU7N5oe748bmkae7EXrqKUQ9R3DqXquLPo7VZMxymHle8pXt2yP92e06ZbI5MiHq64nzGzhDt9IlA/Qvn29b06JSPn+bub4VC/8WzoeX5A+94KtDYpgDPh331xYDZYf3b53dSpSvlpTsAXA+VELr4tsAPVwQ9jfUTJEtmkExgwZ6BKN86myy4kT9mkUuTzZZtREWY+opGSZyHfPM3GTJWhCirrZ+zb8X0MJL4FuMitfsJp4WlfGPa3YcZmeF8oHB6RMtCJcZVLkwxG+7k6izJb51ixiFD4ff7uy/dOBVTP/DpVPzahnn6eS3DKbPnbWKWWLC1ubOwuLjNLOVjCLSwlfj5Qvq9toEFZqfq2ORHFKGY56FZhou5VaBexA3W6g8kmGrjsmNOsIuy4TQT4l6kIbeh0s0rprWShnsu6BgllwGGzS7WZIecWC9obr53K+0TD3aJI3bJ1/mZpfwT3M0KIlQD7daDLGqNdEcZYNE7Y6Vh0PbOj4TVD5KOqohVaxi3pbzaoTinZioHMnmcPHuTc65QsePb/XX1cb9/lU7ogP9rilIdKI29Qh7XI6cvp5CnkuM63Z1IVvrrVI7290IdiyHATBwga9v4iXOHj6/HFP+YjW+51JRs2DnDAfPxPFphRvc1Ul+GOrUh6aVVVFhjUKqqpp8AEVDDVJFsxxKPWsIjRjBwIQumpntb3rqoQ+XwXarbKq4k454G9VsIxIGnwN8W0kOJNpyD3ycfGu2lYtr2LGBvRvcsby02kkVD7PqikaflIV1EFXnojyodH551+y6vqofD5E++Xq2f+BxxCa7iQLb5SY8mngiNuO49iGr5BYwkStbujY7uhGLAdNRgdfVUu+oYs+Mtm7oiUMGVi2wzfUlNFLqnb5x90RsG/8wwzAN9pdXQ6A58C+NUbpVhDA20frJnMH5KVkGyYT9zve3YY0oCieDzWoZF9upxJugS75A4/ZKmvW+p+ICioZ2j48CpADHTb6KyPylskaedIjHypopRQVMNC6dOg4X9lmzM5PItqJure4MN/aTEC+FuQhjVT5cMnaP3S+ZbpCwnG+YhTtdK0qY8xkCDvbC336DRaHvjecW4K9jYLhiHYTN2m9OyZqRNi5UcdRiaqd+vWIube0ejd97iHd1ud7ChugDbq2iu9a67QD1Oq/33XTtOVQmryaNGScLxpkJ5HPhwRpZg8QzTIHEiCLR9/TwyG1QCpIn1fYI1/V8qVej7zDILAZ3zmKdu5x0fVotUAmonwPeaAz/fLZ4T4frtq3s8HCa6Xuz3AxWRxNXxW/as1jAjxGAEzqBazKVdiryWJwepv8aryPON9oQQg5uzpa7sGQTvqDfPOLlKHRGWJ1kbHFFn+3Ttn/fpDpg2wBDRRBPlataEMyXIpkgPIpDmVWnhwgnzeQfK4QPkR4Ms/vdyXQ7syRPZ8vRs9ck6fHHaZ8Qomz2gTIJ7LKknDvFh/gG6HyIVqPgWQVQsKETi8McRqCcbZRB3fZRr7ZobHoOz2Pu4Yed5QEVRIMq/I+rs1oVBNTsMM+AKsKG6zRJ/qq7z57MFLDM5gbg/DtbKCdGc1thULYwndIvu70VL85aPTI5ze5w9UHLVI+jnLP5yMFDOIc7GF4g8xOSefWbVwIaf9eaOGaOXWPfBGJ1VoVOxyR4eJXKatNhnzJymc3w/LZ0fp8c2sdxr6+LB5e+5SPMrDfNa4peDkZC5+yWizjgeCGRhiE5uSz6wWJYB/JNSPpOy1LnG3wIqqPCpmCsXH+2r0Run1LT8EWTB8LHUpvtYO9AqMupfBcDFD57rNu+70pbZ9xrWZKlhk+B8sOpVWjIJGfq3xIV1qX+8WLOnilIwiRpG7s0IUGo3zoPP5lVE0oHwnJZ5VI/LCerx2hfEjpijb+aCdmlSWKtczz8tlRK98Wo2z97ief8mzefbmdtJfhQgCux5gl9c92p1rQP6v1lA99R0D47PQYbOpL7SWq4bHRP+8IUS/c+DEpxSY5zIAIgHxsc3UPQZfRzk4glI92n25fDyNW+ULWx4i90/AoFcqnWhjLr9puLVeWtaN9PuElHoiBIIcZvU+bet0v5GU1ctkwECnJApKGEZdeV00uZ/1a3bXsRpXuU75SzGyFOE72COUj2QYFSo9d+R4mWYwIEeneKH2+zXVGN7Ze//S7M6HymeWBVQ2lBmNOmQxw7j0hiaHPZ2kRyyoe7Qx8rPkeN0hHj9Pv3RyV9M2gez0GANnYYoQ1oNwGkA+U7/F9s7u7/Z/8OZZz7Sp3lnkyS88DKOrwCeE1dDebJ0cqH7DS678iNYcCTOCxY1VykuBfEWhhWxH0KgvJR8p1vekJ793Ejjkt0698+LhuZAk5XPlyWLSojTva+fD7NRxkSAAsXR+18qF/T2kX5o+/ygVNKB/pz+1EhQMZIwOIZDJWJ6Hy7fflchjX1sigQBqQTyUpzKZ07rcjyvFcWg3a4xC+ue4GpSzCt5TS9c1Q+e53n55Fp0+po0EP5Gg4tq43zFD5CCkBDXr5W6Zek0N5GaJ8KIm02ic0RM0aNj8BomrktNA9BDAT6S7+o4x31XyHn7LabMCXseF9jgzw+TQXvkROPVT5CEE9HbPyoe7htBGJjE4RbBmtzxcsMEoXV4Pg9vS186h8w+v5XI+ZNXWgipl1frlIfj/5iNJgpq4NsA9zzZSUj2hTP+6Ohnyge2NBd+Nbxjb2/uswDLi0w2hn9x5yjyD3mgaEq7K5slLi0U7SmxXQB+uvUeVE4RalELiDykeHKx9CK+LIbVPkgTk8qInk86oAryrgebQmiVEjSnVMt8kVSnK9uk/5ypFJ5JqgfEf4fIQr39jJ990CBDqTAHVv5Mq306G8tggmEuQzSoho58CqhtC87EOWKx/h5sgB8mE5qC71dxHkk0gq9Q132qMwPHdfzY4Hc12g28LWztaWeOHfDozzBaB8jHXvwCNRLTiMNbisEYBseah8ETSl4Fd4Algzqx4a7cTIvjdQaAjPnfDrIhKtQAOanZaf9X188X/f8TFxRbZMer9e0lSVIHi0U5wqUr7I5yNHKd/4fT4xR2cK5bNJlG9rZ2cLswoXApDAV/dgvVrSp3wx8tW8fda5puSL2RqmFDLGhigfsRlzpJgsyflijvcxU1E+xJkPb9x78wGHB7vLc7PjwQJjtBUEMIcLfy3DCy+1UL4/fHiBU8bkd2icfCTOHKQOz2J2pXgle5/yiWindMhQqeLblIJgkUxeRDsJNscDZjmHMSsfeyZz5RsY7WRVXyPJlC/9aKcon21tJll1HQgyWuWjjIOuiSlK5mDxhjN9lexaTOFiQRLZd/VGs8o4BPn6lA8bbDMin5R1dafpAe3QtEpL+QhRP73aenOjc2Vc5etzkF3GdjCdrN3GVzt0NdsBkO/7/5IxndOtxtJASDTIfmDyKwcTwHrK1ywO8Pm40BxRHe8Ky5QoNg4Jct7FQ9zEb8a1Sj2gfDHywRZW0946nw8DnYl07xsIdI46pUlQj9JuIPJcnsLMWYdEO7VsFcknLrPtsR6q3kHli90POmOOLN7nUO0EqFdlaSkfnvXys/k3lb7leFJn+jUN3QApx1/4x9HefXyfuZLIwYoXpiuGGSlfDLJNkWIIJF9hgM+Hcsbg3XCIkXvUIk2nIGT92/nYORmmfHlCYkN4KGrJlC/9aOfDH7Y2E3EPJ4YftfKxjc7GOqP42BXL1T658f4h0U6S7ZhhKksNueM5uuG6EAKooM+n9vt8CFQ+ObwSoo8FfSrZSmo+H+LM5ek38/uWno6Pe8GtRQYhr765dB+9uieqGkSGcjOKZCgDlY8X8oWeHYnSThBRVQPRYB+7oB5OPmaCFhFVDBUMIp9Z045WPlJuUCDjkcrHxunzfScWI0q48vNouYc5TJ0tGDmE/1NRwRLMPZ++eG54tJNgIpCriYRZ4FhWkTRCVEL8PV8wUr4QQvnEjQF99GxeEiPwYbQzNVyank/AtRRmyU1qhWAdQwQxk8v0d56oaiB1j9EoE102TDZI+XLC7BTFt5jdMKiqwfXoEZOB1qsiYZTw8SCZ9JFzv6BVhma4yLrHPF97u6KdSRcjuhXp3mijnWDmtNYZ4xEXwIvbd/4B5S7y+QYHXFDqLJmEENFONebzqQOUDxlq57We155itBOhnpm68gbFfTN9geWUS4rYt4s7wYEl3G5fucwr2YWQUeZGvjP+qooIJ0e/NVEMT9iLPd5I/dFOjDNT2jhQCaFJJBaIxqODlBGiQK9mRRrE8b1iBbVsiCwmQb6Onj+Q9mlntbfJ5+OBzvlkuhdhtBkuQbDVoTTM8nz68qdrh4zz1cOhBgIbmK+RkEiR8pHhypdxee427CLaU1Y+ZN+Pq7+YfTi8PkasLlL27Xp3a74FmN/c2VqYh0raK1MfNWhYz1dwTOBhSZLkku9ajseAZXnuDPJpkwr5fDlb16HZKZKQbVgPVlQgJS0r7VM+yTCx5q6eK8O2Wr2OrQWDT5tUzOeLNdcxUT95kBOdg6ZVKSqKAptyfuUdSQgvpVZOluR8tm7gfDDMKmh7g+wkFmTF0IBjVAqlUsGv1WvyxKOdYtX1lBYjSp7hEqxRytY4vR+93P4KyVfWBkY78RHnY0xbx4KgmF8d+XyloT6f5TEvp6U/zhet0nPqy5lfyL3d8XIPS/gYA/oBHsNrg9EtsDkvadKe8kEEklIT00mcXj6LZ1ckIjuY9dJ0HNEeJa9gB+ZBc6OpK5HPJ5QN+rBqw3GcZpU2ikTELz1owSaeu5YTl1PGS25WHRvgwKFCo9ZvwD4N+DJ2w6OiRqzhKj2zc597iHvSqoOdParnJ618Dzt/Xkjk8CWaNiJ5VUNwa53S+6KkZe72WSBfZ7DyKbqoRCCybsZjb3GfrzRE+Qix+HFTz3CJQNRTNwdZnm9J9fp+IPsojsAI0K1X9y5rRKzVEM2mImqRqafXdZPyyqC8TbE5RNycLPJdAB2nREikfCLsHHVq5gghNU45AcxSy2mEhJZsk8VhKLy5jpwSMJ264VGKgZae8sUvQs2JnUsvk4lGO9NfjCj57GWYYLY+3+aTlU//scq84sBoZ5YxEWOT9O/xmkUbvjcj5Rvi8xGLMS8bV75OqsqHUJNantF6YOPGXGthcR2CzxsboHyLf11bvTl1Gh9/ut6jk1zRG80maBwYjFImX4dPcMtKNdeyQa4ADUevl2IeYNmwG9UqNFt5IJFr6b07nBClZjkN3sXRjbJKSLli6CiS2GZbNZmQvVRZ37BFO6irZfS+jW854pSur6gSHM7j1Maz7I/C4jcNz2WLbVrF0t18NCxUNCzdH1c93w/dzVaaGZ3JK9mDRcbYGlfB19tfdwb7fCh8QqyEzxcb6Pk5Ph8vSKpEavnvTXRn0l7B4dSX84nnsV5amZsdO9pzs6utzZ2dTVgsZ7X16Pn0KZEQpGpRSF8uF3KFshI2SOVCXuP7SApsyBWKuCUOooC/B56dpBKcYiM6EoFPvE+5JMNGXmCZ0eQ8NIkTEELiqWuivaRIEola8wU8JXYXn4paeJa+bHlJKWL/vCwJPY2+CoLg3FBqZjzk+64LfEo6bUSqyodFRZR1tvDd8vOvPTporQatoJsiDhpGXnRFbCByzkB7RDtinA9DpXbvaHLBwENIJHX23VxKyr3BDvaYGNgO2mB+LG9fHjSbHAEM+EB66N89BL4fsina0n+QeHu0ddDu0RkOPUJmEERz+uTDzJbuVrJpI1pJdS95JXtY2dDiE5mtmWh29pSPuRWcKrJSt5osFD6ecctox/LL5YJfcW109JnnlrVDlS9vQx+9VhR9RC2YW9QyKWNqOpnlOdMKgtnJAbjH45waSXifDuZN5rAOiJ91dLHnm3FkMPfGu0rRwx92QPaSzhOYtvIFEOuGyjE+uoTki5SPokttmjF3WzjcyB2z2ayaGCMwOZWavnbYOB+pmIz3aXqM9fpUK2lbntqlL4MkWda74GBPEu1HL7anLx2DtbrfCsSU7zssn006yJBaVkUnmrczCHY6wMUdaH4E7T3yWSaLw4k8dtnlDPqeAap6peYwAJb6lYeO8xGtXmW9Tib0scN87JTZRy5d2UxgdD4Cs2+SgJqGKyfcSyHaiYHOVqJRhpQcPsTC2lo3onYAH9f4TK0L3T+6eUGJmmHpNgbBMFKF09xG/oHmW3aj0YDmSlGCICeGtHzYqriGUYlXNdQNoxdX0bIG9nF0q1KQCVEqEHKraZm0QaZu3H3wc7kXTJZ77eXd7WfnMycYvfIlXXV9fj5FGwiKxgDRx7k5+IjNL987TXpxKE2TFfDsymWkI9kXyiAKtItMTd6SL6MuHuYbEBL2yRABLV9WSOrcI+rFq/dEzPNo3ZubJPfasyuvnlz9UD3RvdGTDxcjSiJ7opJhXAjwD2+A13c/O39ooOvAxtgnTsvhiMXexrdMOJ7s0xurSz+Le3dnJ4d2sNy+e/s/Pn1r1m8+BhDkCwOdYHMmKZ8F7o0fK8+fXd5HGHwNc6gSu2CTwfk72zNHhl2WltsTDHRiqOXuszsnNmca0U5cdT2JzSkGGSaA4PnNKfVYPXyJql28/NvVw3PNHuxO0uZEk/Pl9tlLF7UTmzMF5cPy2VYK2dQpxNuWr356OnOcABKtXbjemnmL45wBLIZ5/ULmJM6ZSrTzh6TZ1MHcZMjXXln56eMzmeMGon3x5BDLc2l5smHOlafPPjvhXTrKh4sR3UqW0TmxJKdHr598duzIBzf2ud8/uTvM9NydpO5BUsvL7WfXLpAT2UuBfHwxooTTRkzO919e3r5+LM2fCx9f//XMkMmpJ+nuwYQR/3j94wvH8BefNNDshMWIkg4yBBPMcmo///LcsbwTSGbqysyDQTbnRHPKXtx9cjlzMsKQEvkeYjZ1CquupxZ4u/e7i5ljBwJ/709d3f6/Bw/enjhne+X18yc3Lp85IV865GN/+gEH+BKWz04QczBz/DEkn0i0/vyL38zMPHhb4pwQ5Pyn9z75PHOClMj3p87CrUTCN4+Bzknixe1nlzLHEpjUdvr6zTj5luYmGGpZfrH9ybELbr09ePcvj9cS6d5mC0vXJ4kguLt9KnNMQSDw8vtnEPaMFsCcDPnaPMj507X3T8zNFMnXXWglm6MzmJ007rZ/dSzjnWGm9fl3z/53sITJ1ktLKxOiHk6Kuz391bvnT5y9FMl355ulRPPCT1r3eD37q19lji9IRiMXn6DjN9MCAZoM+4JXKzefXcxoJ9z7pYXxH/2zSo4k38zSN0lWfp4499AVeT197Xi7ImfOfXB2e2ZmMrGW9uyL3ddPvvrg3PH+jVNkXuajf/nN//+rSsjIlA8BDt9bgEewZsqFzDEGAZz/4sqTe69WxuzzocG58ur59pMvzpO/sXc+rYlkaxg/paV1KnoRmmzcSS+cVChvIEXAimI0arQJSeOQTQh9Ey7Z9OIm+Qr3A8xqdr09EEZuL4K9cROY1YVAb9zNwoWgI0wGAllkPXPeY+kpJWnTiYn15/zsbkiQtpPO4/M87zmnCntrA/urALUB58oaISSjYmW68z1+Zxk7wjd/6ue9gyXkbbCaOjzdP79rwSHi14O+WuvufP/0MPX9B7JwzlD9nVJBeRlDJ4Auq6C+WTmfIwof47x/lvTqxGUEXluvNW56nT+vX8v8YAPDn53eTaO2voaU7/6529RIMYN8Kz8FvgWFCrEwQvJ08f36++dHFz5H+B5wsfLO64VEger3/v1Ju92/aH19DfejnnfRb7dPPrAjW8r3ak8uEkK0nE/DKphevqiREflwSJ6Z833+7BTfo1w3b94jz6MgjNcOTw9Wrui7Xv2lpffp/La+cnB6uP7EE8EGYRgy9p/5KZC5NWJDi8E1sKc636+PvkanY7T3qdNs/MMn/8Pr60tLO93Lu079ZbXXue51d5aW1teVJ2lPzmlkgJnxnfkpqGCScfbeLDzC+f77+2Pvuu6Y0Emv5HLR/TfyAwoCsrs/7bd7/VuYfX6Zdc+D+eYtnW8e/LSbfeqlbBSVi49oeZ+pT8FqRifjrFLnU9WZrPOB9j45iFaz7dHtnfcKUMFo8fTgbOWi2axf1Wd9WY5m82Ll7OB0EasKUp760yeHIxUypLzpp+gJfTc0qb7gm3Bo2sDlP7TzuWiRYUTz8p9+OlmtoFQqhXZv2pd/dWY6fKl/7dBDQze7Smo99Zy3friCaqRKhuh55B/zg7ee0EJkTH2VSCwsqxjPYp3PMYsMgHWfTOQ71jZ23y73aP686ly36pAYnxw1YbZ53YHV9N7y292N551OhsrHbuGV1v1ofsz3F6IBk3Cq0QUQH3p+54NdZc7iy9Xd/tYa8hfM6vHRx+OzlX6z2Ty/arXqT1xTaF2d07DZXzk7/njEW97znC8WCUqJCvFf8xt89dG0RjgJmLcg/IjO56pBJ+NLq9Nu+E18A1JqEn1odNuXzbtOp/W0xtzp3DUv293GB5RMKTN7738TDEpSlYwo+sT82FcfKxAbOqROjPHz93Z+/sVp2qPO12mf+vHyyYqVP2u15Z8Pum0aQfu3nQ6kUIihDwMbx1pf6TNv+/1er31z8PPbWm1jbUa3f4TcCckrEghIadPW/FQ/mB/rfHlipxSFyjf9PB91vm/zGxzhqzuMVqf30Z/ON1AgxghtHB6dHB//cNbvN+HRvGo9DB1pwpP6/ZUfjo93jrY2BqKblTQwBvXFaPIMSFKJjKhkfGB+ID6DjJGO0tQ5zfjwYuN/9OrT3+ZL04Hc9g7eIb+TTKoqzjYa3e7+fo9G8euHgJi5327//6aRRaqaTCZTCGE0QzBWZTp0iUVBfekfyQgj5HX5wZbOIrHY3iMULcIWGqYfpv3jlz++zaUz6e0L8QE4lc3+q1arvcudNLo33W633W1z6EeUm8ZJrvaOPimbXUcvBEayDHOHSfPTPT54GVth35PiVZAgVL7p4stuLC+/dSneumPDU1EUy3lwdmtra/GIsjPk5GiHfrhIP59FWEUvCkZYptGTyg/mLmmdjChmPFz9qPbyhGsvISWqGll9w1Ln9PKguvf74t5/+YuBp3zuBcEI5BeKDcwvUSIcw6tzT7jaXJkMqUqMVRKMQurESOAvFDQ/YOxizV3A/CpkhFZIelF+cGrdJBbaqiQFgkCCzTqF9gSvCUYY25rfqk5G6AXVa/JTFKzyc0Q/pqn0ItFoNBKJQuoUxid4XUB8GNTHmt949tTziqfkp2CcMcmQ7YQUiERjQDS2EJZF6hTMA5mbXyJuEo6Zw56RH7M9Yq97Qaq9cCgUBmQhPsE8gLGnZX5W9uQUcx4Jn7ztAfogcsZCIZlC/xShUzAfePODJXc2e+cU8x5wP1hXL2s8csZBe7EwiI4+ZOF7gjnBx57DwUu8pBGOmUfulh8kzoJGbFPOQAAiZ5gZHvxCQnuCuYHRePaM7xEbpqvdjydOm+1FB75HQfAQ2hPMCW5+kD0t+VXG5OfahQe+k9O2uEennCA9ITqBM8Bs7hmysidst94mNjQjg913FxZFUTcNjYyoxGHKybQnhiwCB4ExkvFIftJAfm4efYLrGYSjD2xvMOVEAoGzsOaeI/lVyHj6dNGmT+Z6hKOVEnzSIosZi8Bh4FH1e8D9tHLOHbNPRcEZg9jYjlu2Fxa2J3AmVvUbyi8wdD+OXth0evtj9/0qEhtmWgpIwaHtYWF7AkeCrZN+3P3iexoZo5h3cvtT4MyeScbKXkKSgtz2xJRT4FQwwpb7RS33k6rmhP0ZGWeu/SmUTUOflN5wbU/YnsDpYMp4+ITy53z9MdMrk/ulx4acWNiewOFgZBu9REF+fNeZXX857Jz+x+8zOyE9VvaE7QlcA8hP5vJj5U9a5fbH9ac6QH8QN3GyUCFjmEPXY4lTtD2Ba8Bo2P1s5S9e1ckEWjk/5/knvPhmoThhzNtpSRrNWaj2xP5pgYvg4dNuf+k9jUxSKeTQfASosLRpeR5HK8WlkeuB7WGROAUug637DWYv3P4SqxWNTKKX85lXbIBceTnDJBPo1QSTHnM9UfYEbgVjNCx/MPu07C/O9TcmwAIIkPJalgdhcwJtLy2Nux4SZU/gUjD8lkcL78z+mP9tk3vQioXc5ssqUBkIL1/WCcc+ZIGqFxl1PZE4BS4Gc/tj+gta8ZPqTyP3oRcNFkKBF9DdZs4o6ve9bClumR4sLjDpibOyAtfD7G8kP5v+0ns6uR+tUp6hCSoAxslcoWyS+zBLg7gJedNa1xNzFoE34PYXsukPiFdNboAPmCBWLJ6kOpCdmslzv5vErMYTA+UFo6zqMeWJrifwDBhZw0/QH+9/rACWdPIwWqVYNvL5zCZT4TQdKjYwxpuZfMEomuQhtO3VuAQEoOnFWN5k0hOuJ/AS4/Y3NECJEU/vfcMBtaERFg0jn2MyZCgTYEDOZHK5fKFglIv8r3wwbFqex+Lm0PTEkrrAg2CmQRkIW/4HBmg5YLrEZjDT0XRdN4sV+vi7vbtpTRyKAjCs8UYOE0GYXXbdDmQVN8lyaAYDbv2H80fnnOO5XgwUWqZCad4nMfYDuvLlXJOqr3/c6ffppLG9njv9A+/STb1291CeDz3eHAnflj+0JcX5F59/h108AzRtP1+6v0/162zhLcqL6+k81cO3JmI3y68E2ESAYZhtFfoE47Vvt8HDu5enhKGHFZDy0gfvrwRYCmz76ROH4HiZvbuX+8SzkeerTWYe1kZ8CKaHUzCHprECI0G/FjhP1/P4HxF2Z81ueNHqXFXC8/KSEU6yYGVuj/h0X4H6ElQ1iyFo5bRD378/w64bx8t16od260p3sdSMU5vMPKyY6K5iAHqBMQMjwW1p0G+e4WzbZC5X3S6jtXad5r4fhra95RrKuIuBFxPP8VknWLf4vJ+kSoFlCKpqV5UKS4vL75fRVTHsvLqYd8e6jvD4oBPARASxBtU8IkF1MI3amepmm7ei8tqC9moazc54dvt9Dk+0vA3nNoFMIgeRVJah6hgR3jPcvanRXR3C0e2NZ1cuKLDWBJYiDZNcnWq1zxW6g+62LdkPfx6zvatVyvNONqw1AfW2KMQL1P0hw3D0gxf5I1aVWe3rS7vl6jw32fD/0sAHhqAHo3sS3TLrqlZxsD1/defZWmy+8+o84KPkcRNJty1SlDjEnTXquRo7cv0c+LQOy52RXJiK3/nIJDrgKURKYRs/MuIAAAAAAAAAAAAAAAAAAAAAAAAAAAAAAACAL+gfG5RZZY6GbCkAAAAASUVORK5CYII=;" parent="1" vertex="1">
                    <mxGeometry x="880" y="97" width="97.26" height="70" as="geometry"/>
                </mxCell>
                <mxCell id="39" value="" style="shape=image;verticalLabelPosition=bottom;labelBackgroundColor=default;verticalAlign=top;aspect=fixed;imageAspect=0;image=data:image/png,iVBORw0KGgoAAAANSUhEUgAAATYAAACiCAMAAAD84hF6AAAAulBMVEX///8jHyAAAAAAs+saFRYSCw0fGhsbFxgHAAALAAP19vZgXl47ODmxsLGPjo6op6ft7OxPTE0/PT1cw++Eg4MwuO0Arurz8/MWERLW1tYuKyzl5eXKysoQCAri4uJ1dHRGREW/v780MTJtbGyYl5dmZGROS0zOzs5WVFW1tLWhoKGLiYoAufbe8fju9/qAf4BpnLTB5vUESFwkEgsUep604PVCveyF0PCb2PJWdYQXCgAfPEgAo9dxxOjdY05XAAALZklEQVR4nO2da3ejOBKGLUUSF9+w24kBB1/j+DbT3tnd6Z7Z3f7/f2urILbBIGG7OQEaPR/6dOIyR7wRUqlUKlqtUvH8zqTcFtSRBRXWqOxG1I49JSR4K7sVdWMEqhFzV3YzasYKVSP0tex21Ap7axLBloTqKeEOxh1OBPXmgo7LbkqNmAhGGJm0DOGX3ZQasbEMwofj1oQa72W3pT6Au0bMLfxnQ9m67MbUhj5MoXSG/+uavFd2a+pCD1WL1Dpwq19ya+rCDFX7EKvNtNt2G+iunbUaCrHs/ARDr9R7+TTGQ05YMD39ZBEifga+LfVuPouJz4i7dM4/d6j5MAYuaBsRPvG4QayBffmF032Y3dogbFjevXwe6K7Rovy0qUtE4OTb1Z7QXSvqqRob8CfYFHSxKvOGqu2Lutq7W+DFKgy4a4Iuirra0STBqqiLVZi2SQxamJfVpY2YDsbzgLh+YQFJD3qu0YDpYM6JMSgsHtmY6QA8D17cDtWanxe1vzav6LHNirrawCruWtXGcw1itgu62KTdiDUVMiGM8LnebrkX3KoqcDJtDltw3ayGBMiKpNiFQnM4xOLhERNv0T/849uzim9/lNXeqnAdBFlTSs1//vak5uX38lpcDcKQ23kN7mDyzL/+naPa08ufZTa5EmxAt3OA1yawerB0b7uBKYttJ8wN/rYfSce2b7qznUEHjvHIEVm5ypn1e6ja989pV9Wxt9Zpq/QtUO3K//WCqn35rHZVnhU6cF34z87kB6nVH6ja0/PnNavyjD7SQDxFxtHvoWpPXz+zXVVnHyUdOaYxl1h8jVTTk2iCHaa4tVu+NJsynEVfGr9AuAYjl3w7lOXufglV++uTG1UDpgYjuCkwzfrwx4t2PSQ4S1d2LkG7HgrsQUCI2U1/ELke3z6/RTVhTUmQTt7VrkceI5p+SL/q9XsuXnpGeNauxwN8edGux/18167HA2jX4xF01OMR5K7HQm+wSpG7HivaiJTTx5BHPeYGofKAZrNRRD3ajMQ2CjUxVK7HiMOq32rGUaH7ULoefYswQfiwAQm796F2PRaUzZbR8XpNjJyoh0fdmb3kxDC1IxIjL+oR1SIIN1h1pteFvKiHHVW+mKUyvRpNftRjKShOB7Fz9poboh7bj6NHl6oOjSd0PZ7UUY+R+1F661xDpOlErsfTszS/7fnvVW9tnAq9eSyqWNN0cpICkf9wg7intZXjuzpV/+Sxqfjtv4IQd3D6hj0PiMGb7sA95+r2P5NSasQctrVO1W99/fFFzY9993WaHMzCTK+MjWmNmjDTS1cDvZtdoWctm8MmEMWdtWwQU8FI8G7nG/4SeJ1tQbcanbVsRuTS4ay4obwNDpyVmVf4qzFnpECPq22Q4FjY1arLzCJmcfPfzm1G/A3cLbe4krHFlk2qLhtYFJHCghfHhiyxHA4uamFL8Daq1oTiM0NW3EISwyCMNWEWXQXELGramxCX8E4TfDaYDoyiFkOeZRCrKLe50rzCtOceew+zj4lUaJXLamMKArrxh4mFOwqtcllxqMt+AkHcc+86NMRdC1m0f4L1UJxr3eM7ZKh+8c5NHE/7pK2BFStKrlHzbkSeLe72MdEEd60Q/CgHBA+hxouSa5TYMCeAA/IK03FzAro/T5Tf1m2Ou1YMmE0ZxYmaEJQsjB3l+5HeGr2XvUV8rjfi7yU8l6DdtXvBUzA6yehu5qIxO6JFsnStuXbX7ua1o7NkNBqNRqPRVI3pTB9gewA3aMoOYJE4lOh3ht8PyjbIN9Mk0bI9hJbtIbRsD6Flewgt20No2R6ihrLZajK/472tlialxuC4u2WHwNuH5kxqrpZtsqhcQH0XUFMFfU+dQ3B6Pg0YJlcSw6W0nXO0YPwG5u6HuUm3WeZK2V4plb1eoDSIQdSk8h57NAANBOOch2IwOlft5PUsK7S6mA/T5irZ8B1RxZ2GKIg1taS4oWzJ3uH5JmgWUNIe9UarJTyo0Ink9XdO5gLMD2iOG6bpeosK2TxQza3e+627+76MA+h2dRIBk4aISd5OiX3Obou/oZLMezzaTSzSO5mPP8yvy87IZYtUq9zYpgI3hZM3g5UBjKvHdrMMCAky6+9gSri4SpfZDC0wv9JIKtvUhDZ0aqXalhPDT7S4i2cTlqmCMVhfzMoo2LlDcz+VcRqaJ9PcZLJNXNzOr5VqeACPJyTy4H551t1lp8yjuTvPMO+lzCWyTTiotqyVauGZi+QBPCIIm2carzAL67oXLsE8+/mawWOdeIlMtmyOMEC1WlWRek3XhTnAoGRKbsKPn9eI6MEcGkic4Q4oGh8NM2VzwDli9VINh+Kr6P6EpryRC6HKCefKUZ3a2Fx15SzZxj4jzK+VamN4HoOr3nPkyR6SpM0upcZCRmAuXy+Befw9dhmyjZe1U601dwm7cjHHqf6UIOxusZu000NjHJwu6OUJTstmd6AJNUuJm1ng2V81uWuqN5dgdDNjz+TOJKKjMIfRLfaup7RsQxdGtnqp9pbVsbYs851WZ3o88ZTCU6h6d2nrLSDssrRIyTbntVNtlzmYJ5+qNPiUmuefbJbhkcTBIg/i/NO1bIP6qeZlnh+A34ql6mvh2De53Tzh6V3JhuuTmpUfH4NnHqRXSn2TuOpEUiM+B8BI6KrfjzAUMXcmKVs7uF6fVJ8hy1wRwdAVqE8cb43Y4AdDV6A+8dKOj5UJ2dowIdWtUuo6yC4sM3Oht0lDTEB3IIh1FvaYa74VMWHjsq1gdWHUrKBxuCjPOiW7hjHelUc0rTCGe9EBzVme+eV91zHZZiYGR61aZZZ3pQsoPMeSyyWssb7JPKO3zWAuCWpWaGsjr5kQ6mCocS+P1uom83N45CzbCFSzpqtA8r7YSoJBQVk5Hhjbgv7tm4MwtsEMcrP5SbYDquaF85LgNfHb7KVBXNlYjDPpHXmiMJPyO15s9SFbD4ts4fLECTBWd/v3y2QAy0BpKBUcMXbHeW1YabA7CiJFsp1Vi4YLXovz4UdYfAdSd8lLLIZymWJA/HZzkE1s+/DP+RU7/Zqcdd6rIz0tddwohbhrTxhjmoSf+xqCjkj1awku8oqjw1Sa4/cnWLn3DG6hbAnVwjFD8tb66oAPlfrlhDBaiTtSMfDPYN1sHcqWVC2MMIfVQ6qLLdJB8GsTJu4qEYAlw292WR2aUu1jw7DSq6x3N3++78EKm9x+yTeYYcStfQVlY6mBdZf7CJTLChQx8nY7bIwo3V79xAbfmd+6spRsLx/SA+5kUZniqZlB8DR9ZeG1qW8lP+sqJ5lpJ/6Z7BRMmydbNpkPR2tejWoiO9UGaJytK18qbrghaPJX4T1Lruu5TNDLIyzLAbF9mBbY+GK2gCWZ/V6FUoPZQfAsxoaQ9bc+Ta+GbEw5zO5vmO/FYkFzacYR7mmzcz9c7br+2nxt0fLnVwfGoKx0oSymGCWjs1SjJ1u8u9SeyYRmmzttNDdiKxJ5fhvu7JyDb0ar32vtZ61e+TUah+yOWCo8W+jN9xNKTEeYIxlkvCltytCcJc0nIwoPe7JWsSKbMlavfbxs9f3O3Gn1S191tQP4w89GChKOurO0wMMy2XER3bXt9bcUCxhlv5DaGZqh+Sxlvk5IqcrdDYNv0fQpoLc5dNw6lr3oWoSrGqaol2td+Wph1yIupdzvLBmlFuZMB4HssTlg10Lz4MMcv82vRzzleVIMvkULjuO+e2j1VjaVmX4WMJTnwK7HX69NeZguDx+GsW3DtEbyMXq6Tpmbo+vneUwVaTkOjKjR4tQ2UO6pX3Zngz9gZ5hDuh95I0JNjr1MuAGl7321pzxNms/3GeZHqnCBPHrKkbZXYttZ1iZcnmLa7bUJ8bej/estuVTTXa/tK80d1WXsy6RrT4uIlf8fQQvVF1qFG4sAAAAASUVORK5CYII=;" parent="1" vertex="1">
                    <mxGeometry x="880" y="177" width="114.82" height="60" as="geometry"/>
                </mxCell>
                <mxCell id="54" style="edgeStyle=none;html=1;exitX=0.25;exitY=1;exitDx=0;exitDy=0;entryX=0.5;entryY=0;entryDx=0;entryDy=0;" parent="1" source="47" target="52" edge="1">
                    <mxGeometry relative="1" as="geometry"/>
                </mxCell>
                <mxCell id="55" style="edgeStyle=none;html=1;exitX=0.75;exitY=1;exitDx=0;exitDy=0;entryX=0.5;entryY=0;entryDx=0;entryDy=0;" parent="1" source="47" target="53" edge="1">
                    <mxGeometry relative="1" as="geometry"/>
                </mxCell>
                <mxCell id="47" value="" style="image;html=1;image=img/lib/clip_art/networking/Switch_128x128.png" parent="1" vertex="1">
                    <mxGeometry x="90" y="320" width="80" height="80" as="geometry"/>
                </mxCell>
                <mxCell id="58" style="edgeStyle=none;html=1;exitX=0.25;exitY=1;exitDx=0;exitDy=0;entryX=0.5;entryY=0;entryDx=0;entryDy=0;" parent="1" source="48" target="56" edge="1">
                    <mxGeometry relative="1" as="geometry"/>
                </mxCell>
                <mxCell id="59" style="edgeStyle=none;html=1;exitX=1;exitY=1;exitDx=0;exitDy=0;entryX=0.5;entryY=0;entryDx=0;entryDy=0;" parent="1" source="48" target="57" edge="1">
                    <mxGeometry relative="1" as="geometry"/>
                </mxCell>
                <mxCell id="48" value="" style="image;html=1;image=img/lib/clip_art/networking/Switch_128x128.png" parent="1" vertex="1">
                    <mxGeometry x="374" y="330" width="80" height="80" as="geometry"/>
                </mxCell>
                <mxCell id="62" style="edgeStyle=none;html=1;exitX=0.5;exitY=1;exitDx=0;exitDy=0;entryX=0.44;entryY=-0.01;entryDx=0;entryDy=0;entryPerimeter=0;" parent="1" source="49" target="60" edge="1">
                    <mxGeometry relative="1" as="geometry"/>
                </mxCell>
                <mxCell id="63" style="edgeStyle=none;html=1;exitX=0.75;exitY=1;exitDx=0;exitDy=0;entryX=0.5;entryY=0;entryDx=0;entryDy=0;" parent="1" source="49" target="61" edge="1">
                    <mxGeometry relative="1" as="geometry"/>
                </mxCell>
                <mxCell id="49" value="" style="image;html=1;image=img/lib/clip_art/networking/Switch_128x128.png" parent="1" vertex="1">
                    <mxGeometry x="610" y="330" width="80" height="80" as="geometry"/>
                </mxCell>
                <mxCell id="66" style="edgeStyle=none;html=1;exitX=0.5;exitY=1;exitDx=0;exitDy=0;" parent="1" source="50" target="64" edge="1">
                    <mxGeometry relative="1" as="geometry"/>
                </mxCell>
                <mxCell id="67" style="edgeStyle=none;html=1;exitX=0.75;exitY=1;exitDx=0;exitDy=0;entryX=0.5;entryY=0;entryDx=0;entryDy=0;" parent="1" source="50" target="65" edge="1">
                    <mxGeometry relative="1" as="geometry"/>
                </mxCell>
                <mxCell id="50" value="" style="image;html=1;image=img/lib/clip_art/networking/Switch_128x128.png" parent="1" vertex="1">
                    <mxGeometry x="820" y="320" width="80" height="80" as="geometry"/>
                </mxCell>
                <mxCell id="52" value="" style="image;html=1;image=img/lib/clip_art/computers/Server_Rack_Empty_128x128.png" parent="1" vertex="1">
                    <mxGeometry x="40" y="440" width="80" height="80" as="geometry"/>
                </mxCell>
                <mxCell id="53" value="" style="image;html=1;image=img/lib/clip_art/computers/Server_Rack_Empty_128x128.png" parent="1" vertex="1">
                    <mxGeometry x="170" y="450" width="80" height="80" as="geometry"/>
                </mxCell>
                <mxCell id="56" value="" style="image;html=1;image=img/lib/clip_art/computers/Server_Rack_Empty_128x128.png" parent="1" vertex="1">
                    <mxGeometry x="340" y="450" width="80" height="80" as="geometry"/>
                </mxCell>
                <mxCell id="57" value="" style="image;html=1;image=img/lib/clip_art/computers/Server_Rack_Empty_128x128.png" parent="1" vertex="1">
                    <mxGeometry x="454" y="450" width="80" height="80" as="geometry"/>
                </mxCell>
                <mxCell id="60" value="" style="image;html=1;image=img/lib/clip_art/computers/Server_Rack_Empty_128x128.png" parent="1" vertex="1">
                    <mxGeometry x="590" y="450" width="80" height="80" as="geometry"/>
                </mxCell>
                <mxCell id="61" value="" style="image;html=1;image=img/lib/clip_art/computers/Server_Rack_Empty_128x128.png" parent="1" vertex="1">
                    <mxGeometry x="704" y="450" width="80" height="80" as="geometry"/>
                </mxCell>
                <mxCell id="64" value="" style="image;html=1;image=img/lib/clip_art/computers/Server_Rack_Empty_128x128.png" parent="1" vertex="1">
                    <mxGeometry x="820" y="450" width="80" height="80" as="geometry"/>
                </mxCell>
                <mxCell id="65" value="" style="image;html=1;image=img/lib/clip_art/computers/Server_Rack_Empty_128x128.png" parent="1" vertex="1">
                    <mxGeometry x="934" y="450" width="80" height="80" as="geometry"/>
                </mxCell>
                <mxCell id="68" value="&lt;font style=&quot;font-size: 24px;&quot;&gt;SPAN&lt;/font&gt;" style="text;html=1;strokeColor=none;fillColor=none;align=center;verticalAlign=middle;whiteSpace=wrap;rounded=0;" parent="1" vertex="1">
                    <mxGeometry x="510" y="25" width="60" height="30" as="geometry"/>
                </mxCell>
                <mxCell id="69" value="" style="image;html=1;image=img/lib/clip_art/networking/Switch_128x128.png" parent="1" vertex="1">
                    <mxGeometry x="490" y="130" width="80" height="80" as="geometry"/>
                </mxCell>
                <mxCell id="72" value="&lt;font style=&quot;font-size: 24px;&quot;&gt;DMZ&lt;/font&gt;" style="text;html=1;strokeColor=none;fillColor=none;align=center;verticalAlign=middle;whiteSpace=wrap;rounded=0;" parent="1" vertex="1">
                    <mxGeometry x="120" y="240" width="60" height="30" as="geometry"/>
                </mxCell>
                <mxCell id="79" style="edgeStyle=none;html=1;strokeWidth=1;fontSize=24;entryX=0.25;entryY=0;entryDx=0;entryDy=0;" parent="1" source="75" target="8" edge="1">
                    <mxGeometry relative="1" as="geometry">
                        <mxPoint x="384.6564885496184" y="-110" as="targetPoint"/>
                    </mxGeometry>
                </mxCell>
                <mxCell id="75" value="" style="sketch=0;pointerEvents=1;shadow=0;dashed=0;html=1;strokeColor=none;fillColor=#505050;labelPosition=center;verticalLabelPosition=bottom;verticalAlign=top;outlineConnect=0;align=center;shape=mxgraph.office.devices.nic;fontSize=24;" parent="1" vertex="1">
                    <mxGeometry x="290" y="-50" width="57" height="38" as="geometry"/>
                </mxCell>
                <mxCell id="80" style="edgeStyle=none;html=1;strokeWidth=1;fontSize=24;entryX=0.75;entryY=0;entryDx=0;entryDy=0;" parent="1" source="77" target="8" edge="1">
                    <mxGeometry relative="1" as="geometry">
                        <mxPoint x="410" y="-110" as="targetPoint"/>
                    </mxGeometry>
                </mxCell>
                <mxCell id="77" value="" style="sketch=0;pointerEvents=1;shadow=0;dashed=0;html=1;strokeColor=none;fillColor=#505050;labelPosition=center;verticalLabelPosition=bottom;verticalAlign=top;outlineConnect=0;align=center;shape=mxgraph.office.devices.nic;fontSize=24;" parent="1" vertex="1">
                    <mxGeometry x="394" y="-50" width="57" height="38" as="geometry"/>
                </mxCell>
                <mxCell id="82" value="LAN" style="text;html=1;strokeColor=none;fillColor=none;align=center;verticalAlign=middle;whiteSpace=wrap;rounded=0;fontSize=24;" parent="1" vertex="1">
                    <mxGeometry x="70" y="20" width="60" height="30" as="geometry"/>
                </mxCell>
                <mxCell id="83" value="&lt;font style=&quot;font-size: 12px;&quot;&gt;10.10.1.0/24&lt;/font&gt;" style="text;html=1;strokeColor=none;fillColor=none;align=center;verticalAlign=middle;whiteSpace=wrap;rounded=0;fontSize=24;" parent="1" vertex="1">
                    <mxGeometry x="190" y="330" width="60" height="30" as="geometry"/>
                </mxCell>
                <mxCell id="84" value="&lt;font style=&quot;font-size: 12px;&quot;&gt;10.20.1.0/24&lt;/font&gt;" style="text;html=1;strokeColor=none;fillColor=none;align=center;verticalAlign=middle;whiteSpace=wrap;rounded=0;fontSize=24;" parent="1" vertex="1">
                    <mxGeometry x="474" y="345" width="60" height="30" as="geometry"/>
                </mxCell>
                <mxCell id="85" value="&lt;font style=&quot;font-size: 12px;&quot;&gt;10.30.1.0/24&lt;/font&gt;" style="text;html=1;strokeColor=none;fillColor=none;align=center;verticalAlign=middle;whiteSpace=wrap;rounded=0;fontSize=24;" parent="1" vertex="1">
                    <mxGeometry x="714" y="345" width="60" height="30" as="geometry"/>
                </mxCell>
                <mxCell id="86" value="&lt;font style=&quot;font-size: 12px;&quot;&gt;10.40.1.0/24&lt;/font&gt;" style="text;html=1;strokeColor=none;fillColor=none;align=center;verticalAlign=middle;whiteSpace=wrap;rounded=0;fontSize=24;" parent="1" vertex="1">
                    <mxGeometry x="920" y="330" width="60" height="30" as="geometry"/>
                </mxCell>
                <mxCell id="87" value="&lt;font style=&quot;font-size: 12px;&quot;&gt;10.60.1.0/24&lt;/font&gt;" style="text;html=1;strokeColor=none;fillColor=none;align=center;verticalAlign=middle;whiteSpace=wrap;rounded=0;fontSize=24;" parent="1" vertex="1">
                    <mxGeometry x="600" y="137" width="60" height="30" as="geometry"/>
                </mxCell>
                <mxCell id="88" value="&lt;font style=&quot;font-size: 12px;&quot;&gt;192.168.2.0/24&lt;/font&gt;" style="text;html=1;strokeColor=none;fillColor=none;align=center;verticalAlign=middle;whiteSpace=wrap;rounded=0;fontSize=24;" parent="1" vertex="1">
                    <mxGeometry x="520" y="67" width="60" height="30" as="geometry"/>
                </mxCell>
                <mxCell id="89" value="LAN" style="text;html=1;strokeColor=none;fillColor=none;align=center;verticalAlign=middle;whiteSpace=wrap;rounded=0;fontSize=24;" parent="1" vertex="1">
                    <mxGeometry x="287" y="-90" width="60" height="30" as="geometry"/>
                </mxCell>
                <mxCell id="90" value="WAN" style="text;html=1;strokeColor=none;fillColor=none;align=center;verticalAlign=middle;whiteSpace=wrap;rounded=0;fontSize=24;" parent="1" vertex="1">
                    <mxGeometry x="394" y="-90" width="60" height="30" as="geometry"/>
                </mxCell>
                <mxCell id="92" value="" style="shadow=0;dashed=0;html=1;strokeColor=none;fillColor=#4495D1;labelPosition=center;verticalLabelPosition=bottom;verticalAlign=top;align=center;outlineConnect=0;shape=mxgraph.veeam.vsphere_server;fontSize=12;" parent="1" vertex="1">
                    <mxGeometry x="306" y="-180" width="114" height="80" as="geometry"/>
                </mxCell>
                <mxCell id="93" value="" style="shape=image;verticalLabelPosition=bottom;labelBackgroundColor=default;verticalAlign=top;aspect=fixed;imageAspect=0;image=data:image/png,iVBORw0KGgoAAAANSUhEUgAAASwAAACoCAMAAABt9SM9AAAAnFBMVEX///+oADCnAC2nACylACOmACemACmkAB6kACClACSjABiiABCmACiiABOjABqjABb9+fr68POgAAD47O/z4OXv1tyhAAj15uq7U2i3Rl3mw8vs0Nb89ffUmKTdrbewKUjFb4DVmqWzOFLgtL3kvsbAYXTNhpTHdobapbCrCzeuHUDMg5HQjpvDaXu3Q1y+W2+wMEvVj6HGaX7cpLJ4j0yjAAAMfUlEQVR4nO1d2ZaqShKFZBRkEhEFFRQVUNHq7v//tyaZT4lKikilute696x6YAozph2RkQTxRzG2TV03TbXv9/ir0OL/5kbgL/t+kb8Pe+os/L08icz07/HmYPT7Rn8VauCIQ4pmKOCcSZlZnw+bZJ2Zpk5sTkut7/f7QzB9WqbIFIACJMmGgbdcuA6jSNw+4jluFph9v+TfgDWdDMhfALGAeCYRIGDj/7HcxDl+tXLpSOxvUdWCoiVnNe/7dXuEumAK/WsiL27ij/t+556gHhkONBdVgoEYQXHNbfuzjNiKRxYVBCNGu5OgKJLzOeLahPIjokrENUisHO/2/Q0vgj6VHhVVCSEg7L4/5AVYSkxrUcUQXdW3+v6WrnGWniGqGHRonaI3zrXVQA8vYtCHAWSSBu+ri7Of8E5kBSgYtjMDmudpesCw94wbmBz7/qhuoK5pcOPjAcNJdLgW+PDk7o4Qh+1pzyoCz9wSmTB7R1WcO7c0kFVAtDR0dW7/yzKoprXa7kVuePXKwf79Yi4zvP69JJBO0LPNr6V/5vIsy9fSSJZ+tyzb4G9YKy68HwSo3lSir4hafK8YwlKu2h1AT47NzI55uORzsoW56fj9XwlvdE1WtBQem3Ohmi/WL9DR+0grEK8tq3BhoPEuxg9XeyPpXQKuYFKvPAynrA8Oaj3nKNatUiC8B9m1rF1XrLR3A894wO3bbJ1fpNh3qGxYtetKWD/uwTSnzi0Of5740j3BFGq0hhKCVjc9yzXS4qMnvXJ/+KnRGRa0NTCRUCMtEfdydqBcfhTjtE/n/DppKZgnPuGlElKn8f/a39it0UR23f6+/UF1a0qoSkg+w3Ft+UtpCasn3LgvHC9oUR4cnxUQrWvoaVl/0s1fD/W3qrDK7nnsk0pepj7M9mm3fzVWv1IT7uepYbZR4zxEbOmaX9Z94j/5/svL4gd7evIzXgXvn18eSN7Tn7C9pGxEvDJqw8+c3akaj7JsBwoyv6xoDKfPf0yH8KT033E1gR6GnfipzaUiSljRD+4u+7fi2hmno+6q80X8QO+6eVIn0LKXNZWqrLqqV+lVToMZhiwJhh09qgvkYlmzL5AVQezKQJ5yT96R52zcyheq65T6we477HBUixIse4Z/AnGMldEiIOteRtcU6JTDXORLi3Lgn0v8ahf70qUDvttfel7kVJNE2fl2vOLrUQ1HO48S/TwylZM1tcCNAlyXStg9fVnEc+DHjR+mHbp+4HNhl6Gi/Nirq3aw86OtvwsarMvipwF0GP/57Ay0Y0SFJxw+ktfqwUxUOHrAMAzNKeLUuxN4BCW5Icb2Ea/QQStpLAHdEY63MpeEaIBiBjQ9GA6E4e5m7FEJfwUoKFz62zTILJQ0FofsxrVolCxLhlPCU3Q4Hv3pDy2Jk8Wti5zCRPKQV8aFW052jJQ0FoW6g8SjoWujZCHyysR7bi+c0f7GnQp/mDKlBiYsDUX8Y96BiJbnuLCPgVKcSys1dkfX4yevQl/DvzEJHmZE9XdGZQCmsf4C5UphXz9fdXNG/vNwVggX4PNZxk6whNlZGb2jFVtmPNxucn1ZWFfDkJx6GBxteLmNx247FTb5lQsLKeRx43XFzW65z/m1JZMTpiAkkn1j2KTSFc5PRAkcNnEgLt2RrnrFBO5zd6ikth0bYZXGlkeyWLH2io9GSAXzkDHwuLTGl1oIBiimw6dJ5WFCuLDwZAclpA5RdjdwNwPJX5jKJP14f5Vd/EIcVrkOmftCABCUYSeQ1P7xhxbCAi1u8npUfmOEhTUetSu8G3gKa1e0ewoIFuvMkHwbGqq0WTQuth2icOIMggUyldgbtPnKcSEsEafmv2leAJMR3NKRJ7lWVIFeFL/5lY5H+A6xyNVQQTBBe0AqrT5RKzsFeB4fRVzmXJbUPC20RXLQjguuCKvlnV6KQlh081THH7TdelMRFk7dbMss2wFhY21QB3Gmg/AI/ZJ+LW1Wm2jt5chXFtV8c8iBR2sF9S/9bOkNeVw4ZYhcWOys6RXqJA5gUarIh0thlaGwhJEWFsJqbmdhjVRBMVnjS2FtcqojxMgXljU8vnGyA1eFhBRKXvrZ4ic6Oig36hu5sJorFlwViHWNC/hZ3iAEKExH71hlNJzQmCrxYvFKLZ/6n7Rrh5pZY3zi95KzbB7Aw7XItXuoZmS6H6jXiOc/iSONGsDDtSi3+0RVkzLdx2vr7yETltj4Criy2JZbbiwhS95hX0i7W70SubAGja+AnqwtZ5etZ2kcKz9GvPIhpeCp5i4cekNANbfLdZqWsmhx0hQLC6OW0owpZZtvCklUqKmJ2xDjGvNmiFkgHJt3DaMQPvOGjNv4ClNsHmkYVm0fQ9ZdMYFywshkEQGPyiqpdPOA369tJ8pa4dPdc1gJK43gBwjlB9gS2izvXupEXR026zhK26JxElamhii9RolPaJTweBuyJolchpWFpeFUsMicOI3QtbCBFp5rVN+wLzNOncmm6UqJ2cPIvBdxFoqwVA6J//qF3b9sI1bCykIHGqVkmnSCP8raZQ2sVLo0VZy0MFdDpBqLDYMHlKJsFWmnMjubJGEtNo1ZCfI4C+nTky0SYt2Hjg1TNw3rhkH7gdfKq3maMGG1sPI4i0KYCqNplnTNagX7UYwbc1vNSWavkpABL9KhIHgVhGs8YgZnmCq168f0/BvOQk+yQjnPB3Fi/oiyJR1lD7xhJzudAY+8Qd/gk9YKOfsTJ+IPImOWmnPwcDH4xArWsoaoE52sdOobNUG87q8gL3c2LrK6sZ0xLWIKvSjnIj0rSOdKMo6Ll10voOe9DvUW6BInGGSMCXUPFUpBaVc+ZMTMD/HfR970LyDfX9F0Spo5Gidht56c4SQ2L2WdU4Wn12pNIRET5K1/w6a0erAmNtDAjWkoZrFRBq4TejZ+k340TfoT2GYbLJrH8CePiGASbChQzkIDIf+P2KRukOSwlhVseUzQvJ1lzqtECDVxnIy2pW/tLExwMqNsZLCC+WjSvEcDoffHigiN1eMQXA/hsqSUm4ZLXfNKunrxP8AiHxyA0p8WGIRJzmMRzU+JM+X21yl5m8w3UjEDjKpeV5DHDjLCftJY8caOBiMAN5E1JZ7qK1rWNJ/ZDaSbu+0wQd7cTZFo2Yd5Mn7iz1+l0mCV8NeMTtWbRayQd47THCZ7e28j73ZA/hp165GxYhlsZpFoMXQDW9fmc023VlNFZouBRozkY5YzX0G+hw6hzprjeFYO0HDlG8vgeH2JYxlOFPhyGhcYjLZ4kXzXMS/m6KAH1vZ+RG4Iba3wV48fHQrUAdNUsA75EEmk/YY5dqPRzDX01Wki0BejIilakM73hq3ghbz5D4SPXG2eR7ISu8L55ngCgiLzyUyaAc8J0nC9s95KUkRlRJP82NgvezoZualQdGsZHPwocv3FcmO+m6ASFJtZuQeNixGNuOAtRXOJYoMmYI/eY/KaBz+j2cp4j/jgJoxiJw2gZfHRUwXM4DwakSf3uAiWy2WAf2pzBU51UHub6Y6mtdpF261/3GDL793FsXpiAtIu/A+E+c9sc7TBIZ+HWTUAH4ofYKdbYFNZWux29F1aN1E5kIFeeJOv1bqFRTkNE860eheSoBvMK+fEoVCmn4lDKS0A+n6Zvw6tcgIAh3sRpnP4FUV8kyNAu4NeOVMP79PhXoHK4RIo/R6fifIEAJJafwOtO1iV0nqLk3i7RTF4jBzi3ezyCljlRGp++k2m76A8m4o6YbWppg9oJfnAfk38PSwLabUaFvkhSLZOpKHWN4q/h/LsD4TpYx8LryiLcV9FvIuoSKgnb1v6exrUIjQF3zj+LsqjWZlvHH8Xy0JawpcFvItD4RJF+9HOh8/BrDh9gP/SgPegOkVsOvnGpveggWJM/Lnvd/n7GHN5iVr6Rlt3YQj5NhLEjRcfCTvfdDNA30zwebByaQkL9T0bj58JW8mkxU9GLUdtfgBsrqhgSLidjP16jMmiI1DE6kyvXqDtC8JG/K6te1CnRZ4oRd/q2D0cCg5iIGN06ktP8MTimEuMJvv2BdNJG06Bg9NM0d7gj5KIC0jh18rfhwVSrwiUk4bfjLBXQ3UzyzUcBHC2zBc3Ye3TybVADlcbzEfKvAArOtNFnhe+QcQ9aP4o70l6/FTkz4EeKfkBId/i/n2YBzFlnJsMGftivgqTeVh0+GXnm8ByeYEBQJx+Q/omUDfRQKFpiXK99906/kzYhzUvTkYjcD56nzDRoS3UsbU8Hvzp2tmfDn9rjf0fcjG7RSfw0pYAAAAASUVORK5CYII=;" parent="1" vertex="1">
                    <mxGeometry x="75" y="549.1999999999999" width="110" height="61.6" as="geometry"/>
                </mxCell>
                <mxCell id="94" value="" style="shape=image;verticalLabelPosition=bottom;labelBackgroundColor=default;verticalAlign=top;aspect=fixed;imageAspect=0;image=data:image/webp,UklGRjwIAABXRUJQVlA4WAoAAAAQAAAAxwAAxwAAQUxQSPsDAAABGUVt20Dyu+NP+KQQ0f8JUN/0D6GNHAVt2zAJf9jdZRARiUF5WGhQbGtbVj2f4JlEJjIDGwVZh8NciB6d7n7d3R33h3QtYgImgI62/4kk5/+XVCpmkEolVffsmnO2I1/CGd3BB+IrcIqRM4qY2R6epjJU92b/zuyImACEPwlHXV2a1WunZGOc+70yi0XOVzerj16mmBdFQbXolq5i56c3E/z7egOk9ss6r2xXlblYb3dAbwQMVN/1tpEIsAGCI/ek7MbenVTTxdn5Figu0yzNTxpjGjy/Xk9AcAwqVVdWRUkkNkBwRMakskY7zW7Wmy0QHKUfhtVi0EsFv/9xtQWCY5DWVb5oy6ZhN5vdBARnUTHoTqtAcNgBwZEL4Td2aYZOnJ2fb4DkQZOWS9sY5Z1ernZAd3zyqUpuJyA4MvTyfEzf+WkG7hqB2kxK6Rf9aHWX7X799NXP5laSUH4SZ3llTFlW4dVquwMAOL0CSmNSlrrTOhZSTju4w4lCKDhPaj0udClvzq/WQHA/CoOs651pc/7HxWoCeossz8ta6SJOw+1umoDaiCjbujVGZzhNux3QGz3fC+rOnLhark7/XE1Ab5Zkadrqrm8z7/pmMwHZl0+PMtjBEWgehCNxy/BIgOlo+N////7/Q6tAQ5hhRE6Qlid9gE8MFJBm7MhQmGkVz5bXFXMMGGq3+qYNpIQA9Xf3lncs6YHEAODLNHhxgdtKv8B3R4HFwNazc7P5wkC6l3VpmiAMMBMGBpbnFOAwwEBpiCib5uIDzJVDcY+WBhooDEAZgKmCV5QJMyjxO7C0ARCA4sAMGADuAwOwNb+Q+/f/v///dvnoi3cfCU+8cPtIuOf5B5Km844AXmdBZvvBmb4NmGB0m2dSykSpk9u612EQ+Yxse5FhqpTuh7FNizrjdNuPcZEXrTamb1XrIyDZ9oooDtJ2XA7d2EtPCiTbPArOY6Xc0tg2ydKQk+1AlpSN0fVoiqbNfcrtDbIkz9WyV4OrJWeIM0iweSGlnzTD0mlrwiBmjGybSwAARIZRPQwL9uMeSa75abeBPz8DAIS9X3zgqoQjuQ6c9kxvP5fkzhprTeYJwel14OXnACCE8IrBDWYxpFkU+oxid4he2tmuXppSNVmChNsroqwuy8WgrK0TxhDJNs98P4gaZ50du8SXPifbXsaY3w69dq6t8iQN6HagzFRbqkVrTFElSLl5EWZZqE+UvaWbkHOOZJtnwpOhGQbnbBeFccDJthcRY9Up3TtV5WXp0e1AWVVp4XozqrrzEZFuqx8AAHgYB4nr7W2rWimlB4Dkmt+eAwAg5zzvjbHOdd8QbX7aAHz/IQDwvPN+pdyB298+hf9ICQBWUDggGgQAADAiAJ0BKsgAyAA+MRSGQyIhC81wEAGCWNu4XBuAPbkhp/qHa2cu5T+S38m/5X+q5GjsB+MfX+HC6Yv0n9I/KD3ff179APhR5gH6Uf437O/hd/kvsi/YD1AfyH+H/1r+V/v/8xP+Z/QD3Afqh7AH659Yj6AH8P/0fpAf5b+0fv/9D37Cfsl8DX6tf9n8/9nILEi1PEUYGAAY7tvKUi6YAk4KiB23HAflICEoZKWfwxe8i36bGj0wRMqJ+pkP9lOqeSJIDJnq3ZTcyXIvDbIsWPUYmNiWa7LtzeJo9METKifqZD/ZTqnkiSAyZ6t2U3MlyLw2x9mSEDRG/+dEWW8uLDgyaNHgrf05+qjxRB4AFRK9j6XphuXbNGSpKAD+/DpQfdu3//Be+/KyZKhLujqk3mfvuPjAGCMWoH3tfgm2BjGNNmoF59JUwot6Eli986oHrDzgEi5H4pJCT70w/DexR95f/lwa1LgSM1+q7uhvBGuCRlI8vpw0S91ACDlPAsCAAj2VgHVHeLMiAzW0XhMG6qgrTgMDoUxMYi3FxeN6P/+ExwXbCn/rhmkvlr//wwVi88sRAoFfX+ym4558iwyyP/8FmnGX+kS3U5R/+AHTyFV0KwxQ/nT2Wquwm3qj5YNq4tPNPNmIWcMIPwtHA13Pc/WfUukv5EKKeMH//FDzPmghI6MsgOm72Oc14o+r71QTGxXpKmEAPBUcvC8rvENteKJr+kM/g0yp6y8PviQ31jC9hAQSjY5S///wjllhU/dBjPZxyQjHjwyMWWSBfOUqlK3YVW/GRUVO7XrTiNSb3hgZIhcSzW68EemDlBuP8vlZJPMLWJDtob7aX4wJf7oeAtsaPgO/heiqn1HSSBus6LyRdpsh+4P9+tY6MWSdkiAANEWQABE9LaI6BmOu4BN7+/KV+7kvxNM/IPHMg1tZNhF3hJkPpvblgwdPH74PuSfbsjsWNu2OII82+QjIB30k+WOL91U9usVyWsFZzSCi8dqVMoM1qURbJfoXR1f16zgDvLogyrJtm7LzKRXz2FOckA5xAY1jmBTYTc7Sffc/lnbdioGPIH41tiUOpSruDlR6doVbxDz+IJiDjMZ5H1n/hION+hn8CpAJhovrubp8wDp6sRWy2VDhW+6EIIk8Kk8AQ7YZSIoscBkZ1h0zxa50c3Py99w6Osohd85S6F7dbQX3boRKQ11LfPTQyQiN0YlXpyt5aAAAqOhb1w1r97dUKYGCSTknR9dCkuX3a1hCYZ4OMXJ4UpyfmiWma6wYTZHrs3vApbAkpBiCUAxK8ALhFJ4Gx2Wa6bNlK+sgOYy1RaAQub0P951eBTUV6vBH0X/zroUWPlbJmu4U6S+LRfQrmZ6bI6kePiskI8Von0QUQh1JhBzPd0AAAAAAAA==;" parent="1" vertex="1">
                    <mxGeometry x="660" y="540" width="80" height="80" as="geometry"/>
                </mxCell>
                <mxCell id="95" value="" style="shape=image;verticalLabelPosition=bottom;labelBackgroundColor=default;verticalAlign=top;aspect=fixed;imageAspect=0;image=data:image/png,iVBORw0KGgoAAAANSUhEUgAAASwAAACoCAMAAABt9SM9AAAAnFBMVEX///+oADCnAC2nACylACOmACemACmkAB6kACClACSjABiiABCmACiiABOjABqjABb9+fr68POgAAD47O/z4OXv1tyhAAj15uq7U2i3Rl3mw8vs0Nb89ffUmKTdrbewKUjFb4DVmqWzOFLgtL3kvsbAYXTNhpTHdobapbCrCzeuHUDMg5HQjpvDaXu3Q1y+W2+wMEvVj6HGaX7cpLJ4j0yjAAAMfUlEQVR4nO1d2ZaqShKFZBRkEhEFFRQVUNHq7v//tyaZT4lKikilute696x6YAozph2RkQTxRzG2TV03TbXv9/ir0OL/5kbgL/t+kb8Pe+os/L08icz07/HmYPT7Rn8VauCIQ4pmKOCcSZlZnw+bZJ2Zpk5sTkut7/f7QzB9WqbIFIACJMmGgbdcuA6jSNw+4jluFph9v+TfgDWdDMhfALGAeCYRIGDj/7HcxDl+tXLpSOxvUdWCoiVnNe/7dXuEumAK/WsiL27ij/t+556gHhkONBdVgoEYQXHNbfuzjNiKRxYVBCNGu5OgKJLzOeLahPIjokrENUisHO/2/Q0vgj6VHhVVCSEg7L4/5AVYSkxrUcUQXdW3+v6WrnGWniGqGHRonaI3zrXVQA8vYtCHAWSSBu+ri7Of8E5kBSgYtjMDmudpesCw94wbmBz7/qhuoK5pcOPjAcNJdLgW+PDk7o4Qh+1pzyoCz9wSmTB7R1WcO7c0kFVAtDR0dW7/yzKoprXa7kVuePXKwf79Yi4zvP69JJBO0LPNr6V/5vIsy9fSSJZ+tyzb4G9YKy68HwSo3lSir4hafK8YwlKu2h1AT47NzI55uORzsoW56fj9XwlvdE1WtBQem3Ohmi/WL9DR+0grEK8tq3BhoPEuxg9XeyPpXQKuYFKvPAynrA8Oaj3nKNatUiC8B9m1rF1XrLR3A894wO3bbJ1fpNh3qGxYtetKWD/uwTSnzi0Of5740j3BFGq0hhKCVjc9yzXS4qMnvXJ/+KnRGRa0NTCRUCMtEfdydqBcfhTjtE/n/DppKZgnPuGlElKn8f/a39it0UR23f6+/UF1a0qoSkg+w3Ft+UtpCasn3LgvHC9oUR4cnxUQrWvoaVl/0s1fD/W3qrDK7nnsk0pepj7M9mm3fzVWv1IT7uepYbZR4zxEbOmaX9Z94j/5/svL4gd7evIzXgXvn18eSN7Tn7C9pGxEvDJqw8+c3akaj7JsBwoyv6xoDKfPf0yH8KT033E1gR6GnfipzaUiSljRD+4u+7fi2hmno+6q80X8QO+6eVIn0LKXNZWqrLqqV+lVToMZhiwJhh09qgvkYlmzL5AVQezKQJ5yT96R52zcyheq65T6we477HBUixIse4Z/AnGMldEiIOteRtcU6JTDXORLi3Lgn0v8ahf70qUDvttfel7kVJNE2fl2vOLrUQ1HO48S/TwylZM1tcCNAlyXStg9fVnEc+DHjR+mHbp+4HNhl6Gi/Nirq3aw86OtvwsarMvipwF0GP/57Ay0Y0SFJxw+ktfqwUxUOHrAMAzNKeLUuxN4BCW5Icb2Ea/QQStpLAHdEY63MpeEaIBiBjQ9GA6E4e5m7FEJfwUoKFz62zTILJQ0FofsxrVolCxLhlPCU3Q4Hv3pDy2Jk8Wti5zCRPKQV8aFW052jJQ0FoW6g8SjoWujZCHyysR7bi+c0f7GnQp/mDKlBiYsDUX8Y96BiJbnuLCPgVKcSys1dkfX4yevQl/DvzEJHmZE9XdGZQCmsf4C5UphXz9fdXNG/vNwVggX4PNZxk6whNlZGb2jFVtmPNxucn1ZWFfDkJx6GBxteLmNx247FTb5lQsLKeRx43XFzW65z/m1JZMTpiAkkn1j2KTSFc5PRAkcNnEgLt2RrnrFBO5zd6ikth0bYZXGlkeyWLH2io9GSAXzkDHwuLTGl1oIBiimw6dJ5WFCuLDwZAclpA5RdjdwNwPJX5jKJP14f5Vd/EIcVrkOmftCABCUYSeQ1P7xhxbCAi1u8npUfmOEhTUetSu8G3gKa1e0ewoIFuvMkHwbGqq0WTQuth2icOIMggUyldgbtPnKcSEsEafmv2leAJMR3NKRJ7lWVIFeFL/5lY5H+A6xyNVQQTBBe0AqrT5RKzsFeB4fRVzmXJbUPC20RXLQjguuCKvlnV6KQlh081THH7TdelMRFk7dbMss2wFhY21QB3Gmg/AI/ZJ+LW1Wm2jt5chXFtV8c8iBR2sF9S/9bOkNeVw4ZYhcWOys6RXqJA5gUarIh0thlaGwhJEWFsJqbmdhjVRBMVnjS2FtcqojxMgXljU8vnGyA1eFhBRKXvrZ4ic6Oig36hu5sJorFlwViHWNC/hZ3iAEKExH71hlNJzQmCrxYvFKLZ/6n7Rrh5pZY3zi95KzbB7Aw7XItXuoZmS6H6jXiOc/iSONGsDDtSi3+0RVkzLdx2vr7yETltj4Criy2JZbbiwhS95hX0i7W70SubAGja+AnqwtZ5etZ2kcKz9GvPIhpeCp5i4cekNANbfLdZqWsmhx0hQLC6OW0owpZZtvCklUqKmJ2xDjGvNmiFkgHJt3DaMQPvOGjNv4ClNsHmkYVm0fQ9ZdMYFywshkEQGPyiqpdPOA369tJ8pa4dPdc1gJK43gBwjlB9gS2izvXupEXR026zhK26JxElamhii9RolPaJTweBuyJolchpWFpeFUsMicOI3QtbCBFp5rVN+wLzNOncmm6UqJ2cPIvBdxFoqwVA6J//qF3b9sI1bCykIHGqVkmnSCP8raZQ2sVLo0VZy0MFdDpBqLDYMHlKJsFWmnMjubJGEtNo1ZCfI4C+nTky0SYt2Hjg1TNw3rhkH7gdfKq3maMGG1sPI4i0KYCqNplnTNagX7UYwbc1vNSWavkpABL9KhIHgVhGs8YgZnmCq168f0/BvOQk+yQjnPB3Fi/oiyJR1lD7xhJzudAY+8Qd/gk9YKOfsTJ+IPImOWmnPwcDH4xArWsoaoE52sdOobNUG87q8gL3c2LrK6sZ0xLWIKvSjnIj0rSOdKMo6Ll10voOe9DvUW6BInGGSMCXUPFUpBaVc+ZMTMD/HfR970LyDfX9F0Spo5Gidht56c4SQ2L2WdU4Wn12pNIRET5K1/w6a0erAmNtDAjWkoZrFRBq4TejZ+k340TfoT2GYbLJrH8CePiGASbChQzkIDIf+P2KRukOSwlhVseUzQvJ1lzqtECDVxnIy2pW/tLExwMqNsZLCC+WjSvEcDoffHigiN1eMQXA/hsqSUm4ZLXfNKunrxP8AiHxyA0p8WGIRJzmMRzU+JM+X21yl5m8w3UjEDjKpeV5DHDjLCftJY8caOBiMAN5E1JZ7qK1rWNJ/ZDaSbu+0wQd7cTZFo2Yd5Mn7iz1+l0mCV8NeMTtWbRayQd47THCZ7e28j73ZA/hp165GxYhlsZpFoMXQDW9fmc023VlNFZouBRozkY5YzX0G+hw6hzprjeFYO0HDlG8vgeH2JYxlOFPhyGhcYjLZ4kXzXMS/m6KAH1vZ+RG4Iba3wV48fHQrUAdNUsA75EEmk/YY5dqPRzDX01Wki0BejIilakM73hq3ghbz5D4SPXG2eR7ISu8L55ngCgiLzyUyaAc8J0nC9s95KUkRlRJP82NgvezoZualQdGsZHPwocv3FcmO+m6ASFJtZuQeNixGNuOAtRXOJYoMmYI/eY/KaBz+j2cp4j/jgJoxiJw2gZfHRUwXM4DwakSf3uAiWy2WAf2pzBU51UHub6Y6mtdpF261/3GDL793FsXpiAtIu/A+E+c9sc7TBIZ+HWTUAH4ofYKdbYFNZWux29F1aN1E5kIFeeJOv1bqFRTkNE860eheSoBvMK+fEoVCmn4lDKS0A+n6Zvw6tcgIAh3sRpnP4FUV8kyNAu4NeOVMP79PhXoHK4RIo/R6fifIEAJJafwOtO1iV0nqLk3i7RTF4jBzi3ezyCljlRGp++k2m76A8m4o6YbWppg9oJfnAfk38PSwLabUaFvkhSLZOpKHWN4q/h/LsD4TpYx8LryiLcV9FvIuoSKgnb1v6exrUIjQF3zj+LsqjWZlvHH8Xy0JawpcFvItD4RJF+9HOh8/BrDh9gP/SgPegOkVsOvnGpveggWJM/Lnvd/n7GHN5iVr6Rlt3YQj5NhLEjRcfCTvfdDNA30zwebByaQkL9T0bj58JW8mkxU9GLUdtfgBsrqhgSLidjP16jMmiI1DE6kyvXqDtC8JG/K6te1CnRZ4oRd/q2D0cCg5iIGN06ktP8MTimEuMJvv2BdNJG06Bg9NM0d7gj5KIC0jh18rfhwVSrwiUk4bfjLBXQ3UzyzUcBHC2zBc3Ye3TybVADlcbzEfKvAArOtNFnhe+QcQ9aP4o70l6/FTkz4EeKfkBId/i/n2YBzFlnJsMGftivgqTeVh0+GXnm8ByeYEBQJx+Q/omUDfRQKFpiXK99906/kzYhzUvTkYjcD56nzDRoS3UsbU8Hvzp2tmfDn9rjf0fcjG7RSfw0pYAAAAASUVORK5CYII=;" parent="1" vertex="1">
                    <mxGeometry x="380" y="549.1999999999999" width="110" height="61.6" as="geometry"/>
                </mxCell>
                <mxCell id="96" value="" style="shape=image;verticalLabelPosition=bottom;labelBackgroundColor=default;verticalAlign=top;aspect=fixed;imageAspect=0;image=data:image/png,iVBORw0KGgoAAAANSUhEUgAAASwAAACoCAMAAABt9SM9AAAAnFBMVEX///+oADCnAC2nACylACOmACemACmkAB6kACClACSjABiiABCmACiiABOjABqjABb9+fr68POgAAD47O/z4OXv1tyhAAj15uq7U2i3Rl3mw8vs0Nb89ffUmKTdrbewKUjFb4DVmqWzOFLgtL3kvsbAYXTNhpTHdobapbCrCzeuHUDMg5HQjpvDaXu3Q1y+W2+wMEvVj6HGaX7cpLJ4j0yjAAAMfUlEQVR4nO1d2ZaqShKFZBRkEhEFFRQVUNHq7v//tyaZT4lKikilute696x6YAozph2RkQTxRzG2TV03TbXv9/ir0OL/5kbgL/t+kb8Pe+os/L08icz07/HmYPT7Rn8VauCIQ4pmKOCcSZlZnw+bZJ2Zpk5sTkut7/f7QzB9WqbIFIACJMmGgbdcuA6jSNw+4jluFph9v+TfgDWdDMhfALGAeCYRIGDj/7HcxDl+tXLpSOxvUdWCoiVnNe/7dXuEumAK/WsiL27ij/t+556gHhkONBdVgoEYQXHNbfuzjNiKRxYVBCNGu5OgKJLzOeLahPIjokrENUisHO/2/Q0vgj6VHhVVCSEg7L4/5AVYSkxrUcUQXdW3+v6WrnGWniGqGHRonaI3zrXVQA8vYtCHAWSSBu+ri7Of8E5kBSgYtjMDmudpesCw94wbmBz7/qhuoK5pcOPjAcNJdLgW+PDk7o4Qh+1pzyoCz9wSmTB7R1WcO7c0kFVAtDR0dW7/yzKoprXa7kVuePXKwf79Yi4zvP69JJBO0LPNr6V/5vIsy9fSSJZ+tyzb4G9YKy68HwSo3lSir4hafK8YwlKu2h1AT47NzI55uORzsoW56fj9XwlvdE1WtBQem3Ohmi/WL9DR+0grEK8tq3BhoPEuxg9XeyPpXQKuYFKvPAynrA8Oaj3nKNatUiC8B9m1rF1XrLR3A894wO3bbJ1fpNh3qGxYtetKWD/uwTSnzi0Of5740j3BFGq0hhKCVjc9yzXS4qMnvXJ/+KnRGRa0NTCRUCMtEfdydqBcfhTjtE/n/DppKZgnPuGlElKn8f/a39it0UR23f6+/UF1a0qoSkg+w3Ft+UtpCasn3LgvHC9oUR4cnxUQrWvoaVl/0s1fD/W3qrDK7nnsk0pepj7M9mm3fzVWv1IT7uepYbZR4zxEbOmaX9Z94j/5/svL4gd7evIzXgXvn18eSN7Tn7C9pGxEvDJqw8+c3akaj7JsBwoyv6xoDKfPf0yH8KT033E1gR6GnfipzaUiSljRD+4u+7fi2hmno+6q80X8QO+6eVIn0LKXNZWqrLqqV+lVToMZhiwJhh09qgvkYlmzL5AVQezKQJ5yT96R52zcyheq65T6we477HBUixIse4Z/AnGMldEiIOteRtcU6JTDXORLi3Lgn0v8ahf70qUDvttfel7kVJNE2fl2vOLrUQ1HO48S/TwylZM1tcCNAlyXStg9fVnEc+DHjR+mHbp+4HNhl6Gi/Nirq3aw86OtvwsarMvipwF0GP/57Ay0Y0SFJxw+ktfqwUxUOHrAMAzNKeLUuxN4BCW5Icb2Ea/QQStpLAHdEY63MpeEaIBiBjQ9GA6E4e5m7FEJfwUoKFz62zTILJQ0FofsxrVolCxLhlPCU3Q4Hv3pDy2Jk8Wti5zCRPKQV8aFW052jJQ0FoW6g8SjoWujZCHyysR7bi+c0f7GnQp/mDKlBiYsDUX8Y96BiJbnuLCPgVKcSys1dkfX4yevQl/DvzEJHmZE9XdGZQCmsf4C5UphXz9fdXNG/vNwVggX4PNZxk6whNlZGb2jFVtmPNxucn1ZWFfDkJx6GBxteLmNx247FTb5lQsLKeRx43XFzW65z/m1JZMTpiAkkn1j2KTSFc5PRAkcNnEgLt2RrnrFBO5zd6ikth0bYZXGlkeyWLH2io9GSAXzkDHwuLTGl1oIBiimw6dJ5WFCuLDwZAclpA5RdjdwNwPJX5jKJP14f5Vd/EIcVrkOmftCABCUYSeQ1P7xhxbCAi1u8npUfmOEhTUetSu8G3gKa1e0ewoIFuvMkHwbGqq0WTQuth2icOIMggUyldgbtPnKcSEsEafmv2leAJMR3NKRJ7lWVIFeFL/5lY5H+A6xyNVQQTBBe0AqrT5RKzsFeB4fRVzmXJbUPC20RXLQjguuCKvlnV6KQlh081THH7TdelMRFk7dbMss2wFhY21QB3Gmg/AI/ZJ+LW1Wm2jt5chXFtV8c8iBR2sF9S/9bOkNeVw4ZYhcWOys6RXqJA5gUarIh0thlaGwhJEWFsJqbmdhjVRBMVnjS2FtcqojxMgXljU8vnGyA1eFhBRKXvrZ4ic6Oig36hu5sJorFlwViHWNC/hZ3iAEKExH71hlNJzQmCrxYvFKLZ/6n7Rrh5pZY3zi95KzbB7Aw7XItXuoZmS6H6jXiOc/iSONGsDDtSi3+0RVkzLdx2vr7yETltj4Criy2JZbbiwhS95hX0i7W70SubAGja+AnqwtZ5etZ2kcKz9GvPIhpeCp5i4cekNANbfLdZqWsmhx0hQLC6OW0owpZZtvCklUqKmJ2xDjGvNmiFkgHJt3DaMQPvOGjNv4ClNsHmkYVm0fQ9ZdMYFywshkEQGPyiqpdPOA369tJ8pa4dPdc1gJK43gBwjlB9gS2izvXupEXR026zhK26JxElamhii9RolPaJTweBuyJolchpWFpeFUsMicOI3QtbCBFp5rVN+wLzNOncmm6UqJ2cPIvBdxFoqwVA6J//qF3b9sI1bCykIHGqVkmnSCP8raZQ2sVLo0VZy0MFdDpBqLDYMHlKJsFWmnMjubJGEtNo1ZCfI4C+nTky0SYt2Hjg1TNw3rhkH7gdfKq3maMGG1sPI4i0KYCqNplnTNagX7UYwbc1vNSWavkpABL9KhIHgVhGs8YgZnmCq168f0/BvOQk+yQjnPB3Fi/oiyJR1lD7xhJzudAY+8Qd/gk9YKOfsTJ+IPImOWmnPwcDH4xArWsoaoE52sdOobNUG87q8gL3c2LrK6sZ0xLWIKvSjnIj0rSOdKMo6Ll10voOe9DvUW6BInGGSMCXUPFUpBaVc+ZMTMD/HfR970LyDfX9F0Spo5Gidht56c4SQ2L2WdU4Wn12pNIRET5K1/w6a0erAmNtDAjWkoZrFRBq4TejZ+k340TfoT2GYbLJrH8CePiGASbChQzkIDIf+P2KRukOSwlhVseUzQvJ1lzqtECDVxnIy2pW/tLExwMqNsZLCC+WjSvEcDoffHigiN1eMQXA/hsqSUm4ZLXfNKunrxP8AiHxyA0p8WGIRJzmMRzU+JM+X21yl5m8w3UjEDjKpeV5DHDjLCftJY8caOBiMAN5E1JZ7qK1rWNJ/ZDaSbu+0wQd7cTZFo2Yd5Mn7iz1+l0mCV8NeMTtWbRayQd47THCZ7e28j73ZA/hp165GxYhlsZpFoMXQDW9fmc023VlNFZouBRozkY5YzX0G+hw6hzprjeFYO0HDlG8vgeH2JYxlOFPhyGhcYjLZ4kXzXMS/m6KAH1vZ+RG4Iba3wV48fHQrUAdNUsA75EEmk/YY5dqPRzDX01Wki0BejIilakM73hq3ghbz5D4SPXG2eR7ISu8L55ngCgiLzyUyaAc8J0nC9s95KUkRlRJP82NgvezoZualQdGsZHPwocv3FcmO+m6ASFJtZuQeNixGNuOAtRXOJYoMmYI/eY/KaBz+j2cp4j/jgJoxiJw2gZfHRUwXM4DwakSf3uAiWy2WAf2pzBU51UHub6Y6mtdpF261/3GDL793FsXpiAtIu/A+E+c9sc7TBIZ+HWTUAH4ofYKdbYFNZWux29F1aN1E5kIFeeJOv1bqFRTkNE860eheSoBvMK+fEoVCmn4lDKS0A+n6Zvw6tcgIAh3sRpnP4FUV8kyNAu4NeOVMP79PhXoHK4RIo/R6fifIEAJJafwOtO1iV0nqLk3i7RTF4jBzi3ezyCljlRGp++k2m76A8m4o6YbWppg9oJfnAfk38PSwLabUaFvkhSLZOpKHWN4q/h/LsD4TpYx8LryiLcV9FvIuoSKgnb1v6exrUIjQF3zj+LsqjWZlvHH8Xy0JawpcFvItD4RJF+9HOh8/BrDh9gP/SgPegOkVsOvnGpveggWJM/Lnvd/n7GHN5iVr6Rlt3YQj5NhLEjRcfCTvfdDNA30zwebByaQkL9T0bj58JW8mkxU9GLUdtfgBsrqhgSLidjP16jMmiI1DE6kyvXqDtC8JG/K6te1CnRZ4oRd/q2D0cCg5iIGN06ktP8MTimEuMJvv2BdNJG06Bg9NM0d7gj5KIC0jh18rfhwVSrwiUk4bfjLBXQ3UzyzUcBHC2zBc3Ye3TybVADlcbzEfKvAArOtNFnhe+QcQ9aP4o70l6/FTkz4EeKfkBId/i/n2YBzFlnJsMGftivgqTeVh0+GXnm8ByeYEBQJx+Q/omUDfRQKFpiXK99906/kzYhzUvTkYjcD56nzDRoS3UsbU8Hvzp2tmfDn9rjf0fcjG7RSfw0pYAAAAASUVORK5CYII=;" parent="1" vertex="1">
                    <mxGeometry x="873.63" y="549.1999999999999" width="110" height="61.6" as="geometry"/>
                </mxCell>
                <mxCell id="98" value="" style="shape=image;verticalLabelPosition=bottom;labelBackgroundColor=default;verticalAlign=top;aspect=fixed;imageAspect=0;image=data:image/png,iVBORw0KGgoAAAANSUhEUgAABLAAAAFhCAYAAABge1PiAAAABGdBTUEAALGPC/xhBQAAACBjSFJNAAB6JgAAgIQAAPoAAACA6AAAdTAAAOpgAAA6mAAAF3CculE8AAAABmJLR0QAAAAAAAD5Q7t/AAAAB3RJTUUH4gsHCh44jIsbFgAAgABJREFUeNrt3XecXFX5x/HPbnpPhiQEGHrn0oZe5YqgyCCiIorlZ0cFu46KBUXFNhYEpNhABURFQfEqiOAASegklAmhBAjZ9MmSnmyy5ffHc9YsIQnZ3Sn33Pt9v177Qimbueeeuefc5zznOSAiIiIiIiIiIiIiIiIiIiIiIiIiIiIiIiIiIiIiIiIiIiIiIiIiIiIiIiIiIiIiIiIiIiIiIiIiIiIiIiIiIiIiIiIiIiIiIiIiIiIiIiIiIiIiIiIiIiIiIiIiIiIiIiIiIiIiIuKdpjh8iPGFaU3AEGAMMB4YDQwFBugWiUgVdABrgOVABVgGrKsUc11qGhERERERkfhrWABrfGHaYGAn4BDgUOAAYEdgHDASC2A16xaJSBV0AmuBlcBLwGzgceBh4BFgTqWYW69mEhERERERiae6BrBcptW2wGuB04GjgO2BwboVItIAbcBcYCrwd+AuYFGlmFPLiIiIiIiIxEhdAljjC9PAsqvOAt4F7I+CViISL23Ao8C1wF8qxdw8NYmIiIiIiEg81DyANb4wbQzwduA8bJug6lqJSJy1A9OAy4CbKsXcCjWJiIiIiIhIY9UsgOWyrg4FvgqcihVpFxHxxRrgZuB7lWLucTWHiIiIiIhI49QkgOUKtL8T+Aawm5pZRDw2E7gAy8ZqV3OIiIiIiIjUX9UDWOML00YCnwc+B4xWE4tIArQC3wN+Xinm1qg5RERERERE6quqASxX7+pC4OOoSLuIJMsa4KfYlsKVag4REREREZH6qVoAy2VefQc4FxikphWRBGoDfgR8p1LMrVVziIiIiIiI1EdzNX6Jq3n1eSzzSsErEUmqIcBngXPHF6bpRFUREREREZE6aa7S73knVvNK2wZFJOmGA+cDp6spRERERERE6qPfWwjHF6YdCvwR2F3NKSIp8jjwjkox96SaQkREREREpLb6lYHlirZ/FQWvRCR9DgC+NL4wbbiaQkREREREpLb6u4XwLOBUNaOIpNSZwGlqBhERERERkdrqcwBrfGHaTtiJg0PUjCKSUiOAT4wvTJuophAREREREamd/mRgvR04UE0oIil3FCroLiIiIiIiUlN9CmCNL0zbDjib6p1iKCLiq0HAu8cXpo1TU4iIiIiIiNRGXwNQr8UKGIuICBwOHKNmEBERERERqY1eB7DGF6YNBt4EDFbziYgAVgvrtPGFacpKFRERERERqYG+vGztBBypphMReZnjge3UDCIiIiIiItU3sA//zSHADmo6EUmATmA9sM79tLufDvfPOnv8e009fga4n4HuZzCwLbAfMFfNKiIiIiIiUl19CWAdhrYPikj8dQBtwHJgMbDE/XUhsAioAEuBFcAqYLX799diQa3uYFYXFsBqZkPwqjtoNQQYBgx1P0+p2UVERERERKqvVwGs8YVpQ4H91WwiEjPtQCswH3gWeBqYBTwPLABewgJZa4DOSjGnFhMREREREfFIbzOwxgA7qtlEpMHWYVlUTwLTgYexoNUcLKOqTUEqERERERGR5OhtAGs8ME7NJiINsBoLUk0F7sECV3OAVQpWiYiIiIiIJFtvA1ijgZFqNhGpkzZgJnAH8G8saFWpFHMdahoREREREZH06G0Aq7tYsYhIrXRhhdb/C9wETAYWVIq5LjWNiIiIiIhIOvU2gDUAO4lLRKTaOrBT/P7qfmZUirk2NYuIiIiIiIgMVBOISIOtx7YGXgv8DZhTKeY61SwiIiIiIiLSTQEsEWmUDmAa8Gvgpkoxt1BNIiIiIiIiIpuiAJaI1FsXdprgr4DrgXk6RVBERERERES2RAEsEamnCnAdcDnwjAqzi4iIiIiIyNZQAEtE6qEduAv4AVCqFHPr1SQiIiIiIiKytRTAEpFaWwhcBlxVKeYWqzlERERERESktxTAEpFa6QLuBS7Asq461CQiIiIiIiLSFwpgiUgtrAV+D1xUKeZmqzlERERERESkPxTAEpFqqwDfB66sFHOr1BwiIiIiIiLSXwpgiUg1PQ98EbhJWwZFRERERESkWhTAEpFqeRz4FFbvSq0hIiIiIiIiVaMAlohUw4PAuZVi7iE1hYiIiIiIiFSbAlgi0l/3Ax+tFHOPqilERERERESkFprVBCLSDw8DH1fwSkRERERERGpJASwR6asytm1wmppCREREREREakkBLBHpixeAT1eKuQfUFCIiIiIiIlJrCmCJSG8tAb4E3KGmEBERERERkXpQAEtEemMt8D3gL5ViTq0hIiIiIiIidaEAlohsrS7gauDKSjHXoeYQERERERGRelEAS0S21n+BiyrF3Co1hYiIiIiIiNSTAlgisjVmA1+rFHNz1RQiIiIiIiJSbwpgicirWQt8H7hXTSEiIiIiIiKNoACWiLyaG4FrVbRdREREREREGkUBLBHZkqeBH1SKuZVqChEREREREWkUBbBEZHPWARdXirkn1BQiIiIiIiLSSApgicjm/Bv4g5pBREREREREGk0BLBHZlArwk0oxt1RNISIiIiIiIo2mAJaIbMqfgMlqBhEREREREYkDBbBEZGMvAFdVirn1agoRERERERGJAwWwRGRj1wOPqxlEREREREQkLhTAEpGeZgG/rxRzXWoKERERERERiQsFsESkpz8BM9UMIiIiIiIiEicKYIlItxeBGyrFnFpCREREREREYmWgmkBEnAiYkdaLz2YKzcBgYBAwzP0MwgL9nUAHsBZYDawD1rW0FjvUbURERERERGpPASwRAVgCXF8p5trTcLHZTKEJGAvsCOwN7AnsAmwPTABGYsGsgUAT0IUFsNZjAazFwJxspvAM8AQW+JvX0lpcp64kIiIiIiJSfQpgiQjAf4GHknyBLsNqW+AI4LXur7tjgazBffy1XVhW1lzgkWymcBvw15bW4lJ1KRERERERkepRAEtE1mC1r9Ym8eKymcJA4ADgTCCPZVwNrdKvb8K2Gu7hfvLA08BkdSsREREREZHqUQBLRB4BSkm7KJdxFQDnAG8FtsMCTrU0wP2IiIiIiIhIFSmAJZJuXcBfKsXckiRdVDZTGAt8EPgEsKtus4iIiIiIiN8UwBJJt9nAP5N0QdlMYW/gIuB07BRBERERERER8ZwCWCLp9m/g2aRcTDZTOAy4DDhSt1ZERERERCQ5FMASSa+VwF8rxVxHEi4mmykcBFwJHKpbKyIiIiIikizNagKR1JoOPJCEC8lmCjsBP0HBKxERERERkURSAEskvW6pFHMv+X4R2UxhOPA14ETdUhERERERkWRSAEskneYDtyXkWs4G3q1bKiIiIiIiklwKYImk01Rgpu8Xkc0U9gE+DwzXLRUREREREUkuBbBE0qcdiCrFXJvPF5HNFAYB5wH76paKiIiIiIgkmwJYIukzG7g7AddxJHCWbqeIiIiIiEjyKYAlkj6TsSCWt7KZwhDgHGCibqeIiIiIiEjyKYAlki7rgdsqxVy759dxBHCqbqeIiIiIiEg6KIAlki7PA/f6fAHZTGEg8C5gG91OERERERGRdFAASyRd7gNaPL+GvYE36laKiIiIiIikhwJYIunRDvwnAdsHTwN20u0UERERERFJDwWwRNKjBcvA8lY2U8gAbwKadDtFRERERETSQwEskfR4GM9PHwQOAw7SrRQREREREUkXBbBE0uOuSjG3ztcPn80UmoBTgJG6lSIiIiIiIumiAJZIOizG89MHgYlAqFspIiIiIiKSPgpgiaTDk8Aznl9DDthLt1JERERERCR9FMASSYf7KsXcMs+v4QRghG6liIiIiIhI+iiAJZJ8bcAUny8gmymMAY7TrRQREREREUknBbBEkm8O8Jjn17AnsI9upYiIiIiISDopgCWSfNOAuZ5fw5HANrqVIiIiIiIi6aQAlkjyTakUc+t9/fDZTGEwcDzQpFspIiIiIiKSTgpgiSRbK3C/59ewHXYCoYiIiIiIiKSUAlgiyfa0+/HZgcCOupUiIiIiIiLppQCWSLI9UCnmWj2/huOAYbqVIiIiIiIi6aUAlkhyrQcm+3wB2UxhDHC0bqWIiIiIiEi6KYAlklxzgemeX8PuwD66lSIiIiIiIummAJZIcj0GzPH8Go4EttGtFBERERERSTcFsESSa0qlmFvr64fPZgqDsPpXek6JiIiIiIiknF4MRZJpGXCf59cwCThUt1JEREREREQUwBJJplnATM+v4UBgJ91KERERERERUQBLJJkeBBZ7fg3HAsN0K0VEREREREQBLJHk6QAmV4q5Ll8vIJspjAaO0a0UERERERERUABLJIkWAI94fg27AfvqVoqIiIiIiAgogCWSRE8AL3h+DUcC43UrRUREREREBBTAEkmiqZVibrWvHz6bKQwEjtPzSURERERERLrpBVEkWVYCUz2/hknAobqVIiIiIiIi0k0BLJFkeR4oe34N+wM761aKiIiIiIhINwWwRJLlYWCh59dwLDBct1JERERERES6DVQTSD90AR3AemA1sApoA9a5v9/p/r1m19cGAYOBocAwYIj7+81Ak5qz3zqByZVirtPXC8hmCqOAY3QrBSAIoyZggHtODMUCm0Pcc2Sw+2fdz4+uHs+dDvcsagPWup//PZfKpXyXWld62Re7x7IB7mdYj3FssBvfBrp/1lO7+1nn+uMaN16ud3+/s1zKq4Elrs/eQcAI9zPU9fXueVu3DteX1/fo56vdc7fd/fMu9fNU9Z+Nn5Ubj93Nmxm7219l7FbjSn/G7oGbGbsHbDR293y/3dTYrf7YYApgydZaBywF5gPPAbPdz1ws42dFjwlL92DT/ZLYHcAa6B4Y3QGs0dhJc9sC27ufrPvJuH8+QE2/1RYDD3l+DbsBgW5l6l6URgBj3PMgC2yH1ULbzj0fMsBINh/Aau4x4ej+WeeeR90Tj2XuO1IJwmiRe5YtcD8VYDmwqlzKd+qupLo/DgJGuf44yY1Lk9zPtsAEYJzrs92T4CE9xrgBbFiQ6TkJXt/jhWyVG08XAguCMJoLzAPmuP641PVFBVqlXsGGMa5/7w7sAuzqnsWT3FysO4A1ZKOXve4+3r5R8GENVpNzCbAImB+E0Xw3Z2xxf28ZsFYvgV73m5Gu70zcxNg90T0rR24UMBjcI6DQhAWuOnuM3Wt79KPVwEtujO4eu+f1GLtb3di9Ws/LVPdFXP8aBYx1/a/n2D3Rjd1jN3qW9Ry7mzcau3suPq11z7RVrs91P9PmumfanB7PtDXqi7WnAJZsznr3gvckti3tUeApN3AsB9oqxVxV/8DxhWkD3QvqGDcQ7u6CGQcCewE7uIeOsrU2bQYWXPTZ4S6IIcmd8I5wk4vdgP2Avd3L0k5YoKo7MFDr73n3RLl7gtwCzA7CaBbwNDDL/b2lwDq9ZCVywjsY2Mb1vT2BfYE93P/f3r24d7941Vqbe+FvBV4Ang3C6HGspuFzbnKsfijV6PvdiwZ7YAemHIHVntzFveDV6vnb6Z65K7Hg7fPAU0EYPermLy8Ay7SIEMs+M8AFB3Zwc/P93Lx8V2DHHoGBIXUYu9tdMGENFtia48buZ93Y/ZwLKiwH2vXMTOTzawgWkNrZ9cN9Xb/c0c0vuxc8B9X443T1eKYtds+wZ4Iwesw9057Hgvjqh1XWq4fM+MK0k4GoDh1CGmOVe/jfC9wNTHMDw5pqB6t60edwD6rt3Ivu0dgWswPdw0t13Db4bqWY+6qvHz6bKQwEfgO81+N7sBY4paW1eJe64/8mGmPdJPcg97J0kAsQTMQC0nHUjgWu5gHPAo9jQfwZ7u+t0GTEy/441I0lAZBzP3thwaoxMRxPutzEeC4WyLrf/TwJVLTKK73s/6OBA4ATgde678H4GPT7Dixw+xzwIDDZ/XVOuZRfrzvXkL7SjAX3dwcOdmP3AS5AMCHG74HrXcBgnnufeQyYji3AL8AytXSD/eqLYMHRLBZoP8T1yT3YEKyKW2JDJxZAneP64H3AA65PLtPY3X9pCGC94AZFn7J29nRf1HpY7SbDdwL/cQ/6SlzrKLmA1kg3qB4PnIKtHo7Hv8yseW5QrdYL90WVYs7bwEk2UxgD/BALVNa6/3VhacX7VrnfpD6AFYTRQPf8OsR9R49wQYKx+J31uxZb7X3GPSenuonJHGwbjCYk8XwJG+de1LsXP/Z3k95hHl5Sl5sUPwtMAe5wL/oL05q14rZ8HoIFIH36Dja5Z8oj5VJ+ZY3bZy83VzoVC9qOjfl8aR2W/ToV+Ce2oDpfmVk1/y4NwbLwDnNj92Furj0afxeLu7BMrYUuePAwtkj/BLbLpE0BrVj2xQHYIucB2MFOR2FZfxOoT0Z0tXVimf4z3fPsTixJpFVzx74PoL0JHvgWwOoAPgFc7cmLUxeWkfA7IF/jdnkBC1jdgkWFK5Vizrsv0fjCtGHu5eQ04HT3vwd78vG/BXyP6tT56gLWel7AvZn6bRHtcIPijW4yX80gR+oCWC5QsCNwHHCyCxTs7NF3sS+6t1mX3YvWPW5SrAlJY/tiE1bL51Dgde5FbC/3EpY0a91L2X+AfwAPl0v55Sm73+PcvPQw91z3RTMWpHlTuZSfUYN2Gemew+9wz+QsfpZfWIct9N3ixusnlJVV1X4yENvOHwInAUdiGalJLjGzFstqfQzL9psMzEzbszOGfXEAtkX1SNcXj8YCqEk8lXylmzvehgXpHyuX8mvUC7Ze0gNYC4A3VIq5x3y5IeML03YHbse23NTiC/MA8Bf3pZldKebak9CRxxemNWEZNScD73ETtxExf3i9uVLM3anHUGNkM4WMe+k7usoTo1QEsFxa9xg32TjdBQt2I9lBq83pwg6y6M5mvRXL0lqu1d269cVxWNDqja4v7pnQie/mLMeysf4C/At4MQ0ZK0EYZYB/u3vvm7nAG8qlfLmK7THGzYPejwVvkxK47cIWDG7BFqUfUSCrz32kCdu1cBzwZuAEbAEqjYcmdWLlAh5z7163A+VyKb9aPaVufXGCm4ef6vriLviZZdXX59oSLKP6RmwxaqEWQV9d0gNYdwJnVIq5Fb7ckPGFaW8Drq/yS2DFTfCuA6ZUirllSe7U4wvTxmDR+w+7h2Ect4o8BpxSKebm6zHUONlM4YdAoYq/MvEBLDfh2MEFCs7CAlij1JteZhm2VeEmF0x4XttfatIXB2LZVXngTVhdjLT3xQ4sK+uvwA3Ak+VSviPBfUABLGuH4Vjg6uPAa/Bzi+zWWgj8CbjS9W+97G1dH2nGMlpOB850z8uhapmXWYxtMfyrCybMU/+qSV8cim3nPx0LXO2X8GfW1liH1Vv9I7YQ9bz63uYl/RTCqT4Fr5zjqF7waj7wd+C3wCOVYq4tDZ3aBej+Mr4w7T/uxeY8rA5PnPr7Q24SJo31X2yb8TA1xatOOJqwzNB3AGdj9cN0ku2mjcEKJZ8AfBr4exBGNwCPlkv5dWqefvfFUdiKbff2qB3QgR7dBrjv5lewAzH+GoTRNdjWqw41T+K+CwOw7ZOfcfOdNARwt3Xj9qnAFUEY/a5cyi9Wb9hiHwmAdwNvc+O4npebNgELqrwRq1d0YxBGNwJP6fnZ734IdjDACcA73V8noJPluw3GFmIOBj4EXB+E0fXALAWyXinJGVirgTMrxdy/fLkZ4wvTqrWlaRG2evAbYHqlmEt1mvX4wrRJwPuAc7HTzxqtA/hwpZi7Ro+gxspmCttj22n3r9KvTFwGlpt07OQmv/+HZbxo8tt7C9iw/eUhbX/pU1/cBngDtk38WJJZ16oW5mCZ3b8BnknSZDjNGVhBGG0LnAN8DKtblEbrgRJwETBZQYaX9Y8m7FCcD2LB/h0VLOi1LmA28GesPvEMZVP3aQ65A5Yl/W73rNai8avrxA4Nuhq4tlzKz1WTbJDk1fPZWCqeT/Zyg01fLXUvSFcCD6Y9cNWtUswtGF+YVsT2tn/ZPUQbmTa9CNteJPEIKkylegGspE08xgFvx4K/B6DAVX9MAj6C1Ry5MQijq7CsGE2GX70fTnDP7Q8Ah5Oe+hjVsiPwReAM4MogjK5TxorX34dmLHvhAqzO1YAUN8cgLAvzAODiIIyuLJfyy9RHou2xhdsPYbUpFbjqmyasJtMXsJIJvw/C6GrgOdW3fNU+2OTGnjOxbOD9UdZ+bzS7mMBFwNuDMLoUuEmHDWxonKR6BP+2aB0BZPrw37VhdVbeBZxTKeamKnj1cpVirrNSzD2C1cX6Enb6T6M8ATyvu9J4La3FTmwbobZ1vXziMTAIo9dhWRuXAgeh4FW1TMQCgn8Dzg/CaDs1yWb74bggjP4PqyV2BbbFXsGrvr+I7Q38EPhjEEZvDMJokJrFu+/EKOBzWE3TkHQHr3qaBHwb21K4R4r7x9AgjM7Eauh8G6t5peBVdZ6fO2Nbs/8GfCwIo7Fqls32w0nAp7AyNj/EtsUpeNU3A7CstSuAq4MwOtotYqRaUhugE7jHpyDO+MK0QW5y3htdWDHw84CzK8XcvyrF3Fp91zevUswtdy/k78KOzm3EVop7K8XcSt2N2HiQxgY04zbx2AH4DlYA+hTSeapgPewCXAj8OQij04MwUjtv6IPDgjA6HStm+gtsu6DapzoGAa/FAiDfD8JoJzWJN9+LXYDLsBV5Bb433bfPBq4NwujYFPaPvV3/uBo4CgU3a/XevD/wM9fPjlcw4WV9cIxbdLoZ+BG2+Kl+WB3DgLdipxV+yZVUSK2kRkOXAA949pl3wCLUW6uCFWe/HHiuUszpq721DVfMdQH3jC9Mew/wLTfhqddK9GrsuFSJjzlYUf3dUj7xaAZeh21LOQZlXNXDACw481tsZe2n5VJ+Tsr7YA4rfP9mVOOqlsZhhb+PCcLoQuB21Q+K9XfjMODH2AmDsmVHAtcEYfR54JakF0B2ix9vAb6GFWtXxlXtDcYOTTgEuMxtXW1N8fNpELad+bPYKfA63bJ2tscWP493Y/cDaSzyntQXlCeBWZ595gPZugLj7cCdWAbRlyvFnIJXfVQp5mZjKa5FLLBUD88DZbV+fLS0Fte571RqT/lw21I+D1yLZYIqeFVfY10w4YYgjE5M44puEEYTsRqFN2H1MhS8qs8c8Cjg99iK7lg1Sey+FwRhdBIW5FbwauvtgS3wvj3Jz1P33LwIy1TdHwWv6m07F0y4JgijnCtYnrZn1K7A94E/Aaeh4FU9DMJOyrwB+HAQRqlr86Q+1O91W8V8ciyvXttjEban/exKMXd7pZhr13e4fyrF3DLXphcA9Sj8+TBWOFziZWpa74vbQnSJ+x5MVFdomCYs8+1a4LwgjIanpP8NDMLoZGy74Lewoq9SX+OBb5Ly+kEx/G7gXgh/AeynFum1HbCtXm93BaWT1j/2x7YLfhYF/BtpIHbIyA3AO9JSW9DVW3sHVm/ts8A26gp1twvwU6wcwKQ0XXgSA1hr8GyL1vjCtDHYKujmdGL1mt4FXFQp5hbpO1s9rm7Yz4CvYic51konMLlSzGmbRvzMAh5N4QvSQcA12GlFKo4dD9sBPwB+6FbXk9z/JmKLB9ejgtSNNgh4J1bX5bg0ZhLEUB74ObCrmqLPJmFbLxNzZJzLyjsRW+w4Vc/N2NgLOwX+Sy6rPclj925Y4ORX2LZ/Zf41zgjgk8CvgjBKzUJHEgNYc7DC5j7ZA9h3M/9spZvAnF0p5u5Q8KM2XDbbVe5lakWN/pjFWMFwiZmW1uJqoJSmaw7C6DXYtpTXavIRO8OAjwO/CMJozwT2vaYgjI52L2BfwTKAJB6OdM+FtwZhpBfjxn1HXostrKnIfv/tAPw4CKOjEtAvmoEzgd9gBbIlXsYCXwd+lMSMGJcxnce2C34UGKlbHgvNWJD+9+5ggVRccNJMA+Z79pkP38wE/gWsRtMXK8WcTkmrMRfEuhLby12L0xxnAM+ppWPrHuCllLwcnYytnGkCHO/x+c3Ab4IwOjhBfW8o8GHgD8DJKHsgjnbDjuz+QBBGOvq8/t+Rg4GLgd3VGlWzF1B09Xp87RcDgHdjJw3urFsaW4PdGPdzd3JoUp5LY7A6ldcAh6KFzzg6BNtWfFoSt01vPEFOki5si9Y6Xz7w+MK0gdjJDU0bXcc9bqC6xm1xkzqoFHPr3cTxKqDa2W4+1mZLkyexIGPSX45e715O99Qt98JxWBArCdkD22LbI3+qF7DYm4gdcPIJd8qZ1Oc7siN2/PyBao2aPEu/EYTRSA/7RTNWRuTHwLa6lV68X78VuCoIo70S8FzaA1vgvwBlTMfd7u5evSPJB1gk7cJagfs9+8yTsP3D3dqxlen/qxRzUyvFXJe+i/VVKeZWY6e63FLFX+tdbba0aWktvgTcnfCXo+Ox1Vut7Pslh20nPNrjvhcAvwY+gdVskPgbixXW/6SCWHX5jozAth+dqNaomXcC7/cpO8FtB3obFlCeoFvolddjh2Ps7ekzqXveeK377gzSLfXCDthCYWKDWEm7qKeAZzz7zAdgpwgArHYd7hOVYu4Fff8ap1LMLQa+RvXqqc0GHlfLxl4JWJXQl6ODsNMGlXnlpwOwuho7eDgBfq2bAOdJ7unHSTUK+AZwrrYT1vR70gR8AHgv2ppTS0OAL2ClO3xxMpaVp8wrP50IfMe3zD+3ZfUdwO+w2ojil0nAT4Azk7idMGkTyfsqxdxSzz7zsVjB3uXYSuc3K8XcS/reNV6lmCtjR4tXo089gn+12dLoMeDZBL4c7YhtPThYt9hbq4B/YZnGvvS7ZuDtWMFh9T1/dQexPpDkLQkNdgQWWBmqpqi5nYEv+nBSnFt4+jEq5u/16wRwK7YTw5exewhwHnaI2C66hd7qPoX11KRdWJImIm3AZJ8+8PjCtFHAMdhJg18FfuK2r0l8/AP4JVaXrK+6a7O1qzljbxEwNUkX5Cbp3wRep9vrrVXAd4FiuZRf40m/GwR8SBPgxBgLfAer6yLV0+UyM76M6sLVUx7blhfnZ+h2WM3AA3S7vJ5TfgG4ulzKe3GKvNvK/GU359hGt9B7WeDiIIyOS9JFJSmA1QJM9+wz74HtUz0fuNIVEJcYcffkUvpXW60CPKDW9OAh0lrsBP4LrEvC9bhsiXOwAyHETyuBbwM/KZfybZ70u8HY6u0PUc2WJJkI/CAIo9eoKaqmCzgTeKOaoq6GYrXdYpnZ5E5r/RJWQ0n81B28+n25lO/0ZOzuzrb9MqpVmSR7AD8JwmjfpFxQkgJY04F5nn3mAcD3gF8oOye+KsXcHKz+wMo+/oqZwCy1pDcewGqWJUEIfB6r+yH+WYltLf9puZT34jRat/Xg01jQbaxuYeLsBhSTcLJWDHRh2Ynn6hndEDngPTH9bG8HPozqoflqoZt7XedR8Go0cCHwGbSVOYkOB74fhNHEJFxMkgJYkyvFXJtnn/lh4LeVYm6dvlex9y/gb338b+/1sDZbmg3HTgP1mtt+cAGwnW6pl1a4yeQl5VJ+nSd9bhDwSdfvRuoWJtYRwEVBGGXUFP2yDbZF7GA1RUM0Ae+LWzDWndh6PsqA8dUC4LPA9Z5lXn0Ty5zWSYPJdRpwvsvw9FpSAlgvAff59qErxVxXpZjr0vfJi3u1GrjcDUy90QZMUQv6IZsp7IVtGfU6zdadHvNx4HjdVS+twNL4L/Fo2+BA4KPA11HwKg3OAD6tkwn7ZRhW30gvjI2zF3B2EEZxeY4OB77o+xwkxRYAnwP+6FHwajjwFSx4NVi3MNGagY8Q38zTXl1IEjwDPK1+KTX2AHBTL/+bF7GT7STmspnC3sAVJKPY+TFukNKJYf5ZjgWvfu5R5lUTVmftW8Bo3cJUGIhl271JTSGeeye2NTYO3kzMi8vLZs0DPgXc4FHwahC2ZfAzKHiVFiOArwZhdJTPF5GUl5v7sCwskZpxdcquwfa2b61pwFy1XrxlM4V9gSuBE32/FpcK/lns+FzxyzIsg+kyX4JXzmlYPcdxuoWpMg64IAijPdUU4rG9scBRo8furAskaOugf+a5edeN5VLei5017pCfD2IF21XzKl12Ab4RhJG3h+wkIYC1Dqt/pa14Ug/TgH9u5b/b5fqmTpeMsWymsB8WvAoTckmnAafoznqnO3h1RbmU9+aZ4VbxfoRqraXVwcCX3TYUER81AW8Pwmh8gz/He4HDdDu804Jlo/7Zl+CVczpWZ3OUbmEqnQyc60qOeCcJAax5LqggUnMuGHUDVqPm1bQC96vV4iubKQRY8CoRx8K7CfjHsNoq4o+lWA2KKz0LXu0GFLE6MpJe7wDeqmYQjx1MA2tGuizG96Nt/75pwU7dvcmn4FUQRocD3we21S1MLa9r5SbhQfmoe4CI1Mt9WD2sV/MUVp9NYiibKewPXEWyCp3ngaN0d72yFAte/cKz4NUY4NvAcbqFqTcCKARhtLuaQjw1DDjD1QSq97MU4F1oIcA3c7DMK9+CVzsCP8S2zkq6bYtlUG/j2wdPQgBrSqWYW6s+KPVSKeaWA3/Htghuyf2VYk612WIomykciAWvjk3KNbmAwntQIU6ftGL1J35VLuXbPeprA9zE/e26heIcCJynUwnFYyfQmGLuu+hZ6p0XgU8AN3sWvBoBfI3klMyQ/jsRD08l9D2AtQy4V31PGuAOtlycfR0wWc0UP9lM4SAseHVMwi7tWJR95ZOewSvf6uSdhhUbHqTbKD28l2RltEq67NigF/s3Avuo+b0xGwte/b1cynvzoV2m3/vdc1qk2yBs8Wk/nz607wGsZ4GZ6nvSoL533xb+eQswXc0UL9lMIYcFrxIV6HFZD28FRuoue2EJ8CXg6nIp3+FZX9sL+AawTUrvXTuwBquDuBQLRFbcX5cBq7AFjDQeLDMe+HQQRqP1FRcPNQMnB2E0pI7P01HAW7B6NBJ/LwDnArf4FLxyjnXzjrTWSG0HVvcYu5e4sfslYLkbu9endOzeE/iYTxnUvqd6P+AmjSJ1VSnm2sYXpt3hggabCgRPZ8sZWlJnPYJXhyfw8nZBKeG+WAIUgN95GLwagWWN5VJyr9YAC4DnsXqGLwDzgcVsCFZ1T3ibgSHYiU4TsFMZd8UyK/YAdkjJi8PrsVp8f9BXXTx0mBtPn6rTn3cQOnnQF89jmVf/9C14FYTRROACLMswDVZih7w9hyUczHZj+WI2BKs6eozdQ4ExbuzeAdtKvA+wuxvL01Ca4x3An4F7fPiwPgew1gOTK8Vcp56p0iD3uofhpk7xmFwp5trURPGQzRQOA65I8ETxWGDnFN3SLqDN/ax3P91j2gD318EuoNAUo8+9GFsB9S545ZwFvDPh/Wop8BhwF5ZlOxNYBKwpl/K9mm8EYdTkJsYTgf2w005PBAKs8HkSDQM+GoTR7eVSvqLRRzyzvZsn1CuAdRIwLkXt2wmsxbJU12NZMd1j98AeY/fgmI3dzwHnlkv523xr8CCMmrGssZMS3q8WA48Ad2MJLs9gGVZre1unzLXZMPc8OABbID4BK3w/JKFtONGN3Q+WS/nY1xb3OYC1AHhYY600eECbySsDWC+x5e2FUkcueHUVcEgSr88V1H4d/mfUvlpgodVNSB4DZmDZMAuxTJjuAFb3pGMMtsVtErCTm3Tsga0+jmnQxHgx8AXgOh+DV0EY7YtljiUxi6gDeBq4xf08Bizv7yq7mzSvwVZ/Zwdh9C9sm91R2GrnKe7/J83RwJuBX2sEEs8MAo4LwugPvQ1Y9+GZOprkZ053BxZmYqfGz8QKoC/CMmG6x8IBwHA3Po93gYOd3di9O5DFgv6NGLtnAef5GLxyXgN8jGQc3LaxdcDjwM3AP4GZ5VJ+dX9/qfvur3JzzmeCMLrZzSdPcGP3a4EkbpXPY3Usb4/7B/X5hecx9xAUaYhKMbdifGHag+6B1tMz7mVIGiybKRyJZV4lecvT9iRzWyRYrYKHgX8BJffdWtabFwuXBTMIGOsmwoe67+zhblJcj9oji9gQvPIuazgIo6HAZ4F9E9a/2t1c4vduAvxiLe+PC4hVgH8EYfRv1wc/ApzhXtySYjDwwSCMbimX8os0EolnDsOyopbU+M/ZE8vMTKJWbJfCP4Ep2ILvyt5kwrixezAW0NoTOAILxhyKLRzXI5j1DJZ59R8fb0IQRttgWd/bJqx/tWGJAte4+eGiWp4G6eYF84A/BGH0NyzI83Fsy3ySFvXGAh8KwmhyuZRfE+cP6nMAa2qlmFuDSGM9jGV/9DyN6/5KMbdETdNYLnh1FVZjIsn2wbKMkjb5/RdwLXBvuZRf1o+JRxe2SrfI/dwbhNEvsfpEJ2J17I6idlu6FgKfA27wMXjlnEKytg52YYsMvwRuAObWu6ZJuZRfB0wJwuhh4K/AF7HMpaSskh+Gna72W41G4pldsRo4tZ7H5UheBuY8bDHgD8C0cim/qp9jdxtWT3YuUArC6DJgL+ANWOA/R+22dHkdvHLejWXoJ0Untk3wCuBv5VK+7u9aLsPrtiCMprr54xeA/RPUxq93c5E74/whfQ1grQCmaoyVGJjhXra7VzfWA5PVLI2VzRSOcQPcgSm43EOx1PskaAf+DfwImOJe8msxAWnDtjLMDMLoWmw17QNu4B5VxT/K++BVEEbbYtlXoxLSx5YC1wGXAk81uhivqzXx9yCMHnIT4Q8npK0HA+8Nwujm/gSgRRpgHFb35sEaPlebsIyipoS02RrgL8DFwKPlUr69hsGD6UEYTce2KJ8EfAg4Dqs3WC1PYcGrO329IW7b/7m8fIHdZ/OxRadflEv5hh+SVS7lVwC/DcLoPuBrWI3QJBR7Hwe8Jwije8ql/Pq4fkhfA1jPAU9qjJUYmAu0sCGA1UJz0yNqlsbJZgrHAleSrBWRzU1QBpGcIN0a4OfA9+u5qlYu5ZcDURBG/8VWKj+NbVPo76RvPhb4+bPHmVcA78IOCUiC6cC3gKhWwdF+9MN5QRidD5SBC7GTkHx3FLZd9+8amcQjzcDBNf4zxpCcLdkvARcBV/Yn46qXz0uw7dg3BGF0K/Am4FNYRlZ/ywLMBD5eLuVLHs8NBwIfxWqI+a4TO1TlQmBy3GqIlkv5p4IwOs/FJQrYNjzfneLeLWJba9zXANYD7sElvXvRHY7t1R3S42cQtgLUhWUPdZ/stRZYDaz29LSselmOpRkfShPQ0Tl/8G13T8yO/fwYmvu9E2Q98HRLa3Gtr42TzRRGYLUL6lFnqAvbSvdtUhC8ckZj6fS+6wAuA75ZjQKcfZyErAZuCcJoCvA+LJDV15Md5wOfwYJXXb7elCCM9sRqNA3wvH+tx7IDLiiX8s/E9UOWS/m2IIx+4/rPTxPw3R4BnB2E0W0u61EaYx12rPwaN79bh2W7dvLyE1uHASOpbiaLr/YNwmiUy7KohYnYVkXfrQa+CVxeq6yrrXhuLgV+7xahPg6cQ9+3Zj6JBa/u8vy+HEUytv2vBn6FLWzOj/HYvTwIox9iW2i/j/81x7YDzkQBrKpqByZXijkFVTb9wjHATUCywC4ueLAbtpo7HksNHOUmKgN5efpyl2vfNdjJXq3AoiCMXsDSaZ/Gst8qcU4rrKdKMbd+fGHaLJqaoG1d+8DHZuzTPH/BzTQ3D3Tt2VcDsJM1zsSCib46HrjaTY7r8SI/hOQeT7+5SfD2CbiO/wA/bFTwaqOJSGsQRhdj29QvxLYo9CaAMxfLvLrR8+BVE/B+/M8SWAVc4vrX0rh/WNdn/hmE0Wosk9T3FfQTse1YD2nGULc5csXN2Z7Eyhx0n/q2FCvB0ebG4y4s26h73jjWvXjtDARY/ch93LyxOWXtuBuQce1VCzuRjEyN64FfNip4tdGzsyUIo28A92CZtr093GYG8LFyKX+P5++BQ7FTB30PolSwBelfxr2guOt/7UEY/c69s/0ECwL57PQgjC4vl/Jz4vjhfAxgLdRE6BUPq+HY6VqHAUe6ScdOWMCqWvtxu7BsoxZgWhBGd2G1nmalPpjV1DSraenyNYMemt7Z/MKcMVQvW+E5/M80fA129KzUxo74Xy9nOfCzcikfm77uggj3B2H0PuB8LAtpa+qMzcW2Mdzkc/DK2R84OwF961vAZb5lAJVL+VIQRp8EfoEtRvlqIvBmzdtqqgtY4OZkt2K7FGbTy1PfNppXNrEhw/ckrGD2wSSjxsvWyLh59Owa/f5d8f/0sjnu2Rqb4IILpN0ahNEzLvhxJltXDuAJrObVPQnou68B8p5fw3ysJuQffdoFVC7lO4Mw+qPrcxe754ivup/9V8fxw/kYwCrXcEDxhouw7+0610luYjG+hve0CduzPwZbmXune8CUgjD6M3CXqyWTOgMfenTWgNlz1jS1Ls3QVLV6nJ3APS2tRW8zDbOZwmgsjVlqZzv8zzi7n5gefFAu5Re6ukSzsSKdW5qMtGDbDr0PXrmX1/fi9xaXFcAF2NYWLxdZyqX87UEYfRmrDbeNx/ciH4TRz8ul/AI9squqC3geO0nzz8CT1QrUumfYMuBBd8DAr7E6Q+e6+WbSM7JGYYHjWgU0sglow3+7d7I4PjtnBWF0rhuXP8GWg4WPY5lX3h8OFoTRMOwgkLEeX8YCPC7BUC7lu4Iwuh6YAHwHfwPVA4G3BGH0xzjsjtiYjw/PKZVibhUpFYTR+CCMzgJ+j620FbFia5Oob0ByIJb98V7suNw/BmH0ZvfwTJWBjzxWaWpduraKwSuAxfi/Yr0bsJ/eMWpqO/w/xahUwzoj1ZiMrMFOrCu47+WmvOgmyUnIvMJ9b8/y+POvBX4IXJGADOEbgR9jdbx8tS9wjB7XVbUcO5HrdOBr5VJ+eq2yDMulfFe5lF9ULuV/jR0bfzlWmybJBlCjzMcgjJrxf+t/O3BHHLYObqHfLgW+gRWY39x742MkJHjlHIedpuyrpVjWu9f1Q13W2JXANdSnfEqtHEVMawr7FsBaidUlSZUgjAjCaHu3mnAL8FssLXZSTF5eR2BBtGuBK4Mw2j8Io/TcoObmJTQ1VXv70wxsC6HPDsNWIKR2fK9xsA541IPJSLubiHyeV27rfRHbNvj3JASvXPbVO+l7AftG63L36uK4nTTYj4nw5cDNHl/GUOA0V6NT+u9x4EPAp8qlfLmez51yKT8b+CLwZTYf0E+K3V2wqdoGJWButNTNU+P+/FwD/IhNB7GmA+ckJXgVhNEQLKlgjMfzwSJwbRLmUi5r6Xuexy0mAG+I5au3Zw35AjFNV63hA2kb7CjUvwM/w6KhcT0hZiTwf9iK8dnu5MM0WEb1a1Xd39Ja9HZLZjZTGICtBKWt8Gs9nw3N+L2tCCyLYKEnk5FOrGDt19zn7h6TzgP+lpDMK7Btg2/z+POXgO+US/mVSfmul0v5ZcB3gVkeX8Zr8DcoGhed2CLmO8ul/I2NquvmggI/xw6rWJjg9t65RvPtgQkYu5cAL3ny/GzDTnX9CRYkAQtefaxcyt+foP6ai2uwYSv9Gaup1p6UG+IKoH/HfV989fogjMbF7UP59nL5IMlf8el+OR0ShNFp7gt9KXAo/tQs2xtbMf6CKzCfdO1VfjitJaY1gXphWywDS2r7/B7r+TWsxaOtKC4b5jfYlq6ngE8C/yiX8knqV6fh78l384ELy6X83KR92cul/HQ3rvpaF3FntI2wv/OMXwMfKZfyM2LQHzux8hFfxE6sTqIJNRpjB2ELvj5bjZ1Y7svzcy2W3fM7rDzHOUkKXrnM6bOwQzN89AS28JTEWsp3ANd5/PkPIIbbCH0KYHUAkyvFXDsJF4TR7thKwbXAa9m6EzTiZixWQPcrKQhidWJZWNXyonuY+2w//D45ywfN+H+KkXf1u1xNpYuxWjD/TFLwKgijDLY93cfMyU7gKmpXdDkOrsNOmPPRQOCkIIwGIn3p21cDXyqX8rHJeHJBrOuAH7AhsyVJMkAtMg+GkIzTHL0av12tza8CZ5dL+QcT1ld3ww5Z8NFa4MflUn5mEh/ebs54Ff5mUI9xsYjYvQD5YjGWgZVYQRgNCsLorcBfgI/j7z7mbkOxmjGfTviktROrz1Yt04B5nrfJsfh/Op4PL4S+b9Md4eNzrlzKLy+X8jPcC1ySHINl+/roYeBXCbwnPfvdQiwD0NeC7kdiB09I79wEfLVcyr8Uwz7ZAVyBnYSYNGOw072rbTB+ngK/cdt4l0XmDiN4NoF99Q1YEMtHt7n33iR7EstY9dUJQRiNitMH8imANQM7LjiR3Mr3BcCvgIPw/2SxbkOxFPMzk3rvWlqLUL1U6i5gcktr0dsTp7KZwgjgaL1z1NwA9+Oz0fi7XS1pY9BA4AzAx4zZ9cAvkrh1cBMirIi3j3bG6rTI1nsEC17FtnyGy2z5Ph4U9e6lwdTmtMAB+F8fdCKqaReXsXuUG7t97FNLgcvjfBJ1lZ6RXcCfgDmeXsL+wJ5x+kA+dfaplWJuZRI7dhBGe2LphV+mNunKjTYW+EYQRvuTXNVKn2/F3y0i3XYhpseuJkxTAibBzViByMG6nQ23KzFME99KD2MHnSReuZSfD/zN048/DMvOla3zEvCtcin/lAf98kmsXmuSthIOxE77llcaCZycqhPH4+tg/K05+x+Sve2/pyexelg+mgAcHreXBx+sAqYksTcHYXQkVlTwTPxPKd6SfYDPBWE0NKHXV63abE8Bz3jeFodgRdyltjrxt6BzTyfppTYWTsDPFfVO4E/lUn5Riu7VbVT/5Nt6OTJuWxFi7Drgnx593huBexN2D2oxl0nKibVvw+qdSmO9AT+TH1YD17lTTRPPna74D6zml2+agGODMIrNrg9fAlhJKGr9MkEYEYTRG4DfAkel5CH7NuDkhF5btbZ83t/SWnzJ10bIZgpNwHEkOxgbFx0kI4A1AfhqEEZZ3dKGjUeDgdfj55bU2Z695FfDDI/nRHuhrUdb41ngClcA2JcXtApWbH59gu7DxCCMqv2u1J6QsXsv4MtBGI3R17VhY3cGeJ2nH/9R/D9xvbcedHMWHx3k5uux4EsA62FgYVJ6rzvu9C3YtsE01X8ZDXw0oauv1QjYrEvAwzx2aaYJ1k5ytmucCPw4CKOddFsbYlfgCE8/+134e7pPXwMFK/A302UCcKC+cq/qemzLiW9uw98abZuyDXZqYDWtIzlBvncC3wrCaBt9ZRviQPzNgrvVBb3TZD52UJePdgZ2j8uH8SGA1QlMrhRziXjYu+DVW4HLSOcq5AlYhk7SVKOGz1zgMc/bYZ84PeASrtqnXzZSE/B24PdBGL0uCKNBur11dSSwg4efux243aXmp80jQJuHn3sgts1cNu8F4AZX+Ncr5VJ+AXbQQFKMq9L8rqc2T7+7mzIIOA/4VRBGh9UgW01e/Z1qtIefeylwZ9pulsuofdjTjz8aq7cWCz48aCr4X9S6pzxwMbU52cQHI4G3uxOvEiGbKYCdtthfj+LvCRXdjvZ0MPVRF7AsQdfTBLwGO479siCMjg3CaJhuc225mgYhfm77nQs8lNJb95TH3/8DgzAaqW/fZv3D3V9f/Qs7kCYJahHAageWJ6i/DsBOwfsr8N0gjA7WIlRdxu5R+JsQ8DR+ZphWQxk/A9hNwMFxCVL7EMCaSUK2BwRhdAIWvEp7rZcTsC0rSdGMBeb6a0pLa9HbVblspjAUOEbTijqNgKV8J/4Wct6S8cA52ElrvwvC6B1BGG3nslel+ibg7wlGM/E/6N9XFWCBp599D/c9l1daDtzknu8+v6A9lpD7MRI7PbOa2klOgK+nHYEvYhl4VwVhlA/CKKOxu2Z2AQJPP/t0YElK71sLloHmowCIRRkgH1Zc760Uc96vVARhdCAWvNL2KhvkjsT/0/a6NQP9LWK5FLgvAff1IHXvulqY4GvbBjud9U1YoOL2IIxuxTIVl/i4vSam9nETYR89mpYTjDZhOeDryYvj3VzoBX39XmEatj3UW+VSfnkQRndjmZ2+G1KDF7b1CR67m7AdJh8AzsLqof0rCKPbscMnlpVLeX3LqyMHTPT0sz+S4n7QigXvfDytfUf3/W549nfcM7DWAFN876lBGG0P/JAY7R1tsEHYcZxJ2Ss/ABjbz9/xLH5vGcD17+3VvetqPsk4zejVXiAOAr4A3ISt7v4gCKNTgzDKJmk7coMcQkxW1HqpCwtsptUawNcTa0cBe+qrt0l3lkv5pQm4jntdH/XdYKqTYf8/bvFlXgr68gjslPVvYttibwa+GYTRa4Mw2tZtX5e+vVeCHbziYxuucu88abUCf7cQjycmC55xn/jPwVbbfX7IDAe+ih1RLhsc5CaxSajhM5T+Z2A9iP/bwY7DgpNSP3OxQu5pOcZ6lJu0HQF8AjuO+JEgjKZihTGfw7KzOtQ1tmp8Goi/2wdXkt7tg5RL+c4gjHzOTt9H38BNvtjcnZBrmenGpz08v47BWCCmFu837fhZe7C3moAMlpEXumf3LODBIIzuwzIOZwNLPd86W09j8DcpYinpCOBuThuw2uP33T2xOocNFfcH5yP4W+Oh2/9hqbTaA/5yWWA7khHAGk3/Cpe3A5NbWovebonKZgoZbFuo1FeL+w6NSeG1D3MvwftgR3kvw7YkPRGE0cPY4scsbJtVm7YtbFLG40DC6gTMD/prrceffc8gjAaXS/l1+hr+zwskJ6twAVYmwvcA1iBqE8B6HstQG5XCfj4SW8Q+CHg/lkk6C3jcjd2PY4tRrcA6jd2btAP+1hJeTnrrX4GdIO7zKaR7x+FDxDmA1QVMrhRz3k5ugjA6Cvgy1S8AmQTjsQBWEiZrY/oZQFiA1b3w2V7uR+prCfAisFPK26EZOy1qHFYX4r3YKu8894yZHoTRdOzUm3nACtXQAmwhwde+0wGMDsJoJ/w4kKYWcySfX363d9/Xhfoa/s8TwOIkXEi5lF8bhFEZeKPnlzKoRnP4Oe5ej0p5nx+IHSQyAdtu+GEswNGC1cya5sbup7GSCasV0AIsC8bXgzDWARPdKdNNKe3zQzz+/LsEYTS0XMqvbXQjxvnF7AFf724QRtsAXwN21nN2kwZjAawkyNC/ANbjWPq0z46k/3XApPeWYwGa49QUrzCSDYHV07EVrwpWe6F7pXcGthK+tFzKr09hG+1N/7JHG2kCcD2WwZrWDGefT/LbFjuoQQGsDR5N2Pbnp7FAq8/fzwHYtplqW4xlHe2mbv8yTWxYFA6wg1zWuufEM8CjQRg9gi1GzQaWp7RkQODeo3ydd/zdPRvSapLHn30H9/1UAGsLA5+Xp9S5I2M/CLxBY9EWJwUTE3ItO9C/aPrUltair/uhyWYKg4Fj0TbZunN1cKYl4CWhHoa47+oOwAlYGvdL2Er4E26VdzoW4FoIrE3BSu9e+Fu3bhBaIPLZGDcHmKGmACzA/lTCrmk2ttV3hOfXMbwGY/eqIIweBU5W19+iJiwDbhf3czKWfVtx/evxHmP388CipC9GueL3Pu94GIq/2x/Fxu0xNHjxKc4BrHsrxdxST29uDjiPdBRn7I/RCbmOXen7SSArsdN6fLa96/PSGA9jgZiMmqJXmrEMkG2wYqjvdi9b87EFlGk9th22YNsOE1Ng1hVw17ZfaZTB2BZWMcvxPxN7Y/NIRgBraI1+7/3AenT4TW8NwDI4t8UOdOnETrabAzzlMrQexbLT5wOrElYyYASwu7qBNLD/TXLz5IaJa4BlLTDF05eCYcBn0Mrw1vC+Nlg2U2iifysJzwFlz5vhQGBHdeeGecYNJEepKfqlyQ3Me7ifU93LRfdWj0eCMHoQq1f3Av7X4hiGVkGlsfPPHdQM/7MUO3AiSZa565rg+XXUql7NdGxxRM/h/mnGaont537e4t4jF7m50SNBGD2ABbXmlEv5Ns+vdxy2cCzSCEOJQQmguAaw5roHu49OBs5Q/97qF0bfjcTSmvvq4QRMWo/F74KEXiuX8q1BGN2FAli1MMhNFLcHjsfqLS3Eii3f7dq9DCzzcIV3mwS8WIrfJqkJ/mcRlkWSJGuwAJbvalVr6EXgQRTAqtVL9k7u5ySscPg87ECXu4C7gafLpfxKD69tO1RzVhr7PGz42B3Xk3umY0EsrwRhNAb4ODpVZGu1J+AaxtD3bLtOYHJLa9HbbUnZTGEMCpzEwb+xLShSW91ZI28AvgPcghUj/WoQRocHYTTco2sZj63kijTKBLeVVSwwviZh19QGrEjIC1vVlUv5dcC/EjIX9uEe7oIlGPzYtfuNQRh9Jgij/YMw8qkg+iS9Z0qjx+44TMbjaHKlmFvn4Q09FQjVr7daElYbd6bvJ0EtAh7y/Pp3B/ZVV264h93Pa9UUddOEBYCOx06B/DRwXxBGfwH+A8yNeVbWBE2CpcHGY9m7eoG34tNtCbumNqzOp+9qudj/X+zgkH30Fajr/ZyILUSdjNXJuicIoxuxzKzFMS8PsD2qmyYNnj8GYdTcyLqwcczAagXu8+1OBmE0DvgQtSv2mDRdWH0E3+2BZWH1RRmrgeWzw7GtSNJA5VJ+GXAjdjqP1F+Texk/DbgKW929MAijA2KcYTIJHTQijTVOL2L/sziB17QeK+Luu1o+J2cD/1D3b5hmLKv6ncDv3b34fBBGuwdhFNddStvptkmDbdPo+WMcv5zdBYl9cyJwtPr0VusgGQVLD+jH9+jeltait6uT2UxhIJZ50qzuHAu34P+BAEkwGNgf+BrwT+BnQRgdGYRR3F7UJ+m7Kw02BtVP7LYkaRfkMlCTkIHVVMM2ArgBq88kjTUMO9Xwh9gi1HeCMAqCMBoQlw8YhFH32C3SSBnsNNCGiePk9X7sSHhvuLon7waGq09vtXV4HsDKZgrDsABWX6wBpnp+DycBh6orx+ZlYQ62gtip1ojNS08WOBf4G3BpEEaHxWgyPF63SBpsqOZNgC3otSb02rSF8NVNB/6qr0Gs7veewJexjKyLgjDaJwijOBw8NQDtepDGG0WDs6fjFsBah9W/8u00p0OBE9Sfe6UV/1Pmt8O2EPbFC9hJZj4L6HsBe6mNP2CnGkm8bAt8FAtk/SAIo71jMBlWAXdptMHACDUDnSQ3gKUthK+iXMp3AL8EntdXIVaasMLvX8Qy3L8ShNGODf5MQ+h72RKRahlKg0smxS2ANQ+Y5tUbvL2EvBVLp5Ottxj/txDuRd/3ok/DCkf67Bi0eh4r5VJ+LvBTkncce1JsD3wOO7nwk0EYNWTccNsZVcBdGm0Qtm0n7ToS/Mxerdu7VR4DrkAHGsRRE7ZYfSFwUxBG7wnCqFGB96Eo6C+NN5gGb/+PWwDrUWCOZzdxR+wkC+md54Dlnl/DoX2cfHcBk1tai95OVLKZwkgsgCXx83fgejVDrCfDewE/Aq4NwujYBhSLHaRJsMTAQHTwDdjug7UJvbY1ur2vztXCuhq4Xa0RWwPcvP8q4EpXH6ven2EICvpL4w3CglgNE7cA1pRKMefbMcInYHulpXdmlEv59b5++GymMBQ7ga8vKvi/zWsXbAuhxG8ivAb4AfCQWiP2E4A3An8EPhWE0ag6/9nKnpRGG4iKuIMFsNYl9NradHu3euyuYFk+L6g1Ym048B7s5Od3B2FUz2fYIBT0l3iM3aqB5SwF7vXp7gVhNNi9gOgo8t5PaB7z/Bq2o+8F3J8CnvX8+g8DJqorx3YiPAu4AFio1oi9HYDvA5cEYVSvmnIDaPDqmYjrh4PUDIkOYK3T7e3V2H0/cBHJKH6fdPtg2z6/FYRRvQqrD9TYLTGgDKweZgEzPbuBuwBHqx/32hKg7Pk1HORePPvivpbW4lJfLzybKTQDx9LgI1TlVd0GfBfVIPHBEOB9wO+CMDqsTmO/JsHSaM0aRwAr4t6R0Gtbh5VNkK33eyww0qGmiL1RwOeBq4Iw2qMOf17DM19EXD9saPJOnAJY9+PfKSxHYsekS+/MBFo8v4Zj6NvWhzZgiufXPoG+b5+UOimX8p3YyUaaCPuhCXgNcE0QRifVuLZGM/ErISDp7PPqhxbA6kzotakoee/H7jasDMCf1RpeGAC8DfhNEEYH1+G9Xc9Micv43TBx+RKsByZXijlvBnBXdDdE2wf74v5yKb/C1w+fzRTG0vfMuxbssAKf7Qvspm7sxUR4DbYd4XcJfkFKmgALPJ7uTrmt1cRDmS/SaMrAMknOwNLiSd/G7iXAl4Bb1RreOB4LYh1Z46CBnpmiyUNMPsd84BHP2m5blIXSF2uAyZ5fw55YEKcvHgXmen79x2Bp0+LHRPgl4HysWLiCWH7YBbgMyDfglCMRqa8OPZtlE2P3i8CngDvVGt7IYdsJj6jhn6EtuZJ6cQlgPQ686Fnb7Q3sqi7Ua8/hfwbSsUCmj//t5JbWordFTbOZwnAsgCV+TYQXAp8FrkUr4r7YEbgEeF0Nfnen+oGI1EG7Xrj7NXY/A3wc+LdawxsHAT8PwuiAGvzuLhTsFolNAGtKpZhb41nbHQaMVBfq/b3GMu68lM0UhmJbR/uyteclrNab7y/VB6gbezkRXgh8DrgcWKsW8cKuwMVBGB2iSbCIeEjPmf6P3U8D52A1sbTw4M874sU1OFlYi08ixCOAtRy416dGC8JoEHCIuk+vtQG3ueLSvtrdDUx98QzwlOf3MAdsp67s7UR4Cbad8Jv4d2hGWu0PFIMw2rGKv7PDPY9FRCT+Y/ds4FzgUnSysC9OBC4KwmhMFX9nO1Y3WiTV4hDAeg6Y4Vm7jQX2U/fptaeA+zy/huPoewDnAWCJrxeezRS6r19H+Po9EV4F/Bj4CPCEWsSbifAFQRiNqNLv68COtxcRET/G7grwFSyT+kW1iBfOAj4dhFG1Dvxq19gtEo8A1oNAxbN22wFlofTFbeVSfp6vH95tH3xDH7837Vj9K5/v3zbAEerGiZgIt5dL+b8C7wCuR1sKffAe4ANVOpmwHa3ii4j4NnavAX4BnA3c5p7lEl+DsEL8+Sr9vnWar4k0PoDVDkyuFHO+bSnbFcvCkq3XCvzd82vYC+jr8bhzgWmeX//e2AmMkpzJ8Azgo8B5WDaWiu3G11Dgi8DRVZoEr1KTioh4N253lUv5qcC7sYysF9QqsbYN8I0gjHavwu9qw05zF0m1RgewFgIPedhuOwOD1X165R7gEc+v4XX0PfPuCfxP+T4KBW6TOBleCfwGOAMoYsFWiacdgfODMBrbz3vejtWfFBERP8fuJVg5gLcAv0J1LeMsB3w2CKP+vjuuBVaqOSXtGh3AKuPnysEu6jq90gbcUC7lvd2yks0URmMpwH3dvjOlpbW41uPrHwIcq66c2Ikw5VJ+Fraaezp2UuF8tUwsvR54ZxV+z0tqShERr8fuznIpPx3Lon4rcK2e7bH1LuCkKrxPLVNTSto1OoA1pVLMeRXUCMKoGdheXadXHgRu9/wacsChffxvl+N/8fodgIPVlRM/Ge4ol/KPAJ/BAlmXYJmD2loYH4OBjwZhtFM/f89iNaWISCLG7nXlUv4u7HCWM4HfAovUMrEyDvhEP08l7MS/utEiVdfIANYKYKqHbTYE288sW2c98DuX6uylbKbQ5F7mx/bxV/h40ubGDsKCWJKOyfD6cin/EHba0anAt4DH0PHNcXEgdrpRfyxwk2EREUnG2L22XMrfCZwDvAn4KfAsdvKsNN4JwMn9uL/dY7dIqjUygPUCtoXQN0OA4eo6W+1B/C/evjPwxn789w/hf7bDsa7vS7omwx3lUr4MXIgFss4BbsFWAJWV1dix++wgjPpzGu4CFJAUEUni2L2uXMo/ABSAU4DPAv9FtQ8bbTjw3iCMRvTjd8xTM0raDWzgn/0Qfqa3DsFOg5JX1wb8slzKL/T8Ok6m76fvdQKTW1qL3mY6ZDOFsVgBd0nvZLgLK+5+TRBGfwIOwAJarwf2B0aqleruAOxgiWv7+N9X3MvMBDWliEgix+4OYBZwaRBGvwUOw+q5vg47WVrvM/V3vLsPd/Xxv5/v3q+0qCyp1agMrE5gcqWY8zGltYnG1w7zxZ3ATT5fgCve/nb6HuxdADzs+X3cw010RCiX8qvLpfz9wDfdRPgM4HvAFKx4rLal1ccg4C1BGPX1BWQxKvYrIpKWsXu5217YnZV1FvAzN0ddjrKq62Uctr2zrxZgZXhEUqtRGVgLsa1lklytwCXlUt730zKOoX/ZR2Xgec/b4Aggoy4tG02Gu9z3/I4gjO5wk7K93fflWCxDKAuMUGvVzFFYdujjfXxGLwT28vTau1BdF581Ae16aRap+9jdiQVBbgnC6B/AeCAAjnZz3v2ww6qUnVU7JwVhNKlcyvelntV8YKm7bxq7pd6a3f1r6NjdqADWkx6/1LejuiFb43rgDp8vIJspDAbOBkb149dMbWktrvK4DQYBx6GsQ9nyhBgsm+e+IIzuAy4HJmIBrUPcz77ATsBoYIBarSq2w4KFfQlgrcUOmDje02t/CfgyMFvPJ291AdPVDCING7u7sGzcUhBGJSxotT2wD3by9sFu7N4BKxWgZ2117Ona9tY+/LfLgBZsd4SPXgDOx4JwTeoK3mkC1mGHQzRMowJYUyvF3EpPb1wbsFr9d4sew7KvfA/0HYTV+OmrVcC9nrfBJBd8ENnaCTFucGtxP3cEYTQQO711FywzK+e+X7tiNZgGqeX6PJE4PgijX5VL+fZe3qeOIIye9vjahwIt5VL+3+oGIiJVGbu7FzaeA/4ZhNFgN0bv7sbuQ9xfd3Zjuhaj+mY4tjjclwDWKqyuWejptQ8DZpZL+UfVDaSvGhHAWoXVSvHVGixqLJu2AvheuZR/xueLyGYKzcC7sABOX70APOH5/TwAy5oR6c/EuB3brrYQuD8Io2ZsNTeLrfQeggW09nHfuRFoZW5rHYxlu/XlZKKn8bcY7HCsEO6/1AVERGoydq/DDnCZC9wdhNEALIt6Z2yr4SHAgdhW9IkuOCFb54ggjEaUS/lVvbwnnUEYzfT4uie4PqMAlvRZIwJYsz1/qW93D3J5pS7gajwv3O7sB7yln7/jEazOgM+O0YREajAp7sSKxs4AZgRh9FfXzya4ifAB2PaF/dxEeQxa6d2cLLaVoK8BrGXuxcNHRwdhNKxcyq9RNxARqfnY3YFt334JmB6E0R+wBadtsQWoA7Gg1j7Y4qe2HW7eXlgZgL5sxSpj2XI+1ikbABwThNG1bgurSK81IoDl9Ut9uZQnCKNn1XU26W6gWC7l27x+G8wUmrDsq5378Wu6gMktrcUOj9thFFbUU6Tmz1Usu/VF9/Mft9Kbcd/D7m2HB2LBmgnAYLUcYDX69nPP396ahy0q+RrAOgDbhjpD3UBEpO5jdxew0v3MCsIowkoCjHfP5oOwLOED3f/fhsaVr4mbCW4+05d3ylnAIvzdIXGku/5F6gbSF/V+iHQBkyvFXLvn7faUe9lSZsoGzwFfKZfyLQm4ln2w44X7YzHwkOftsKt7MRZpxMS4w32PFgMPBWF0DRas2R47MelQ7ITMfbEATFonxU3APkEYdQcCe6MVC/4c7um1b49liSqAJSLS+HEb7KCr+e5nao9thzsC+7tx+zAsA2kb0puhNdy1QV/qYM1z712+BrC6i9irhqX0Sb0n/IuBBxLQbjOxqPHO6kL/ewn6WrmUn+r7hbjsq/diBSv720d8z9Q7HFshEYnDxLgL23a4HJgZhNFfsK0Lu7jJ8AlYxuCu+FnTqb+TwSFYPavetGlnEEYPAe/z9LqbgTe6rQhr9S0REYnd2N1z2+FjbtvhaGA34Cg3dh+BBbjSthC1Zx/bdGUQRo/gbyH3kcApQRjdrm2E0hf1flDMxNIefTcXO2lPASzLRPse8OeEXE8AnF2F33NvS2txua+NkM0UBgDHorpDEt9JMdihIGWgHITRdVg9iSOAN7qJ3c4pmRBv7yaEfdm+/Yh7sRjn6bUfg2XhTdO3QkQk9mN3F1Z7cRowLQijX2OZREcDp2Kn821POjKzdg7CaFAfT21/AMt28/UU55OBHbDTqkV6pd4T+6mVYm65741WLuXXBGF0J3Aa6T4paz3wM+DnvT3CPY5c0OaDWEZHf6wFfM9Gm4i/24oknZPidmAOMCcIo5vd9/gk4ExslXdkgi9/LFYvbEkf/tunsa0Ih3p67ZOAN6EAloiIj2P3OmzHwrNBGP0Ry0o6FTtIKYefhcq31gSsNEJrH/7bR7Ga0jt6eu17AycCv9O3QHqrntHtNcCUBLXdHfTt1KekWA9cCXw3QSdAHQa8owq/Zw7+Hw+7H/0P5Ik0akLcUS7lZ5VL+auAt2E17W7AMo2SaDR2UmNftOL/1v63BmG0g3q+iIjXY/e6cilfBorA6dj29n9i2dZJNI6+L669CDzu8bUPAt4ZhNEo9XzprXoGsF7Ett0lxUzgPyntN93Bq6+XS/kVSbigbKYwBPg4lrbcX9PxP7h5NMnOWJH0TIiXl0v5fwEfwLKx/kbfttrF2QgsiNWX9ukESsA6j69/f+DN6u0iIokYtymX8pVyKf8n4J3A/wF3AR0Ju9QxWDH3vrTRavp2+nCcHIfVQBPplXoGsKZhJ1Ik5eG6HrgWWJqyPtMGXIoFr5Yl6LpeV8UXoMktrcX1vjZENlMYgdW/EknShHhtuZS/002EzydZxzcPoO8ZWGAnpr7o+fW/Lwij7dXTIQij5iCMDgjCaJxaQ0Q8H7tXlEv5v2I7JIrAigRd3jD6GMBy7sbvzPJRwIeCMNKCuY3dg4MwOigIo+FqjS2rZwBrcqWYW5+w9psM/CNF/WUlVrD9giQFr7KZQgb4NFZHpr+SsB1nJyyjQSSJk+HlWO2+T5KcRZVmNxHsqxeBez1vg0OpzhbwJDgS+CNwRRBG+6g5RCQBY/dC4JvA10lOEGsAlkHdVzPwf3fTycAb1MMBq639N+D7WpB79UlvPVSA+xP4MF2LZSOl4QSFBcDnge+VS/mk7UU/i+odRfu0+/HZIcC2ejwKQBBGewRhtF3Cnt2d2MmpFwKrE3BJTdhKbl/box24Ddse7vOLwMeCMNov5d/XHYGLsJMZ3wH8MQijM4IwGoSIpOU50BSEUZC0LMxyKd8GXOHevZKwnbC5n2P3MuB2z9tgBPCpIIwmpfw7exDwbez07POA64MwOj4Io2Zkk1+cengKO2EiiR4ELgfaE9xPHsVO5/uVOy0kMbKZwl7AJ4DBVfqV99O300Ti0h7N2J50vewILnvjt8B3gzAak6Rrc0d5Xwv8PSGX1N/v7GRgludtsJebCA9N6fd1DBaUDXv87QOBXwNfC8JoGz3VRFLhWCwL8/NBGA1O0oW595BL8T9ruPs9vL/353ZgcQL66weDMGpK6di9A/AD7ACt7n5xAnA9tjA3AnnFF6ce7qsUc0uT2IDuJehK4KYEXt46LEvhXeVS/l8uayExspnCICzKHVSxvaa0tBZ9bpZtgCP0aJQgjHYCLgaOAd4DfDFpgQGXTfobYLnnl9IEDOzn75iD/yu5AO/Gjl9P2/d1MJYl/R7XH3rKAF8Brg7C6OAgjPSAE0nus+Ag4BI3t/00VmMoUVkc5VJ+Aba4lpQsrP54Av+DeQPc+9jxKfy+jsEyr16/qVdV4MfAJUEY7aqnW/W+NFujDZiS5EYsl/IvAV9N2HW2uGv6SLmUn5HQW3cS8N4q/r552GEFPtsb2F2PxtRPgCcAP2RDXYKBbiJ8XgK3Ij0MPJmA6+jq5zjWidVe8L2+4Ugs2+iAFH1fBwIfBT7L5jPxBgJvwrIy3h2E0RA96UQS9yzYHavxmOvxPLwQeEcCs1vuwhZeUs2dRngT/u8E2h74pstGSsv3dTh2qNCmFp66DcVO0f5jEEZvCMJogJ509QlgzQGmp+AB8gy2Fc33At5t2Jaas4CfJOykwf/JZgqTgC8C1awP8FgCBtOj6d9pZuL/gDoaWw16+0b/aARWPPXDCRtAlwKPe34NXVRnJfpBklGvcj/goiCMJqbg+9qMnaz5Tfey+mr2wmrIfDdpte1EUj52bw/8BNt61NME7PS+MxKWfTkP/8vTdFGdwNMdwMwE3NMQ+GoaTuFzi0ifAz7Fq5eAaAIOB34HFJJW0qMv6hHAehSYm4bGLJfy04EPuwdJl2cfvwMLNJ4H/F+5lL83aVsGu7k6T+cAr6nyr57S0lps87hdhmL70CW9E+BhwJexmnebGh/GYAWiP+KyPpLw3O7E/8BzF7C2Cm2xHPgTfhdz75YHvp7k47ldIPm9wPexbYJbaxTwGeDaIIyOSWvdEZEEPQsy2Cnhb9rMv7IDlpl1RoK+720JeL/sctfR37F7DnBzAu5pE5Zt9IkkHzziynF8zs23e1PEfyKWUfmLtB9YU48A1uRKMbcuLQ1aLuUfB94P/ALw4bS+Tixq/3XgzcCvk5p11cPxwMer3P+XAfd53i5ZrOCvpHMCPBDLIv00W14NGucmyuclaBvSmgRMgqt1muKtWE2NJMxvPowVMR6S0O/rB4AfYRkWfWmfE4E/AOekYcVbJKFj9wjgAuBdbH4bEsCOWPHzsxJSE6sjAWN3ZxXH7r9g5V98NxTbVve+JJ7A58baAlampy/F2Qdju6T+GITRW9N6wnCtO0ZrAl7qe61cyrdgtSjOAR4hnkUG29xnOx9bqf5+uZR/sVzKJ/reZDOFbd1Do9rHtc7C/zo6B2N70CV9E+Bm4H3uu7E1L7Jjge8AXwnCaFQCmsD3l/dOqlS7qlzKz8XqJHUl4L4OxbaKfy5JBxC4a/k0ti1ofD9/3U7YtqOLgzDaRU9DEa+eBUOALwAfY+sO8shiQaxzEhDYH9DHAECcrKN6yQ5PAP9ISNceC3wXeE+SSlYEYTQWy6D6ShX67v7Ar7C6YeNJmVoHsJ4Bnk7joFIu5deUS/nrsdOQLsCCG40OZHUBC7Fifx/GAlfFcin/nDtNMdGymcIA4Fxs1bnaHgSWeNw2YNsHVdg3nd6CbQ3szb76kVj68499LrrpJke+n+6ynuqepHhjgsbu4Vhg9ktJOIrabRX6lvsZW8U2+jDwhyCMTkriqrdI0rix6xwsgNWbuVv3IS1fcy/UvhqKZZX5bBVVyiIrl/LtwLXA4oR08QnYCXwfTEKWURBGWWwb72dc362GccCXgGuCMDo0TScM13qSch/wUpoHmHIp/yK23eZUrFDbf7BAR70CRuuxPeKRG+ROAd5VLuWvLZfyC9IQuOrh9VgAq9rR/HZgcktr0eeaYeOAozQlTOUk+CRsG9K2ffjPB7sX398GYXS4p4PneOAgz2/jCqp4emC5lJ8FXE8ysrDAVjrPB77vc2H3IIy6C7B/lupnDTa5MeD3WMbaaD0dRWL7LGjCtgx+k607vGFjo9yL75XuueKjXbBDKXy2FFhZxd/3IHBLgrr6eCzTuOBrPcsgjJqCMDoc+C1Ws7La9WMHYAkpN2DbLoeSArUMYK0DplSKuTQFSDb3MtBVLuVfKJfylwNvBU5zA8fNwFPu5aMa2VkdWDT/eeC/wMVYPa6TgbPKpfxPyqX89HIpvzZt9yCbKewKfIP+b7fYlAXAw5430Z4JmAhI7wfWw91zYpd+vvi+zg2eH/Kwls4JwD6e38plbiJcTX9w41NSDMEWMH4ZhNH+nn1PBwRh9EZ3T86qwQS4p0nY9uArgzDaW09JkVjKY4vjmX78jkHAO7BaOm/2MMvlVMD3k1Rb3Ttgtd431wG/ARYlqK+PwXYy/TQIo508G7uHAO9xY/eJbLlGXX/tAVwG/MDnXRFbq5aToLnANI0xr3i4rADuC8LoPix7YVtgZxdA2A3bnz7BDUojsVXWAViwsQurdbIeC1StcA+/imvv2VgtprlYUGV1yjKsNimbKQzHVt+PrNVtdW3vsyOxLCxJiSCM9sVqYQRV+pW7AZcArwnCqAiU4/78cceOn0f10rkbZQlVznYul/LPBGF0DVaHIilbypqB04E9gzD6NnBT3Bd0gjCagB068gn6Vqy9L4YAZwNBEEbfAP7htqeISOOfCa8BfoqdLFgNBwNXA1cHYXRJuZSf7UEb7I+dluz7iYrzqV4R924PAH/F6qIlxRDgQ8B+QRhdCNwZ9zHJ1ZT8PFZftl61Yke6ucJBQRh9HZic1DhALQNYj+H/0eQ144qlr3NtNAeY7Dr8APdFHezuzyD31wFYAKu9x8969zvWuaPgZSOuttP7sAh4rUxtaS2u9riNBmP1r3SUenomwDtjmVfVDuoOB/4POBq4PAij68ul/KKYtsFYLCvzuATc0tnU5jSm64C3A4cm7CuwL3AV8NogjC4GnozbJM+dMngctvhyYo3na5tzIPBr4NIgjC4tl/JLEJFGPhcOxuro7FHlXz0Oq80TBmH0M+Dmcim/PKZtkMWyz5KQITqr2u9v5VJ+fRBGv8Ay1HZKUPdvAo7B6nz9OgijK1yZnrj1z6Gu7b8MHNaAd6tmbGfB9VjZhGvKpfwqEqaWE6LJlWKuTcNNrx88HVg0frVaoypC7LSHYTX6/SuBez1vo+2AQ9RVUjMBnogVcH19Df+YPbG6BW9zE6moXMq3xqgNdsOCV2eTjOyip2qxGlku5VuCMLoSS0tP2gEPo4CPAK91k+HrgTmNDmS5Aur7YrXl3k39sq42J4MVwT8kCKMLgOlJP61YJKZj9x5YlvPBNXzxPQQL7r/DPfv/Wy7lV8bk+pvctV+E1fP1XRe1OyxlOvA74GsJ/CpMwE4XPiUIoyuwTOrFMeifg9z351zsYKRGn9CdxerbHhKE0UXlUv65JHWCWgWwlmIF3EUa983NFHbDtr9ka/jHPI8dXeuzA2vcRhKfCfBo4NvAmXUaX47DVqAecAGCW4EWF6hvxOR3W2wL2cexwu1JyDpch51yWys3AmdgNVeSaA+s5tPZ2Cl8N2Gr4u117p9DsO2878DqXO0co/45EHgTlvHwrSCMbiyX8lqgFKnf82EHbNvg8XX447ozSI4H7g7C6Dqsru7CRgT4XVB/Z/dc/Aiwe0Ju61Lg2Vr84nIp3xWE0a/cuJ1L4FeiGQtmXgq8Pwij32OHlbXUe0eSq/t6KLbg9GasjmRcDAU+ABzgthT+pxHz71pNSmrhWWCmhhxplGymMAY7ZvzoGv9RD+N/scRjqF2GmsRnAjwM2470AeqbdTQUeI3rZ88CtwdhdCtWI3FhLScbLmg1HtgfO8ziFPe/ByXo1i6lhgGscim/1G2zO5LaHIIRBwOwQP7+wEddH70FeKiWfdRtE8y6cep0LGN4UozbqfsUxEOCMPpRuZSfryerSM3H7m2A71P/RYRR7s88CZgB3BqE0b+xRdsltQxmuXIq22LBl9cDb8AWGwYk6NbOA2qWFVMu5WcHYXSJe2Yn9WS6wW78PBz4JPCvIIz+CTxayz7qFpx2cXPb07EyLHGtI9zk2ud3WCH8K8ql/DLfb3ytAlgPYEVlReoumykMwvbyn1XjP6oTmNLSWuzwuK1GU/sgnzR+AjzIDe6fonHBm4HYaX/7YMU4ZwEPuQMtylg24zJgTV8CBm6Vdhh2Ys1OwH7AEVgG2J5uMp7EOm/PUPt6kyXgGuALCf+qNLtJ6UewuonPYtmDU91L2wvAcqCttxPjHv1zHHbgwYFYUPcwLLtgsCdtNMqNrwe7Fd17dViMSM3G7pFs2O7eqPFrCBZIymEFop9yz8X7scWTF91zcW1fngUuWNX9bNwVW0g4EtuOtRtWWzOJHscO4qqlvwBvrMP7UBziGfu6n4+4PnpfEEb3YsHXOVjJl7beboF3/XM4sA0WRM25sfsQYHsaU5+yLyZiiR25IIwuLJfyM3y/4dXWjtW/0oRG6s4VbX8X8Nk6vKgvAh70vMl2cw98Se4EuBl4P1YLLi4TweHAAe7nfW7yuxArRj47CKO57vv1kvtZi22Va2fD4RYj3Mv0Nm5g3gELXO2C1UgYS3JOz9uSh8ql/Eu1/APKpXx7EEY/xzKEDkvJV2dYjz76AdcP52Mr5i/06KPdx6Cvdf2zCQtGDQNGu/45yfXPXdzPtu6f+RpQbcYKy+8BfDcIo9+XS3nV7RSp7tg9BFs0+CjxyTwa5caAw9znesmN3c8DLwZhNA9Y7P7+sh5jd6e7hsHYSWmjsYzeiVgW6k5YIH+858/GrdWFBf/X1XjsXuFOhT7CjT1p0LOPfgxLqOnOduueX3b30ZVAmxu7m13/HI4thI53Y3cWC6zu5PrrSI/bZhAWzNzPnTB8S7mUX+/jhdQigDUPeERDjzTIyViNnzF1+LNmUsP03zo5nORuC9IEOIwA3obV+BkT04/ZjAWbxvLyU4U6gQ7309XjBze5bXYT4gGkI1C1KW3AXfX4g8ql/AtBGH0P+E2M+1It++g27mf/Hn+/w018OzfTP5vdPCup/XMnrC7PoUEYfbdcyr+gp65IVcbuge7l+/PENztzgJs/jsfq921q7O7c6Lm48bMxradfL6FOB0CVS/mH3MmSP8CfTN9qxjm2ZcN2VFx/7Nk/e2b8p2VuuT92wvDlQRj9tFzKV3yclFXb49gqukhdZTOFHHbiwo51+iOntrQWV3jcXt1FtpvVexLrZOw0wImeBg0GYbUbhmGrYiPcz3D39welvP8+j9Xhq5d/AFfra/WyF7ghW+ifg1PQP4dhJyb+IQijk1zGp4j0kavd+C7gAvzM9ug5dm/8XBzmnpmDSG/wCuAx6lsr+hrg7/p2get3A3uM3SNSOrcci53m+NsgjA51C95ePWSqbUqlmFur74fUkztx8KdYXZF6WA1M9bzZJpKe7UBpnAQfCVyMpeVLMv0XaKnXH+a2O/wYuEdNLxu9EBwFXAt8zp12KiJ98yasaHtGTZFYt5ZL+botgJdL+aVYJv5TanrpYSB24ugNwPuCMPKm2H+1A1jLqVNKpEi3bKYwCcu8OqGOf+wcLNvQZ/uj4EYiBWG0H3AJVshckmkl8Pd6HxldLuVbsMyAuboFspFt3UvSlUEY7a3mEOn12H0C8BNgO7VGYs0Fbqv3H1ou5R/Fingv1y2QjewBXAb8IAijHXz4wNUOYM3Cqv2L1EU2U8gA3wPOqPMfPQ0r6OuzY7CUWUnWBHgXLPPqCLVGoj1A4xaM7gK+C6zRbZCNDMFOTPtTEEZnuFo+IvLqY/chwM+A3dUaiXY7dnpjI9wIXI7VfxLpaSR2yuh1QRgd77Yyx1a1A1gPAhX1AamHbKYwCrgQO+683l+0yS2txfUet90I4Gj1osRNgCcCP8RqX0lyrQeuK5fyyxrxh7uj0q/GioB26nbIJhyIFfz/kG+1NUQaMHbviQWvDlJrJNoy4PpGnfzWowzALboVsgnN2G6m64HT4v5Bq6UDmFwp5jSZlZpzAZgLsGN8673CW8GyH3y2My8/TUv8nwCPAS7CTh2UZHsIaGhUoFzKr8G2i/1Lt0M2ow14sVzKqyVENj92Z7EarsepNRLvdmBKg8fuCnC+m0eIbMoKYl4mopoBrAXU9zQkSalspjAc+CrwSeykiHp7GnjG82Y8DD9PppNNT4CHA18B3odOlUxDUOAX5VJ+YaM/iPsMX9REWDZhJZYhfauaQmSzY/c2WMH2U9UaibcEuKpcyq+Owdg9E/gCdpKxSE8LgS+VS/lH4vwhq/mi8wTwgu671JLLvPoq8Dms1kYj3Acs9bgNm7GVPtUmScYEeBDwKRoX0JX6+g9wU1w+TLmUn+Gex8/q1oizHqvDd7Xbbioirxy7R2JB3ndS/zIYUn9/Bu6O0dh9F/AlYLFujTgrgG/S4Az/rVHNANaUSjG3WvdeaiWbKYwEvkZjg1dtwJSW1qLPTTkeOFw9KhET4GbgA1g6+DC1SOItAH7cqNpXW5gI3+OeyzqZUDqBa4BiuZRvU3OIbHLsHoJlr34EGKAWSbwngUtcDao4+Qvwdaw2l6RbG1Yf7Tf1Pt26L6oVwFpJ405DkhTIZgpjsONfPwcMbeBHmQtM97w59wV2U6/yfgIMcCZWh2i0WiTxOoArsRMA4+gfQAFYpFuVajcCXyuX8jqqXWTTY/dA4Fw3nx2sFkm81cCPyqX8k3H7YC5Q8Rvg28Aq3arUageucP10nQ8fuFoBrOeAsu6/1EI2U5gA/AA73rPRg/2j+J9lcDQKeCTB64EiMEFNkQr/Bi6P68qY2yr2R2xLgk4jTqdbgC+US3kFMUU2wR1N/x4s62WEWiQVrgP+ENcP505EvBT4LgpipVEHFsS8sFzKe3P/qxXAehitukoNZDOFHbGjhT9MPOr7TGlpLbZ53J7DgGPUs7yfBB+J1ZjZSa2RCs8C3yiX8rGuVeGCa7/HisOqrka6/Av4dLmUn6OmENmsN7tAwTg1RSrcC3zPndob57F7HfAT4HsoiJUmHcDvgK+US/mlPn3wagSwOoHJlWKuQ/1AqimbKewL/BIrcBmHGgFLsQLuXjcrcKB6l7+CMAqw1bJ91RqpsBS4oFzKP+jDhy2X8h1YEOuzwHzdvlSIgHPLpbxOtBLZ/NgdYjVmtlNrpMKLwPm+PBfLpfxa4EfYwQLaAp58HcDVwBfLpfwS3z58NQJYC4EH1Q+kWrKZAtlM4Tjgt8AbiM/pLM8CT3nevIdo8uT1BHg3LCNRRfjToc1NKP/s04d2mVh/AM5DpxMnWSdWBPjccimv+yyy+bH7cDd2q/5oOiwDLiC+NSs3N3a3uX56PrBEtzGx1mE1Vb9ULuW9LPlQjQDWDMDrVbdspjAsmymokGI87sVA4CwseBW3l/QHfH6gZzOFJuBYVDTUZ28FQjVDKnQAvwJ+Vi7l23378C6IdRPwIeAx3c7EaXfj9CfKpfyLag6RTQvCaADwfyj7PS3WAt8Hri+X8t59eLed8Cqs7rCe7cmzGssEPb9cyrf6ehHVCGBNrRRzKz1+qQdbJX6v+nTD78Uo4PPYSQhxW6Vaj9W/6vK4iccBR6qnee0P2ClfnWqKROsCbgC+WS7lvR1fy6U85VL+TuB9wJ3uuiQZE+CfAp8rl/IL1BwiW3wOdrh5bUmtkXjrgUuAS1xxdJ/77B+BD2KHV0kytAJfA75dLuVX+Hwh/Q1grQamen4zxwBvAT6azRQmqm83RjZT2BlLW70QyMTwIy7ADivw2V7AnuptXk+E5wKfxmoMqe5gMnVh27IKvqZ2b6LfTgc+gGXsrNct9tpi4CvYoQJL1RwiW/UMnAF8FLhNrZFY64HLgYvKpfzqBPTZrnIpfwd2auY/0cKp757HEnYuifuhAlujvwGsF4DHPW+DPdyL/SHY9hypo2ym0JzNFE7Ajpl9PzAkph/1cfxPpT0KnXyThInwQixT8XKsRpIkRyfwJ+Az5VJ+fsL67YtY8PWbQEW32ktPAh8BLk3CBFikzs/Ap7Eg1p8VDEicNuDnWGB/ecL67RNYKYDL0AmFPurCko3eA9zgsuu8198A1iNYZorPjgTGY6fcneMygaQOspnCSOBcLHh1LPEp1r4pU1tai2s8buvBro0lGROKJViRze9gxULFf+3ANcCnXaZdEvvtcuCHwIfxf/ErTTqwkwbPLpfyf3P1zUSk98/A2VgWxBVYrSTx32rssJULyqX8soT22wXAl7DThWfrlnujzc0r31Mu5af6WJNtc/oTwOoC7qkUc95G8lzB8ON6/K2DgY9lM4UB6vM1bXeymcI+bgAvAjvE/COvAO71vNm3d/1bkjOhWAX8APikJhTeW4UV1fy8y7BLcr9tL5fyf8MO67heL3Gx95J7znygXMqrFopI/5+Bi10w4OvopDffVYCvAt/xvabQVvTbtdjBMu8A/o0tukl8zXXPmU+VS/nnk3Zx/QlgLQYeTMBL/SE9/n8Tlib5evX72shmCkOBs7EU6vcAQz342M9jp2367CAgqx6YuAnFeuBa9126BxXJ9tF84ItYwfalKeq7M4GPAV/A85OME6oLmIYV8f2me+kWkeo8/1YBF2PZqE+oRbz0jBvDLnXBnTT0265yKX+/m3N+B1ikbhA7HdihOWe7vrkyiRfZnwDWk8Asz6//QGCnjf7eBODCbKawu74D1eOyrvbGTuf4BbC/Rx//QSxg67Pj8CNYKH2bUEwG3o1lNa5Uq3gTIHgQO6HvyrRMgDfquyuwWm5nYrW/lI0VD8vds+TMcil/s8+naYnE+PnXXi7lbwbeiS3qrlOreBMguM0FCP6SlJpCvey7i7EA1tnAf1A2VlwsdPflXeVS/p4kb/fvTwDr3kox53uhumOBYZv4+4cD38lmChl9F/ovmymMwjLb/oqtNo30bKCa0tJa9Hmr7BisgLske0IxB8tmORf/MwaTbhXwa+Cd5VL+9jTXFHIB2Efc2HAuVhtLmYSNG+/uww5U+Xy5lH9OTSJS82dgGTsc4Xxgjlok1lqxOo7vK5fyDyepplAf+m1HuZTvzvQ5H2VSN9I64F9YMPw7SS9FAX0LYDUBa4ApPl94NlMYDRyzhX/l7cAFrtC49K2NB2YzhWOxAnKXAfsR70Ltm7IIeMjzW7E7sLd6ZComFGuA32Mnqv4Ky6SQ+OjCtouci9UlUIBgQ99dAVwNnIHVRlygVqmrOcC3gLeVS/mb0pgRKNLA598ybEvhmcBNKBs1bjrce+97sZMGF6pJ/td3K1gNzzPcvHOpWqWuc8ongc8B7y6X8qVyKV/3bLggjAjCqNn91OXPHNiH/6YZeBF4LAEv9fts4Z8PwPY2r81mCt9paS1qW85WymYKTa59z3EP+0keX84M/F9VOAI7aVPSMZkAeCoIo09iJ4d9DsvAG6TWaaglWNHyS4Fn0rxy+yp997kgjL7qXuLOA94EjFHr1MxLwM3YItOjadwOIxKT518n8EAQRu/HAlmfAg6g/yfGS/+0YIGZX5ZL+Xlqjk323S7gMTfvvBH4BHAiMFytUzPz3ZzyKuBZdw/qIgijAVgd8QPcz67AWCxJZWUQRnOAMhYreqFcyrdV+zP0JYDVhBX29P1LfARW72pLhmBHho7IZgoXtrQWK/q+bFk2U5iEpTCegwUImzy/pKk+By+zmcIgrP5Vk3pn6iYUa4GbgzCagqV4nwPsq8lw3a0Gbsfq/92jekJb1XfbgfuCMJoOnAB8FDgJGKXWqZqVWO2Sy4G7azHBFJE+Pf+WA78JwugO4ANYncRd1DJ1t5QNwf1pad7q38t5521BGE0F3ujmnceiGrzVtAT4O3Al8HA9F52CMBoCHImdRHkiFrgaspl/vR2LFU0NwujPwB0u07Qq+hLAagcmV4o5bwu2ZTOFgcDxW/lSPxj4OLB9NlP4aktrcaa+O5ts0/HA6e5hdQjJyPZYBUz1/Bq25eUnbUr6JhSLgzC6FLgFeBd2esyeWJap1E73VvtfALcm/YjtGk+GJ2OBrA8Cr8NW+qRvVgAl4JfAf5N6QpFIAp5/s4Mw+jaW0fJ+rLTJjmhBstaWY4tOV6Hgfl/77grgT0EY3Q6cggVijwFGqHX6bAnwT6x+6n317JdBGDVhB999CngzsI37Rx1YXbiFWMC3C6tzvS0wDjsobycXH7g7CKOfAKVqLOT2NoDVBFSABzzvBJN6+VI/AKsps3s2U7gQiFpaizothP8FrvLuxeIoLOCXFC/i//HG+/PKkzYlfZOJLuD5IIy+C/wB257wTtc/tLWwulYCk7Haf7eVS/mlapJ+999VwD+DMCq5ceY9blI8SS9zvZr83gH81r2UKXAlEv9nXwfwRBBGX3JjytnA24A90CJUtbViWanXAHeVS/nVapJ+99+XgD8EYfRP4LVu7H4toEPStt484B9YfdsH6x1QDcJoEJZx9Q333AErPXA3cCt2mvYCbNG2C8vIGo8FvE52Pzu4OdvhwM+CMPqZyzTts94GsJqBp4BnPO8MBwI79+G/OwgrMvu7bKZwGfBMS2sxdacluRpX2wOnYTWuDmPzKYQ+ewT/Cwkfi1Y8ZMNkogurMVR0g+HrsVXdozWh6JcubAXqDqwmweT+Ds6yyf67GrjTZWTthy0svRnbrj5YLfQKHdhCTATcgG03UHFoEf+efd2BrK9j9ZhOwwJZh6Ct1f19Rs7BTnC7wQUI1qhZqt5/l2ElLW4DDsUWUU/FtqANVAu9wnrgaWwL641AuRHlJ4IwGozVM7sAq0W6BgumXYFlgW3uu7LAPa/+7OZqHwTejWVufR3YPgijr5ZL+da+fra+dJr7KsXcUs87xjH0vbDcGHczTwZ+lc0U/gi0tLQWE/9tclsv9wLe4h4+AcnN3ugCJre0Fn3eKjvSBSZENp5MdGEFIH8bhNGNwMFYJuXrsTpZKry5ddYAj7sB/R/ADG03qEv/XQdMD8LoUawOxGuxE5CORVlZYFmAj2CF8P8JzFJxdpFEPPs6sYOFLg3C6PdYPd/TsK3Vu5PMxeRaWA48jNUSuhUrgt2uZql5/10DTA7C6F6sLujrsUWoI9AiKlgW4P3AX4B/Ay31LM7ek9s2+AEs82q0e2f4DvC7rc3gdkG3R4Mw+oK7nu9iSUQfAdYGYfSVvgaMexvAWo1tjfBWNlMYhQWw+qMJW/H9PpaB9IdspnAzMMvngMdm2qvJPVSOxFZ7TgayKXhBSMJW2V2xyLfIlgaYVcAUV3TzYmxF9ySs+P/eWNBe27Q2WAM8C9wF3AbcByxp1CQj5X23C0uvv84FYvdxffcNQM6NXWk5tKDN9cs7sXp3DwJLddqlSGKff0uBfwdh9B9sV8QRbo5+NLAbysza2ArgSeC/bux+BFimZ2RD+m4H8BxwpQvEHuDG7ZOx5Ig0zTtXuX75byxb+lE3L2+047FsqdHYSZyfBP7Wl7muC2RFQRjNxWrLHYHVzH4SqxPba70NYM3B0tp8tlsVX+oHYtsKD8BOSbo9myn83QU+Kr5uL8xmCriBb3/3MDkFi5imaSvai8DqbKawnacP0Q4gBCZqqJReBAMWAbe6NO+MCwgc4SbEB2D11IaRroBWJ1acciZ2qMPd2MrtAp1KFKv+2wY8iq32/cL13ddg2VkHY0VFk7ZVYa17CZjiJr/3AfNTlm3Via1aL3Hjnm+aPf7sW6PNjSu+BpIHuMBHnJ99ne4FsyUIo79h9Wf2xxaej3IBgR1IX3ZWB7YYXcaSL+4BpqMFp7j131XYqcP3Y1lZB7j3lxNcPx5P8haiVmJbBO/GDgx4EKjEpV8GYTQO+LJ7biwHvgLcXC7lCcLotdgCd8/5bxO2c6kNq481233vFvS8pnIpPz0Io88A17p4zOeCMLqnXMo/2dvP2KuXkPGFaQMAKsWctwNtNlP4CLbloFZfhtXuRedO9/MosCjumVnZTKHZPST2w6KuJ2JBq7SmdC53EwJfdQETUACrES+Up7S0Fu9K0kW5Io6TXFDgMBcQ2M8NbmMSNrlY5wbgF93z+0FgGlb7cZkmvl71W7Dju3fF6m4c6/66G3ZCjm/9tsMFO54C7nUvZNPcJLEjpfd4gLufw9245+sz5zm3NTZp92cMfas5GyeVcik/z9Pn3xA3Tgdu7D7IjePbYQvVSVqMWosFs593z8UHsYDVc8BKZVp513dHYkXDj8B2TuWwRVQfs7PWY4H8GdhC6D3AY8QoaLVR+78Py4waDFwKfKF7fHKHQZ3/Ku+fa7Hsqh8Bf9p4fhKE0TlYsHKI+3e+1NsF4VRtC3E1nH4N/F+d/sjV7kH6sOuw3Q/SpcD6RtXNchlWA91DYFcs2n20m9jvkcBBTaSeE6jEBbA2MbgNxoLbu2E1swL3152xrQzDiX99vA5stagVmIutGM3AVo2exgLYy1Q7KHHBjrGu3x7gJsT7A7tgwf6hxCeo1eUCG0vcvOEx4CH3YvY8sFzBVBHpZVBgKLZYvQe2CBVgpQJ2xrJUhxH/TNV2N9equLH7eTduz8AWmuYBK5Qhnai+OxArAL6nG7sPcf13Z/f3h8TovbU7gLMImOXe/R/CFkRfJObBVLfocCNWjuEZ4PRyKT+zxz/vDmCtd9e1rEfbD8UC5ru458hi4IPlUv4fG/0ZY7FDE97g5jenlkv5p3rzOdMWwNoB2/ccNKhDL3WddybwhHtJmuU6+TJgVUtrsaPK19zkXibHYBk5u7nBKnBf/p1IV50QkVpKRQBrMxPjIe4Zs70bvHbHAuTdQa2x2IrayDpOkNdh9QVWuWfsfDe5ne0mvS+4/78Iy7rs0CptqvptE7Y1flvXT/d2E+Rde0yMR9ehz65z/W+p64/PuvnBDPe/56GAlYjU5hk4DAvgb+/eEXbr8Qyc5N4fRrpn5YA6vS+1YUkAK3s8F+duNHbPdy/IKxWsSmW/HY1lEu7SY+zepcd77ag69Nm1bux+CSuz1D12l10/nQes8mleGYRRiJ1+OAar9f2VnnOPHgGsJdhJkg/2aOPBbj51HvApbCE7As5yp0j3/HPeDfzG/TufLJfyP+/N50zb0ZXdK62N0IRtWRiHpfC+o8fL1WL3IF6YzRTm93got7qH92r3MF+HrTx0YHtPB2CBp8HuZ7j7so51L5LbYZHQSW5gmui+0INRhpWIVIkbnNtwdThwByAEYdTsJsfD3bNvons2TcBWgbt/xrpn1zAsEDbYDWrdz7hm99zrcn9td8/DdW4CsZoNQaol7mcxtkLb2uPvrXH/frsCVeImZSvdzyzgTjcxHuL6bMaNnxPcpGxb97+7A1vDXZ8d6vrroB79lR5j9Tr3/Vjj+uly1z8XuQnuAvcz3/Xh1cr8E5E6PQNXu4DQC9huke5s1WFuXN6mx7i98dg9psdzsOfY3ezG76aNxu71PcbuNe5npQsAtG5i7K64f7YGaNNzUXr022XuZyZWu7XJjcUjXN/cdhNjd6bH2D20x9g9sEef7e6rHT3G7p5zzMXAwo3G7gVuXF+TgGDqCe57/RLwj1dZOOtw/7y7TFI78HwQRj/GTkY9GNuyvC0W0OvpLizgtx/w2iCMftmbbfRpC2AdS7wKkXcHnsYBe22qY/T48qzn5cGrLvdla3L3cZD7XUPc/1aASkQaPcnoZEMG1GJsZepl3KRjwEaT34G8PHjV1OO51z1Ydv+sd8/IdqBTgSmpwsR4LRvqqTy7UX+lx7i7pT7b3Vc7e/TT7oDrevVVEYnxc7CDDcH9hZsYt7fmOdi00djdyYYFqPYe7zftQJeeh1KFsbs7KFrBAlub6rODNtNnmzYauzs2M3Yntq8GYTQUCzqBbR98so+/apV7dmzJAix7az/3MwHLstwqqQlgZTOFkVgROJ90r4AM06NJRBI86eie0K5Si0jM+ytucrse/09lFhHRc1DS1Ge7MwDllUZi24fBFpyXvcq//4rsLJe9eRIbyjXNwIJVG9+P9iCMZrj/OwHLdlcAaxN2xSJ8IiIiIiIiIiKyoWY2wLxX2bI7BHhLEEYHsyHjcjQWuDoF2122CLiiXMqv2czvmI8tXo9y/+1WS1MA63BsD6aIiIiIiIiIiGyoPQu2ZXJLRgJf6/H/O9mwbbgdy7z6DvDvLfyOtWyo6d2rmFQqAljZTGEAcDw6aU9EREREREREpNs6rPYXWDbWlnQAz2E1x0Zih8YNwYrb/wz4EzD7VYrAD8eCV73eipyWgM5E4DD1SxERERERERGR/1mNHV4DkHX1rDZnOXAucCJW8+o84EVst9vx8L8at1uyPRbAWsGr19t6mbQEsPYHdlG/FBERERERERH5n5VYVhXA3kBmC/9uJ9BaLuWXlEv558ul/K+B87HDmE4Dvh+E0djN/cdBGA0CDnD/dyFWD2urpSWAdQyW3iYiIiIiIiIiIkC5lG8DHnb/dw82BJg2p2mj/38j8Bv3v98GnBOEUdNm/tssG3bHPQ5UevNZEx/AymYKI4Bj1S1FRERERERERF7hLmwb4SjgjFfZRvgy5VJ+HXAZFpAaCHwSOHIz//rrgN2wWlp3lEv59t58yDRkYO2CHekoIiIiIiIiIiKAECMkAAAGtklEQVQv9xgwxf3vM4CDevMfl0v5WVgQax2WZVUIwmh0z38nCKOJwPuw+ldPA3f09kOmIYB1OFZQTEREREREREREeiiX8quA32K1rHYEPhOE0Yge/0rTVvyavwB3u/+dB87u/gduS+H7gaPc37oBeKG3nzPRAaxspjAAOA6L8ImIiIiIiIiIyCvdCvzD/e8zgY/02Er4AnAf8ABW9P0VyqX8EuDH2HbEacBhQRh1F4Q/BfgMtsVwGvDbcinf6w84MOE3YAKWgSUiIiIiIiIiIptQLuVXBWH0AyAH7AV8DVgVhNE1WJH264AuYM0Wfs2/gXuwjK0uYE0QRicCPwW2A5YC3yuX8rP78hmTHsAKgF3VFUVERERERERENq9cyk8LwugrwOXARKAI7ARcWi7lF23Ff9+JbUMkCKPh2LbBC4CdgbXAj4Cb+/r5kh7AOgaroi8iIiIiIiIiIlt2EzAM+AGwPfBl4DVBGF0B3A4s2dL2P1c760jgo8BpwHAsqPVj4KflUn59Xz9YU1JbPJspDMeKiJ2i/icidbIWOKWltXiXmkJERERERHwUhFEzcBLwbawsUxO2dXAa8B+sHtYcYAW2VXA4MAnbfngScDQwzv26F4DvAr8rl/Jt/flcSc7A2gU4QF1PRERERERERGTruK2A/w7CaCZwDvAebCvhMe6nDWjFCrp3YgGsjPtrd6LUEuAW4BJgermU7+rv50pyAOtQYFt1PRERERERERGR3imX8i8GYfQN4AbgLdgOt32B0VhR9p666189B/wX2xH3YLmUX1utz5PIAFY2U2gGjif5Nb5ERERERERERGqiXMp3AE8EYfQEcBmwBxbE2hkYAzRjmVhzgZnAU8Ail8VVVUkN8EwAjlBXExERERERERHpH1e4/SXgQfdTd80Jbdt9gd3UxURERERERERE/JfUANYxwCjdXhERERERERER/yUugJXNFIYDx+rWioiIiIiIiIgkQxIzsHYCDtStFRERERERERFJhiQGsA4FttWtFRERERERERFJhkQFsLKZQjNwPDBIt1ZEREREREREJBmSloG1DXCEbquINEgX0KlmEBERERERqa6kBbD2BXbXbRWRBukE1qsZREREREREqitpAayjgdG6rSLSIGvdj4iIiIiIiFRRYgJY2UxhGHCcbqmINNByYIWaQUREREREpLqSlIG1I3CgbqmINNAS4CU1g4iIiIiISHUlKYB1KLCdbqmINNCLWBaWiIiIiIiIVFEiAljZTKEJ2z44SLdURBrosZbWYruaQUREREREpLqSkoG1DXCkbqeINNAa4GE1g4iIiIiISPUlJYC1D7CHbqeINNCLwGNqBhERERERkepLSgDraGCMbqeINNBkYK6aQUREREREpPq8D2BlM4VhWP0rEZFGWQP8o6W12KGmEBERERERqb4kZGBlgQN1K0WkgR7BMrBERERERESkBpIQwMoB2+tWikiDtAPXtbQWK2oKERERERGR2vA6gJXNFMC2Dw7WrRSRBnkIuFnNICIiIiIiUju+Z2BtAxyl2ygiDbIGuKyltThfTSEiIiIiIlI7vgew9gb21G0UkQa5CfibmkFERERERKS2fA9gHQWM1W0UkQZ4EvheS2txpZpCRERERESktrwNYGUzhaFY/SsRkXprBb7R0lp8Qk0hIiIiIiJSez5nYO0AHKxbKCJ1tgb4AbZ9UEREREREROrA5wDWwVgQS0SkXtYBPwMubWkttqs5RERERERE6mOgx5/9OGCwbqGI1MlaLHj13ZbW4ho1h4iIiIiISP14GcDKZgoZrIC7iEg9vIRtG7y0pbW4Ws0hIiIiIiJSX75mYO0F7K3bJyJ18BTwDeCvLa3F9WoOERERERGR+vM1gHUUME63T0RqaC3wN+C7wGMtrUW1iIiIiIiISIN4F8DKZgpDsPpXIiK10A5MBy7Dsq5WqElEREREREQay8cMrB2AnG6diFRZG/AocB1wY0trcZ6aREREREREJB58DGAdBGR160SkCtqAucBU4O/AXcAibRcUERERERGJFx8DWEe7z61iyiKytTqwYNUK7ETBF4HHgYeBR4A5KtAuIiIiIiISX00+fdhsptAEHAhsC3Tq9onIVuoA1gDLgQqwDFjX0lrsUtOIiIiIiIiIiIiIiIiIiIiIiIiIiIiIiIiIiIiIiIiIiIiIiIiIiIiIiIiIiIiIiIiIiIiIiIiIiIiIiIiIiIiIiIiIiIiIiIiIiIiIiIiIiIiIiIiIiIiIiIiIiIiIiIiIiIiIiIiIiIiIiIhIDfw/LfQt9OpPp38AAAAldEVYdGRhdGU6Y3JlYXRlADIwMTgtMTEtMDdUMTA6MzA6NTYrMDA6MDCjm4aNAAAAJXRFWHRkYXRlOm1vZGlmeQAyMDE4LTExLTA3VDEwOjMwOjU2KzAwOjAw0sY+MQAAABl0RVh0U29mdHdhcmUAQWRvYmUgSW1hZ2VSZWFkeXHJZTwAAAAASUVORK5CYII=;" parent="1" vertex="1">
                    <mxGeometry x="534" y="-172.5" width="119" height="35.01" as="geometry"/>
                </mxCell>
                <mxCell id="99" value="" style="image;html=1;image=img/lib/clip_art/networking/Router_Icon_128x128.png" parent="1" vertex="1">
                    <mxGeometry x="678" y="-180" width="80" height="80" as="geometry"/>
                </mxCell>
                <mxCell id="104" style="edgeStyle=none;html=1;entryX=0.25;entryY=0;entryDx=0;entryDy=0;strokeWidth=1;fontSize=12;" parent="1" source="100" target="99" edge="1">
                    <mxGeometry relative="1" as="geometry"/>
                </mxCell>
                <mxCell id="100" value="" style="sketch=0;pointerEvents=1;shadow=0;dashed=0;html=1;strokeColor=none;fillColor=#505050;labelPosition=center;verticalLabelPosition=bottom;verticalAlign=top;outlineConnect=0;align=center;shape=mxgraph.office.devices.nic;fontSize=24;" parent="1" vertex="1">
                    <mxGeometry x="624" y="-254.99" width="57" height="38" as="geometry"/>
                </mxCell>
                <mxCell id="105" style="edgeStyle=none;html=1;entryX=0.75;entryY=0;entryDx=0;entryDy=0;strokeWidth=1;fontSize=12;" parent="1" source="101" target="99" edge="1">
                    <mxGeometry relative="1" as="geometry"/>
                </mxCell>
                <mxCell id="101" value="" style="sketch=0;pointerEvents=1;shadow=0;dashed=0;html=1;strokeColor=none;fillColor=#505050;labelPosition=center;verticalLabelPosition=bottom;verticalAlign=top;outlineConnect=0;align=center;shape=mxgraph.office.devices.nic;fontSize=24;" parent="1" vertex="1">
                    <mxGeometry x="728" y="-254.99" width="57" height="38" as="geometry"/>
                </mxCell>
                <mxCell id="102" value="LAN" style="text;html=1;strokeColor=none;fillColor=none;align=center;verticalAlign=middle;whiteSpace=wrap;rounded=0;fontSize=24;" parent="1" vertex="1">
                    <mxGeometry x="621" y="-294.99" width="60" height="30" as="geometry"/>
                </mxCell>
                <mxCell id="103" value="WAN" style="text;html=1;strokeColor=none;fillColor=none;align=center;verticalAlign=middle;whiteSpace=wrap;rounded=0;fontSize=24;" parent="1" vertex="1">
                    <mxGeometry x="728" y="-294.99" width="60" height="30" as="geometry"/>
                </mxCell>
            </root>
        </mxGraphModel>
    </diagram>
</mxfile>